<svg xmlns="http://www.w3.org/2000/svg" xml:space="preserve" width="2500" height="2500" x="0" y="0" viewBox="0 0 2500 2500">
	<style>
		.dark3{fill:#57f}
    .dark2{fill:#9bf}
    .dark1{fill:#cdf}
    .white{fill:#fff}
    .contour{fill:#147}
	</style>
	<g id="layer-bg-items" opacity=".6">
		<path d="M1446.1 44.4C877.5-57.3 444.4 322.8 412.3 351.9c-50.9 46.2-409.2 382-392.5 908.6 14.7 464.1 314.9 897.9 739.7 1062.9 662.7 257.5 1567.9-162.6 1696.6-909.2 110.5-641.9-398.7-1260.5-1010-1369.8" opacity=".2" class="dark3" />
		<path d="m973 2155.6-225.5 202.9c-.2.2-.4.3-.7.3l-558.4-1.9c-.8 0-1.3-.9-.7-1.5L411.5 2154c.2-.2.4-.3.7-.3l560.1.4c.9 0 1.3.9.7 1.5" class="dark3" />
		<path d="m746.9 2363.1-558.5-1.9c-2.3 0-4.2-1.4-5-3.4s-.2-4.3 1.4-5.8l223.8-201.3c1-.9 2.3-1.4 3.6-1.4l560.1.4c2.3 0 4.2 1.3 5 3.4.8 2 .2 4.3-1.4 5.8l-225.5 202.9c-.9.8-2.2 1.3-3.5 1.3m-549.3-10.8 547.9 1.9 217.6-195.7-549.6-.4zm772.5-200" class="contour" />
		<path d="M973.6 2154.3v122.3l-224 201.6c-.9.8-2.3.2-2.3-.9v-118.6s223-204.3 226.3-204.4" class="dark2" />
		<path d="M748.6 2482.9c-.8 0-1.6-.2-2.4-.5-2.1-.9-3.4-2.9-3.4-5.1v-118.6c0-1.2.5-2.4 1.4-3.3.6-.5 56.4-51.6 112-102.1C969.7 2150 971 2150 973.4 2149.9c1.2 0 2.4.4 3.3 1.2s1.4 2 1.4 3.2v122.3c0 1.3-.5 2.5-1.5 3.3l-224 201.6c-1.2.9-2.6 1.4-4 1.4m3.1-122.3v109.7l217.4-195.7v-111c-28.5 24.6-140.2 126.3-217.4 197" class="contour" />
		<path d="m747.3 2478.5-560.2-1.9.5-119.4 559.7 1.5z" class="white" />
		<path d="M747.3 2482.9s-.1 0 0 0l-560.2-1.9c-1.2 0-2.3-.5-3.1-1.3s-1.3-2-1.3-3.1l.5-119.4c0-2.4 2-4.4 4.4-4.4l559.7 1.5c2.4 0 4.4 2 4.4 4.4v119.8c0 1.2-.5 2.3-1.3 3.1-.8.9-2 1.3-3.1 1.3m-555.8-10.7 551.3 1.9v-111l-550.9-1.5z" class="contour" />
		<path d="m1700.7 1747-227.4 204.6-615.8-1.9c-.9 0-1.4-1-.7-1.6l224-201.5z" class="dark3" />
		<path d="m1473.3 1955.9-615.8-1.9c-2.3 0-4.3-1.4-5.1-3.5s-.2-4.3 1.4-5.8l224-201.5c.8-.7 1.9-1.1 3-1.1l619.9.4c1.8 0 3.5 1.1 4.1 2.8.7 1.7.2 3.7-1.2 4.9l-227.4 204.6c-.7.7-1.8 1.1-2.9 1.1m-606.7-10.7 605 1.9 217.6-195.7-606.7-.4z" class="contour" />
		<path d="M1700.7 1747.1v523.6l-224 201.6c-.9.8-2.3.2-2.3-.9v-519.9s223.1-204.2 226.3-204.4" class="dark2" />
		<path d="M1475.8 2477.1c-.8 0-1.6-.2-2.4-.5-2.1-.9-3.4-2.9-3.4-5.1v-519.9c0-1.2.5-2.4 1.4-3.3.6-.5 56.4-51.6 112-102.1 113.5-103.2 114.7-103.3 117.1-103.4 1.2 0 2.4.4 3.3 1.2s1.4 2 1.4 3.2v523.6c0 1.3-.5 2.5-1.5 3.3l-224 201.6c-1.1.9-2.5 1.4-3.9 1.4m3.1-523.6v511l217.4-195.7v-512.3c-28.5 24.5-140.2 126.3-217.4 197" class="contour" />
		<path d="m1474.4 2472.7-618.4-1.9c1.3 1.2.5-520.7.5-520.7l617.9 1.5z" class="white" />
		<path d="m1474.4 2477.1-618.3-1.9c-1 0-2.2-.4-3.1-1.1-1.2-1.1-1.7-2.7-1.4-4.2 1-13.8.7-345.3.4-519.8 0-1.2.5-2.3 1.3-3.1s2-1.3 3.1-1.3l617.9 1.5c2.4 0 4.4 2 4.4 4.4v521.2c0 1.2-.5 2.3-1.3 3.1-.7.7-1.8 1.2-3 1.2m-613.7-10.7 609.3 1.9V1956l-609-1.5c0 23.8.2 139.7.3 255.7 0 75.5 0 135.8-.1 179-.1 24.4-.1 44.8-.2 59.1-.2 8.6-.2 14.3-.3 18.1" class="contour" />
		<path d="M1119.2 2271.5c-1.2 0-2.4-.5-3.3-1.5-1.6-1.8-1.5-4.6.3-6.3l179.1-161.1c1.8-1.6 4.6-1.5 6.3.3 1.6 1.8 1.5 4.6-.3 6.3l-179.1 161.1c-.9.8-2 1.2-3 1.2M1112.8 2150.2c-1.2 0-2.4-.5-3.3-1.5-1.6-1.8-1.5-4.6.3-6.3l56.9-51.2c1.8-1.6 4.6-1.5 6.3.3 1.6 1.8 1.5 4.6-.3 6.3l-56.9 51.2q-1.35 1.2-3 1.2" class="dark1" />
		<path d="m2455.5 2007.7-225.3 202.7-624-1.9c-.7 0-1-.7-.5-1.1l224.5-201.9 624.5.4c1-.1 1.5 1.1.8 1.8" class="dark3" />
		<path d="M2230.2 2214.8q-.15 0 0 0l-624-1.9c-2.2 0-4.1-1.3-4.8-3.3-.8-2-.2-4.1 1.4-5.6l224.5-201.9c.8-.7 1.9-1.1 3-1.1l624.5.4c2.4 0 4.5 1.4 5.3 3.6.8 2.1.2 4.5-1.5 6l-225.3 202.7c-1 .7-2.1 1.1-3.1 1.1m-614.3-10.8 612.6 1.9 217.6-195.7-614.2-.4zm836.6-199.6" class="contour" />
		<path d="M2456.5 2006v269l-224.6 202.1c-.6.6-1.7.2-1.7-.6v-266.2s223-204.2 226.3-204.3" class="dark2" />
		<path d="M2231.2 2481.9c-.8 0-1.5-.2-2.3-.5-1.9-.9-3.2-2.8-3.2-4.9v-266.2c0-1.2.5-2.4 1.4-3.3.6-.5 56.4-51.6 112-102.1 113.5-103.2 114.7-103.3 117.1-103.4 1.2-.1 2.4.4 3.3 1.2s1.4 2 1.4 3.2V2275c0 1.3-.5 2.5-1.5 3.3l-224.6 202.1c-1 1-2.3 1.5-3.6 1.5m3.4-269.6v256.5l217.4-195.7v-257.8c-28.5 24.6-140.2 126.3-217.4 197" class="contour" />
		<path d="m2230.2 2478.5-624.8-1.9c1.3 1.2.5-267.7.5-267.7l624.4 1.5c-.1-.1-.1 268.8-.1 268.1" class="white" />
		<path d="M2230.2 2482.9q-.15 0 0 0l-624.7-1.9c-1.1 0-2.2-.4-3.1-1.1-1.2-1.1-1.7-2.8-1.3-4.4.8-10.2.7-164.3.3-266.6 0-1.2.5-2.3 1.3-3.1s2-1.3 3.1-1.3l624.4 1.5c2.4 0 4.4 2 4.4 4.4v268.2c0 1.2-.5 2.3-1.3 3.1s-2 1.2-3.1 1.2m-620.3-10.7 615.8 1.9v-259.3l-615.5-1.5c0 16 .2 72.6.2 129.2 0 38.8 0 69.8-.1 92 0 20.4 0 31.5-.4 37.7" class="contour" />
		<path d="M2036.1 2369.1c-1.2 0-2.4-.5-3.3-1.5-1.6-1.8-1.5-4.6.3-6.3l56.9-51.2c1.8-1.6 4.6-1.5 6.3.3 1.6 1.8 1.5 4.6-.3 6.3l-56.9 51.2c-.9.8-2 1.2-3 1.2" class="dark1" />
		<path d="M478.8 1029.8c0-402 325.9-728 728-728s728 325.9 728 728c0 402-325.9 728-728 728s-728-326-728-728" class="dark2" />
		<path d="M1934.7 1034.2c-2.4 0-4.4-2-4.4-4.4 0-298.1-187-569.8-465.4-676.1-2.3-.9-3.4-3.4-2.6-5.7.9-2.3 3.4-3.4 5.7-2.6 137.1 52.4 254.3 143.8 338.8 264.5 86.5 123.4 132.3 268.6 132.3 419.9 0 2.4-2 4.4-4.4 4.4" class="contour" />
		<path d="M622 1029.8c0-322.9 261.8-584.7 584.7-584.7s584.7 261.8 584.7 584.7-261.8 584.7-584.7 584.7S622 1352.7 622 1029.8" class="white" />
		<path d="M756.9 1029.8c0-248.4 201.4-449.8 449.8-449.8s449.8 201.4 449.8 449.8-201.4 449.8-449.8 449.8c-248.4-.1-449.8-201.4-449.8-449.8" class="dark2" />
		<path d="M916.3 1029.8c0-160.4 130-290.4 290.4-290.4s290.4 130 290.4 290.4-130 290.4-290.4 290.4-290.4-130-290.4-290.4" class="white" />
		<path d="M1460.9 1716.6c-1.8 0-3.5-1.1-4.2-2.9-.9-2.3.3-4.8 2.6-5.7 124.8-46.5 234.5-126.8 317.1-232.2 1.5-1.9 4.3-2.3 6.2-.8s2.3 4.3.8 6.2c-83.6 106.6-194.6 187.9-321 235-.5.3-1 .4-1.5.4M777.2 1167.9c-1.9 0-3.6-1.2-4.2-3.1-13.6-43.6-20.4-89-20.4-135.1 0-2.4 2-4.4 4.4-4.4s4.4 2 4.4 4.4c0 45.2 6.7 89.7 20 132.4.7 2.3-.6 4.8-2.9 5.5-.5.3-.9.3-1.3.3M1647.3 943.5c-2.1 0-3.9-1.4-4.3-3.5-20.3-99-74.6-189.2-153-253.9-1.9-1.6-2.2-4.4-.6-6.2 1.6-1.9 4.4-2.2 6.2-.6 80 66 135.4 158 156.1 258.9.5 2.4-1.1 4.7-3.5 5.2-.3.1-.6.1-.9.1" class="dark3" />
		<path d="M756.9 1034.2c-2.4 0-4.4-2-4.4-4.4 0-250.4 203.8-454.2 454.2-454.2 47.3 0 93.9 7.2 138.5 21.5 2.3.7 3.6 3.2 2.9 5.6-.7 2.3-3.2 3.6-5.6 2.9-43.8-14-89.5-21.1-135.8-21.1-245.6 0-445.3 199.8-445.3 445.3 0 2.4-2 4.4-4.5 4.4" class="dark3" />
	</g>
	<g id="layer-figure">
		<path d="M1566.2 1701.7c71.4 20.4 148.1 39.7 161.4 51.5 17.3 15.3 27.7 31.6 30.1 60.7 2.4 29.2-3.5 110.2-96.4 120.2s-316.5-39.7-423.5-97.4c0 0-29.1-18.8-38.8-50.6l-53 8.7c32.2 38 36 80.2-40 99-92.6 22.8-199.7 43.8-245.8 50-18.9 2.5-38 2.5-56.8-.3-166.2-24.3-110.1-157.4-86.2-176.2 5.7-4.5 17.8-17.4 45.7-36.7l7.7-5.5c26.4-17.6 64.1-38.9 117.3-60.3 117.7-47.4 153.2-144.6 153.2-144.6l184.2-11.6 161.4 29.3s3.2 102.6 117.9 145.2c17 6.3 36.7 11.5 56.8 17.3z" class="dark3" />
		<path d="M832.7 1949.8c-10.1 0-20.1-.7-30-2.2-81.2-11.9-107.6-49.4-115.4-78.8-12.2-45.7 13.5-94.5 27.1-105.3 1.3-1 3.1-2.7 5.4-4.8 7.2-6.5 19.3-17.5 40.4-32.1l7.6-5.5c32.9-22 72.7-42.5 118.3-60.8 114.5-46.1 150.3-141.1 150.7-142 .6-1.7 2.1-2.8 3.9-2.9l184.2-11.6c.4 0 .7 0 1.1.1l161.4 29.3c2.1.4 3.6 2.1 3.6 4.2 0 1 4.6 100.2 115 141.2 13.4 5 28.5 9.2 44.4 13.7 4 1.1 8.1 2.3 12.1 3.5 1 .3 1.8.9 2.4 1.7.8-.3 1.8-.4 2.7-.1 14.6 4.2 29.4 8.3 43.9 12.3 66.9 18.6 108.4 30.6 119.2 40.1 20.2 17.8 29.3 36.2 31.6 63.7.9 11.6 6.1 113.5-100.4 125-8.6.9-18.2 1.4-28.5 1.4-107.1 0-301-47.2-397.6-99.3-.1-.1-.2-.1-.3-.2-1.2-.8-28.4-18.7-39.4-49.4l-41.8 6.8c15.8 20.8 21.3 40.4 16 57.1-6.4 19.8-27.6 34.3-63.1 43.1-93.9 23.1-201 44-246.3 50q-14.25 1.8-28.2 1.8m211.3-425.7c-6.9 16.3-47.5 101.4-154.6 144.5-45 18.1-84.2 38.2-116.5 59.9l-7.5 5.4c-20.7 14.3-32.5 25.1-39.6 31.5-2.4 2.2-4.3 3.9-5.9 5.2-11.9 9.4-35.1 54.7-24 96 10.3 38.5 47.7 63.5 108.1 72.3 18.3 2.7 37 2.8 55.6.3 45.1-6 151.8-26.8 245.4-49.9 32.3-8 51.4-20.5 56.8-37.2 6.2-19.2-7-40.3-19.1-54.6-1-1.2-1.3-2.9-.8-4.4.6-1.5 1.9-2.6 3.4-2.8l53-8.7c2.2-.4 4.3 1 5 3.1 8.8 28.7 34.7 46.7 36.8 48.1 102.8 55.4 326.8 107 420.8 96.8 96.1-10.4 93.9-98 92.5-115.4-2.4-29.1-13.1-44.2-28.6-57.8-9.8-8.7-63.7-23.7-115.7-38.2-14.5-4-29.3-8.2-44-12.4-1-.3-1.8-.9-2.4-1.7-.8.3-1.8.4-2.7.1-4.1-1.2-8.1-2.3-12.1-3.4-16.1-4.6-31.3-8.8-45-14-103.8-38.6-118.5-126.7-120.5-145.6l-157.5-28.6z" class="contour" />
		<path d="M1080.8 1883.2s110.5-31 184-65.9c67-31.9 182-94.7 213.1-111.5 31.2-16.8 57.6-14.5 84.9-6.3 24.2 7.3 43 9.7 40.5-11.5-1.9-16.4-23.5-6.6-52.9-31.3-29.5-24.7-70-36.1-108.1-3.6-38.1 32.6-92.7-4.3-122.7-11.5s-55.1 15.6-57.1 48.3-134.1 98.1-134.1 98.1z" class="white" />
		<path d="M1080.8 1887.6c-1.3 0-2.6-.6-3.4-1.6-1.1-1.4-1.3-3.2-.5-4.8l47.6-95.1c.4-.9 1.1-1.6 2-2 50.2-24.8 130.3-72.4 131.6-94.4 1.1-18.5 9.3-34.8 22.5-44.5 11.5-8.5 25.7-11.3 40.1-7.8 7.5 1.8 16.4 5.4 25.9 9.1 29.4 11.7 66 26.3 92.9 3.3 34.5-29.5 76-28.2 113.8 3.5 14.1 11.8 26.4 15.3 35.3 17.9 9.6 2.8 17.9 5.1 19.2 16.2.9 8.1-.8 14-5.2 17.7-8 6.7-22.2 4.3-41-1.4-23.5-7.1-49.6-11.3-81.5 5.9l-13.7 7.4c-41.9 22.7-140.2 75.9-199.7 104.2-72.9 34.7-183.6 65.8-184.7 66.1-.4.3-.8.3-1.2.3m50.9-96.2-42.4 84.7c28.5-8.4 113.9-34.4 173.6-62.8 59.3-28.2 157.4-81.3 199.2-104l13.7-7.4c34.9-18.8 64.2-13.9 88.3-6.6 7.3 2.2 26.8 8.1 32.7 3.1q3-2.55 2.1-9.9c-.6-4.8-2.8-5.8-12.8-8.7-9.7-2.8-23-6.6-38.6-19.6-16.2-13.6-58.6-41.1-102.4-3.6-31 26.5-72 10.1-101.9-1.8-9.2-3.7-17.8-7.1-24.7-8.8-11.8-2.8-23.4-.6-32.7 6.3-11.1 8.2-18 22-18.9 37.9-2 33.5-116.4 91.8-135.2 101.2" class="contour" />
		<path d="M1226.3 1825.1s-76.2-19-171.1-77.7c-7.3-4.5-15.6-7.2-24.1-8-20.3-1.9-61.8-9.1-98-36.6-50.2-38-86.6-18.4-96.1-12.9s-52.7 15.5-23.9-31.7 62.1-47.9 88.5-42.9 64.5 22.7 91.8 17.6c27.4-5.1 68.8-37.1 90.3-21s13.6 19.2 29.9 50.2 108.7 56.3 108.7 56.3z" class="white" />
		<path d="M1226.3 1829.5c-.4 0-.7 0-1.1-.1-.8-.2-78-19.8-172.4-78.2-6.6-4.1-14.3-6.6-22.2-7.4-21.7-2-63.5-9.6-100.3-37.5-31.6-23.9-64-28.4-91.2-12.6-6.7 3.9-27.2 9.7-36.3.5-7.1-7.2-5-19.7 6.3-38.3 30.3-49.8 65.7-50.2 93.1-45 8.6 1.6 18.3 4.5 28.5 7.6 20.7 6.2 44.1 13.3 61.7 10 8.9-1.7 19.6-6.4 30.9-11.5 23-10.2 46.7-20.8 62.9-8.7 14.7 11 16.8 16.9 20.6 27.5 2.1 5.9 4.7 13.2 10.5 24.2 12.6 24 80.7 47.2 105.9 54.1 1.9.5 3.2 2.2 3.3 4.1l4.1 106.7c.1 1.4-.6 2.7-1.6 3.6-.7.7-1.7 1-2.7 1m-353-153.9c20.3 0 41.5 8 62.4 23.7 35.1 26.5 75 33.8 95.8 35.7 9.3.9 18.3 3.9 26 8.7 78.5 48.5 144.7 69.9 164.1 75.5l-3.7-97.4c-16.7-4.8-92.9-28.3-108.3-57.6-6.1-11.6-8.9-19.5-11-25.3-3.5-9.8-5-13.9-17.6-23.3-12-9-33.4.5-54 9.7-11.8 5.3-22.9 10.2-32.9 12.1-19.7 3.7-44.3-3.7-65.9-10.2-10-3-19.4-5.8-27.6-7.4-26.2-5-56.6-4-83.9 40.9-8.3 13.6-11.1 23.9-7.6 27.5 4.6 4.7 19.7 1.4 25.5-2 12.3-7.1 25.3-10.6 38.7-10.6" class="contour" />
		<path d="M1561.1 1700.1c72.4 20.8 153 41.1 166.5 53.1 17.3 15.3 27.7 31.6 30.1 60.7 2.4 29.2-3.5 110.2-96.4 120.2s-316.5-39.7-423.5-97.4c0 0-70.7-45.8-28.4-115.1 0 0 3.3-36.6 181.5-10.2 85 12.5 170.2-11.3 170.2-11.3" class="dark3" />
		<path d="M1633.2 1939.8c-107.1 0-301-47.2-397.6-99.3-.1-.1-.2-.1-.3-.2-.7-.5-73.3-48.7-30.1-120.5.5-1.9 2.2-5.7 7.2-9.5 15.7-12.2 59.6-22.6 179.2-3.4 18.6 3 84.8 7.6 108.2-.2 2.3-.8 4.8.5 5.6 2.8s-.5 4.8-2.8 5.6c-26.3 8.8-94.4 3.4-112.4.5-127.2-20.5-163-5.7-172.4 1.6-3.3 2.5-4 4.6-4 4.6-.1.7-.3 1.3-.6 1.9-39 63.8 22.6 106.1 26.9 109 102.8 55.4 326.8 107 420.8 96.8 96.1-10.4 93.9-98 92.5-115.4-2.4-29.1-13.1-44.2-28.6-57.8-9.9-8.7-65-24.1-118.3-39-13.7-3.8-27.6-7.7-41.3-11.6-.8-.2-4.9-1.4-9.2-2.6-5-1.4-10.2-2.9-11.2-3.1-2.4-.7-3.7-3.1-3-5.5.7-2.3 3.1-3.7 5.5-3 .9.3 6.2 1.7 11.1 3.1 4.3 1.2 8.4 2.4 9.2 2.6 13.7 3.9 27.6 7.8 41.3 11.6 59.2 16.5 110.4 30.8 121.8 40.9 20.2 17.8 29.3 36.2 31.6 63.7.9 11.6 6.1 113.5-100.4 125-8.7 1-18.3 1.4-28.7 1.4" class="contour" />
		<path d="M770.4 1724.8c-31.9 21.3-47.2 37.4-53.3 42.3-24 18.9-80.8 153.7 89.7 176.7 17.7 2.4 35.6 2.2 53.3-.2 46.1-6.2 153.3-27.1 245.9-50 122.2-30.1 39.4-134.2-40.1-144.3s-127.5 1.4-244-14.9c-16.5-2.3-51.5-9.6-51.5-9.6" class="dark3" />
		<path d="M832.3 1949.9c-8.9 0-17.6-.6-26.2-1.7-83.5-11.3-110.7-49.1-118.8-78.9-12.5-45.9 13.2-94.9 27-105.7 1.3-1 3.2-2.8 5.7-5 7.8-7 20.8-18.8 42-33.5 1.1-.8 4.5-3 7.5-4.9 2-1.3 3.8-2.5 4.6-3 2-1.4 4.8-.8 6.1 1.2 1.4 2 .8 4.8-1.2 6.1-.8.6-2.7 1.8-4.7 3.1-2.9 1.9-6.2 4-7.3 4.8-20.7 14.4-33.5 25.9-41.1 32.8-2.7 2.4-4.6 4.1-6.1 5.4-12 9.5-35.2 55-23.9 96.4 10.6 39 49.2 64 111.4 72.4 16.7 2.3 34.3 2.2 52.1-.2 45.2-6 151.9-26.8 245.5-49.9 39.7-9.8 60-28 58.6-52.6-2.1-35.8-50.7-76.9-98.2-83-34.7-4.4-63.9-4.7-94.7-5-32.4-.3-65.9-.6-111.4-5.3-2.4-.3-4.2-2.4-4-4.9.3-2.4 2.4-4.2 4.9-4 45.1 4.6 78.4 4.9 110.6 5.2 31.1.3 60.5.5 95.7 5 52.1 6.6 103.6 51 105.9 91.3 1 16.8-6.2 47.2-65.3 61.7-93.9 23.1-201 44-246.4 50.1-9.5 1.5-19 2.1-28.3 2.1" class="contour" />
		<path d="M273.6 1153.9c4.7 6.3 16.1 19.4 31.3 33s50.9 24.6 87 27.2 59.8 16.5 59.8 16.5 28.3-34.8 17.6-37.1c-13.8-2.9-32.7-16.1-38.8-28.1s-8.1-18.4-21.7-34.6-24.1-25.2-35.1-28.1c-4.8-1.2-18.6 1.7-24.1 9.2-3.1 4.2.4 9.9.4 9.9-47.8 6.1-26.2 28.9-26.2 28.9-10.3-3.7-30.2-27-38.1-32.8s-10.6-6.8-14.8-4c-6.1 4.1-.8 12.2-.8 12.2l10.6 12.1c-11.5-1.5-11.8 9.5-7.1 15.7m68.6-12c-.1-3.2 16.7-2.9 22.8-6.9 6.2-4 3.5-7.1 3.5-7.1 16.9 1.3 9.5 26.7-6.9 28.8-13.3 1.7-19.3-11.6-19.4-14.8" class="white" />
		<path d="M451.8 1235c-.8 0-1.5-.2-2.2-.6-.2-.1-23.4-13.4-57.9-15.9-37.7-2.7-73.7-14.1-89.6-28.3-14.9-13.3-26.5-26.4-31.9-33.6-4.1-5.4-4.9-12.5-2.1-17.3.7-1.3 2-2.9 4.2-4.1l-5.4-6.1c-.1-.2-.3-.3-.4-.5-3.7-5.7-4.6-13.8 2-18.3 7-4.7 12.2-1.6 19.9 4.1 3.1 2.3 7.5 6.6 12.6 11.7 4.1 4.1 9 8.9 13.6 13 .1-1.5.3-3 .9-4.5 2.9-8.1 12.3-13.5 28.7-16.3-.5-2.9-.2-6.1 1.9-9 6.9-9.3 22.8-12.4 28.8-10.8 11.5 2.9 22.3 11.5 37.4 29.5 11.6 13.9 15.1 20.9 19.4 29.8l2.8 5.6c5.4 10.5 22.7 23.1 35.7 25.8 2.6.5 4.6 2.2 5.5 4.7 3.1 8.7-11.5 28.5-20.5 39.6-.8.9-2.1 1.5-3.4 1.5m-173.1-92.5c-1.2 0-2.5.2-3.1 1.2-.9 1.5-.5 4.9 1.5 7.5 4.2 5.5 15.3 18.6 30.7 32.3 14.3 12.8 49 23.5 84.4 26.1 29.2 2.1 50.4 11.3 58.3 15.3 8.9-11.3 16-23.1 16.7-27.4-15.5-3.7-34.2-17.6-40.7-30.2-1-2.1-2-4-2.9-5.8-4.3-8.7-7.3-15-18.3-28-13.8-16.5-23.3-24.2-32.8-26.6-3.3-.8-15.2 1.7-19.5 7.5-1.1 1.5.3 4.5.6 5 .8 1.3.9 2.9.2 4.2-.7 1.4-1.9 2.3-3.4 2.5-20.8 2.7-25.7 8.2-26.8 11.3-1.7 4.7 3.2 10.2 3.3 10.2 1.4 1.5 1.6 3.8.5 5.5s-3.3 2.4-5.2 1.7c-7.5-2.7-18.2-13.3-27.6-22.6-4.7-4.6-9.1-9-11.6-10.9-7.4-5.4-8-5-9.7-3.9-2.1 1.4-.2 5 .3 5.9l10.4 11.8c1.2 1.4 1.4 3.4.6 5-.9 1.6-2.7 2.5-4.5 2.3-.3.2-.8.1-1.4.1m80.6 18.8c-5 0-9.6-1.7-13.4-5-5.4-4.6-8-11.2-8.2-14.2-.2-5.5 5.9-6.5 13-7.7 4-.7 9.6-1.6 11.9-3.1 1-.7 1.6-1.2 1.9-1.5-.5-1.2-.5-2.6.1-3.8.8-1.6 2.5-2.6 4.3-2.4 8.3.7 13.5 6 13.7 14 .2 10.1-7.9 22-20.4 23.6-1 0-1.9.1-2.9.1m-11.9-17.3c.8 1.8 2.4 4.1 4.7 5.9q3.9 3 9 2.4c8-1 12.8-9.2 12.7-14.6 0-1.7-.5-2.9-1.4-3.8-1 1.7-2.7 3.3-4.9 4.8-3.8 2.5-9.9 3.5-15.2 4.4-1.6.3-3.4.6-4.9.9m17.7-13.4.2.2c-.2 0-.2-.1-.2-.2" class="contour" />
		<path d="M348.3 1117s1.4 12.9 20.9 11z" class="white" />
		<path d="M365.5 1132.6c-15.7 0-21-9.7-21.6-15.2-.3-2.4 1.5-4.6 3.9-4.9s4.6 1.5 4.9 3.9c.1.9 1.8 8.5 16 7.2 2.4-.2 4.6 1.6 4.8 4s-1.6 4.6-4 4.8c-1.4.2-2.7.2-4 .2" class="contour" />
		<path d="m2196.2 1096.4 10.5-13.8s5.1-9.1-1.8-13c-4.7-2.7-7.5-1.5-15.5 5.3-8.1 6.8-27.7 33.2-38.4 38 0 0 21.4-26-30.2-29.1 0 0 3.3-6.4-.3-10.7-6.4-7.6-21.5-9.7-26.5-8-11.6 3.8-22.2 14.3-35.5 32.6-13.3 18.4-15 25.4-20.7 38.7s-23.5 22.8-38 26.9c-11.3 3.2 21.6 38.4 21.6 38.4s23-10.5 61.4-16 75.9-19.9 91.2-35.6 26.5-30.6 31.1-37.6c4.5-6.9 3.4-18.6-8.9-16.1m-85.2 25.8c-17.8-1-27.6-27.6-9.6-30.3 0 0-2.6 3.5 4.3 7.3s24.9 2.3 25 5.7-5.3 18.1-19.7 17.3" class="white" />
		<path id="hand-r-x" d="M2021.3 1206.2c-1.2 0-2.4-.5-3.2-1.4-10.4-11.1-27.4-31.2-24.8-40.6.7-2.6 2.6-4.4 5.3-5.2 14-4 30.3-13 35.2-24.4 1-2.2 1.8-4.3 2.6-6.3 4-9.8 7.2-17.6 18.6-33.3 14.8-20.4 25.7-30.3 37.7-34.3 6.3-2.1 23.3 0 31.3 9.4 2.5 2.9 3 6.4 2.6 9.5 17.8 1.8 28.3 6.7 32 15.2.8 1.8 1.2 3.6 1.3 5.4 4.8-4.7 9.9-10.6 14.1-15.4 5.1-5.8 9.5-10.8 12.6-13.4 7.7-6.5 13-10.2 20.6-5.8 8.4 4.9 5.9 14.6 3.4 19-.1.2-.2.4-.3.5l-5.5 7.3c2.6 1.1 4.2 2.8 5.1 4.1 3.3 4.8 2.9 12.4-1 18.4-5.3 8.1-16.7 23-31.7 38.3-15.9 16.3-53.6 31.1-93.7 36.8-37.2 5.3-60 15.5-60.2 15.6-.8.5-1.4.6-2 .6m-19.5-38.8c.8 4.5 9.7 17.1 20.6 29.1 7.5-3 28.5-10.6 59.7-15.1 37.7-5.4 74.2-19.5 88.6-34.3 15.5-15.9 26.5-30.7 30.6-36.9 1.8-2.8 2.3-6.7 1.1-8.6-1-1.5-3.4-1.3-5.3-.9-1.8.4-3.7-.4-4.6-2-1-1.6-.9-3.6.2-5l10.3-13.5c.5-1 2.4-5.3-.2-6.8-2-1.2-2.8-1.6-10.4 4.9-2.6 2.2-7 7.2-11.7 12.5-9.4 10.6-20 22.7-27.8 26.1-1.9.8-4.1.3-5.3-1.4-1.2-1.6-1.2-3.9.1-5.5 0 0 5.1-6.4 2.8-11.6-1.4-3.3-7.3-8.9-29.9-10.3-1.5-.1-2.9-.9-3.6-2.2s-.8-2.9-.1-4.2c0 0 1.8-3.9.3-5.8-5.1-6-18.2-7.9-21.8-6.7-10.1 3.3-19.7 12.3-33.3 31-10.8 14.8-13.6 21.8-17.5 31.4-.8 2-1.7 4.1-2.6 6.4-6.4 14.9-24.8 24.8-40.2 29.4m110.3-40.8h-1.4c-13.1-.8-22.8-13-23.3-23.5-.4-8.4 4.7-14.4 13.4-15.7 1.8-.3 3.5.6 4.5 2.1.7 1.2.8 2.7.3 4 .3.4 1 1 2.4 1.8 2.6 1.4 8.4 2 13 2.5 7.8.8 14 1.4 14.2 7 .1 3.2-2.2 10.3-7.6 15.6-4.3 4.1-9.6 6.2-15.5 6.2m-.9-8.9c3.7.2 7-.9 9.7-3.4 2.5-2.3 4-5.1 4.7-7.1-1.6-.3-3.8-.5-5.6-.6-5.8-.6-12.3-1.2-16.5-3.5-2.7-1.5-4.6-3.1-5.7-5-1.2 1.1-1.7 2.7-1.6 4.7.3 5.9 6.1 14.4 15 14.9m-6.2-23.2" class="contour" />
		<path d="M2122.3 1078.6s-.5 13.9-21.5 13.4z" class="white" />
		<path id="body" d="M2102 1096.4h-1.3c-2.4-.1-4.4-2.1-4.3-4.5s2.1-4.4 4.5-4.3c15.8.4 16.9-8.2 17-9.2.2-2.4 2.3-4.3 4.7-4.1 2.4.1 4.3 2.1 4.2 4.6 0 .1-1 17.5-24.8 17.5M1165.2 899.7c-18.5.1-36.4 6-51.5 16.6-16.5 11.5-45.8 25.9-94.2 32.6-77.6 10.7-142.2 34.9-226.5 106.3-132.1 112-116.8 148.3-341.7 110.3l-27.8 75.4s58 57.2 170.1 66.3c0 0 197.3 27.2 333-99.7 10.1-9.4 26.3-7.3 33.9 4.2 20 30.4 52.7 92.5 64.7 186.3 4.1 32.5 4.3 64.1 1.7 82.7-8.8 64.8-4 81-4 81s204.3 98.6 366.9-4.5c0 0 7.7-21.6-1.7-142.6-5.5-70 30.9-159.7 51.1-204.3 6.5-14.2 25-17.7 36.2-6.8 44.1 42.9 149.5 120.4 310.7 117 0 0 129.3-6.8 249.7-101.4l-35.7-69.2s-267.7 89-389.5-69.8c-24.8-32.4-90.5-122.8-193.4-136.3-78.8-10.3-111.4-16.8-131.2-27.9-19.6-11-41.9-16.3-64.4-16.2zM1116.7 768.7c-11-5.1-16.8 3.3-33.2.9-17.5-2.5-36.6-15.5-43.7-34.5-8.6-22.9-2-42.7 7-60.6 7.1-14.1 23.1-26.5 40.5-33 22.7-8.5 28.4 2.4 54.4-5.5 21.1-6.5 23.3-14.3 42.1-19.6 15.7-4.4 63.5-2.6 70.8 22.4 7.7 26.7 1.7 31 8.5 53.6 4.1 13.6 10.6 15.2 15.3 25.7 11.6 26-12.6 64.9-40.7 80.1-38.3 20.5-102-20.8-121-29.5" class="contour" />
		<path id="neck" d="m1151.5 812.4-9.2 72.7c-7.5 32.5-48.1 47.5-48.1 47.5 64.8 49.8 145.5 45.2 210.9-4 0 0-43.7-10.6-52.9-52.5l-18.8-107.3z" class="white" />
		<path id="neck-x" d="M1194.8 972.1c-36.4 0-72-12-103.3-36.1-1.3-1-1.9-2.6-1.7-4.2s1.3-2.9 2.8-3.5c.4-.1 38.2-14.6 45.2-44.1l9.2-72.5c.2-1.4 1-2.7 2.3-3.4l81.9-43.5c1.3-.7 2.7-.7 4-.1s2.2 1.8 2.4 3.2l18.8 107.3c8.4 38.4 49.2 48.9 49.6 49 1.7.4 2.9 1.7 3.3 3.4.3 1.7-.3 3.4-1.7 4.4-35.3 26.8-74.4 40.1-112.8 40.1m-91.8-38.6c57.9 40.8 130.4 39.5 192.5-3.5-13.9-5.5-40.4-20.2-47.6-53l-17.8-101.4-74.4 39.6-8.9 70.4c0 .1 0 .3-.1.4-6.1 26.1-31.1 41.4-43.7 47.5m39.3-48.4" class="contour" />
		<path id="face" d="M1224 783.6s28.8-10.7 18.1-34.5-28.3-6.3-28.3-6.3-16-58.5-50.4-35.6-66.9 31.1-66.9 31.1 11.8 58.9 33.3 98.2c13 23.7 29.5 40.2 49 32.4 53.5-21.6 45.2-85.3 45.2-85.3" class="white" />
		<path id="face-x" d="M1168.8 875.2c-15.2 0-29.6-12.3-42.9-36.7-21.6-39.4-33.3-97-33.8-99.4-.5-2.3 1-4.6 3.3-5.2.3-.1 32.2-8.3 65.6-30.5 9.2-6.1 18.2-7.6 26.7-4.4 15.6 5.8 24.8 26.2 28.5 36.6 3.6-2.1 8.8-4.1 14.3-3.1 6.6 1.2 11.9 6.2 15.7 14.8 3.4 7.5 3.7 14.7.9 21.4-4 9.6-13.4 15.3-18.3 17.7.8 13.9.6 66.9-48.3 86.5-4 1.5-7.9 2.3-11.7 2.3m-67.2-133.8c3.1 13.8 14.2 60.5 32 92.9 14.2 26 28.9 36.2 43.5 30.4 49.7-19.9 42.8-78 42.5-80.5-.3-2 .9-4 2.8-4.7.1 0 12.5-4.8 16.4-14.2 1.8-4.4 1.6-9-.8-14.3-2.6-5.8-5.7-9.1-9.2-9.8-4.8-.9-10.2 3.1-11.9 4.8-1.1 1.1-2.7 1.5-4.3 1.1-1.5-.4-2.7-1.6-3.1-3.1-.1-.3-8.6-30.5-25-36.7-5.8-2.2-11.9-1-18.7 3.5-27.9 18.6-54.2 27.6-64.2 30.6" class="contour" />
	</g>
	<g id="layer-top-items">
		<path d="m721.5 616.6-245-39.3 124.8-330.5 245 39.3zM443.4 566.8l-196.6-78.6 116.1-308.1 195.5 82z" class="dark3" />
		<path d="M477 577.4c-11.4 5.2-27.6.5-33.6-10.5l115.7-309c5.6 11.3 21.7 16.5 33.3 11.6z" class="dark3" />
		<path d="M483 560.9c-11.4 5.2-27.6.5-33.6-10.5l114.5-305.6c5.6 11.3 21.7 16.5 33.3 11.6z" class="contour" />
		<path d="M472.6 567.5c-11 0-22-5.6-27.1-15-.6-1.1-.7-2.5-.3-3.7l114.5-305.6c.6-1.7 2.2-2.8 3.9-2.9s3.4.9 4.2 2.5c4.5 9 17.9 13.6 27.6 9.5 1.6-.7 3.5-.3 4.8.9s1.7 3.1 1.1 4.7L487.1 562.4c-.4 1.1-1.2 2-2.3 2.5-3.8 1.8-8 2.6-12.2 2.6m-18.3-17.6c5.2 7.2 16.5 10.6 25.2 7.6l110.6-294.9c-9.1.7-18.5-2.5-24.9-8.7z" class="contour" />
		<path d="m263.5 477.6 185.7 74.6 13-11 104.6-279.3-22-8.7-171.2-92.9-115.7 275z" class="white" />
		<path d="m450 557.3-190.5-76.5-6.1-46.1.5-1.1 117.6-279.5 175.3 95.1 25.8 10.1-106.7 284.5zm-182.4-82.8 180.8 72.6 10.1-8.5 102.7-274.1-18.4-7.3-167-90.6-113.4 269.3z" class="contour" />
		<path d="M258.1 434.1c-.4 1 .1 2.2 1.2 2.5 16.2 5.7 132.8 47.7 174.1 81.1l28.8 23.4 109.3-291.6-23-19.4c-36.6-30.8-138.7-69.9-171.4-82-5.7-2.1-12 .8-14.1 6.5z" class="white" />
		<path d="m464.1 548.5-33.6-27.3c-40.9-33.2-159.4-75.7-172.7-80.4-1.6-.6-2.9-1.8-3.7-3.3-.7-1.6-.8-3.3-.2-5L358.7 153c3-7.9 11.8-12 19.8-9.1 31.1 11.5 135.5 51.3 172.7 82.8l25.4 21.5zM263.2 433.3c26.8 9.5 133.1 48.7 173 81l24 19.5 106-282.9-20.7-17.4c-36.2-30.5-139.3-69.9-170.1-81.2-3.4-1.2-7.1.5-8.4 3.9zm-.9 2.4" class="contour" />
		<path d="m462.2 541.2 22.5 19.3 224.9 36.9 111.1-301.5-16.2-27.9c-.4-.7-1.3-1.2-2.1-1.1-9.2 1.1-61.2 6.9-82.8 1.3-33.1-8.7-68-8.4-101.5-1.4l-43 9.1z" class="white" />
		<path d="m712.4 602.4-229.7-37.7-25.9-22.2L571.9 272l45.3-9.5c35.5-7.5 71.3-7 103.5 1.4 16 4.2 53.8 1.9 81.2-1.4 2.6-.3 5.1 1 6.5 3.2l17.2 29.7-.7 2zm-225.8-46.1 220 36.1 109.1-296.1-14.4-24.8c-13 1.5-61.7 6.5-83 1-30.9-8.1-65.2-8.5-99.4-1.3l-40.7 8.6-110.7 260.1z" class="contour" />
		<path d="M564.1 527.7c14.6.7 29.2 2.7 43.5 6.1 47.2 11.2 87.4 23.4 87.4 23.4l108.2-288.8c.6-1.6-.3-3.3-1.8-3.7-10.1-3-45.1-13.2-85.1-22.7-33.9-8-69.1-8.4-103.2-1.2l-41.8 8.8-109.2 291.6 43.8-8.9c19.2-4 38.7-5.5 58.2-4.6" class="white" />
		<path d="M695 561.6c-.4 0-.9-.1-1.3-.2 0 0-6.7-2-17.7-5.2-42.1-12-85.7-18-129.6-18.1h-35c-2.4 0-4.4-2-4.4-4.4s2-4.4 4.4-4.4h35c44.8 0 89.2 6.2 132.1 18.4 6.1 1.7 10.8 3.1 13.9 4l106.2-283.3c-11.6-3.4-45.2-13.2-83.1-22.1-33-7.8-68-8.2-101.3-1.2l-39.4 8.3-108.5 289.3c-.9 2.3-3.4 3.5-5.7 2.6s-3.5-3.4-2.6-5.7L567.3 248c.5-1.4 1.8-2.5 3.2-2.8l41.8-8.8c34.6-7.3 71-6.8 105.2 1.3 40.1 9.5 75.4 19.8 85.2 22.8 1.9.6 3.5 1.9 4.4 3.7s1 3.9.3 5.8L699.2 558.7c-.7 1.8-2.4 2.9-4.2 2.9" class="contour" />
		<path d="M749.4 302c-.4 0-.8-.1-1.2-.2l-6.7-1.9c-12.3-3.5-21.2-6.1-45.3-11.8-32.9-7.8-67.9-8.2-101.3-1.2-2.4.5-4.7-1-5.2-3.4s1-4.7 3.4-5.2c34.6-7.3 70.9-6.9 105.1 1.3 24.3 5.8 33.3 8.4 45.7 11.9l6.7 1.9c2.4.7 3.7 3.1 3 5.5-.5 1.8-2.2 3.1-4.2 3.1M740.3 338.6c-.4 0-.8-.1-1.2-.2-15.8-4.5-27-7.5-55.7-14.3-32.9-7.8-67.9-8.2-101.3-1.2-2.4.5-4.7-1-5.2-3.4s1-4.7 3.4-5.2c34.6-7.3 70.9-6.9 105.1 1.3 28.9 6.8 40.2 9.8 56 14.4 2.4.7 3.7 3.1 3 5.5-.4 1.9-2.2 3.1-4.1 3.1M722 372.4c-.4 0-.8-.1-1.2-.2-12.4-3.5-19.6-5.2-35.2-8.9-4.6-1.1-10-2.3-16.5-3.9-17.4-4.1-35.3-6.2-53.2-6.2h-.1c-2.4 0-4.4-2-4.4-4.4 0-2.5 2.1-4.5 4.5-4.4 18.6 0 37.2 2.2 55.3 6.5 6.5 1.5 11.8 2.8 16.5 3.9 15.7 3.7 22.9 5.4 35.6 9 2.4.7 3.7 3.1 3 5.5-.6 1.9-2.4 3.1-4.3 3.1M713 410.4c-.4 0-.8-.1-1.2-.2-3.6-1-7.1-2.1-10.6-3.1-11.9-3.5-24.1-7.1-46.1-12.3-32.9-7.8-67.9-8.2-101.3-1.2-2.4.5-4.7-1-5.2-3.4s1-4.7 3.4-5.2c34.6-7.3 70.9-6.9 105.1 1.3 22.2 5.3 34.5 8.9 46.5 12.4 3.4 1 6.9 2 10.5 3.1 2.4.7 3.7 3.1 3 5.5-.4 1.9-2.1 3.1-4.1 3.1M682.2 435.9c-.4 0-.8 0-1.1-.2-13.5-3.6-26.8-6.9-39.4-9.9-32.9-7.8-67.9-8.2-101.3-1.2-2.4.5-4.7-1-5.2-3.4s1-4.7 3.4-5.2c34.6-7.3 70.9-6.9 105.1 1.3 12.7 3 26 6.4 39.6 10 2.4.6 3.8 3.1 3.1 5.4-.4 1.9-2.2 3.2-4.2 3.2M626.9 458.2c-.3 0-.6 0-.9-.1-31.8-6.8-64.2-6.8-96.2-.1-2.4.5-4.7-1-5.2-3.4s1-4.7 3.4-5.2c33.2-7 66.8-7 99.9.1 2.4.5 3.9 2.9 3.4 5.3-.5 2-2.4 3.4-4.4 3.4M666 508c-.4 0-.8-.1-1.2-.2-15-4.3-22.1-6-45.6-11.5l-5.7-1.4c-32.9-7.8-67.9-8.2-101.3-1.2-2.4.5-4.7-1-5.2-3.4s1-4.7 3.4-5.2c34.6-7.3 70.9-6.9 105.1 1.3l5.7 1.3c23.7 5.6 30.8 7.3 46 11.6 2.4.7 3.7 3.1 3 5.5-.5 1.9-2.2 3.2-4.2 3.2M462.3 239.1c-.8 0-1.5-.2-2.2-.6-29.1-16.9-59.2-30.3-76.1-36.6-2.3-.9-3.5-3.4-2.6-5.7s3.4-3.5 5.7-2.6c17.2 6.5 47.8 20.1 77.4 37.2 2.1 1.2 2.8 3.9 1.6 6.1-.8 1.4-2.3 2.2-3.8 2.2M503.6 332.4c-1.3 0-2.6-.6-3.5-1.7-20.9-26.3-55.9-44.9-87.1-60.3-2.2-1.1-3.1-3.7-2-5.9s3.7-3.1 5.9-2c32 15.8 68 35 90.1 62.7 1.5 1.9 1.2 4.7-.7 6.2-.8.6-1.8 1-2.7 1M486.2 382c-1.1 0-2.2-.4-3.1-1.2-27.2-26.3-52.3-39.7-82.3-54.5-20.2-10-32-15-43.3-19.9-3.3-1.4-6.6-2.8-10.1-4.4-2.2-1-3.3-3.6-2.3-5.8s3.6-3.3 5.8-2.3c3.5 1.5 6.7 2.9 10 4.3 11.5 4.9 23.3 10 43.7 20.1 30.7 15.1 56.4 28.9 84.6 56 1.8 1.7 1.8 4.5.1 6.3-.8 1-1.9 1.4-3.1 1.4M475.6 417.7c-1.1 0-2.2-.4-3.1-1.3-23.4-23-43.9-32.9-69.9-45.5q-5.7-2.7-11.7-5.7c-11.6-5.7-23.9-11.6-36.7-17.5-2.2-1-3.2-3.7-2.2-5.9s3.7-3.2 5.9-2.2c12.8 5.9 25.2 11.8 36.9 17.6 4 2 7.9 3.8 11.6 5.7 25.7 12.4 47.8 23.1 72.3 47.1 1.7 1.7 1.8 4.5.1 6.3-.9.9-2 1.4-3.2 1.4M462.6 451.3c-1.1 0-2.3-.4-3.1-1.3-20.4-20.4-42.9-31.6-66.7-43.5-5.3-2.7-10.6-5.3-16-8.1-2.2-1.1-3-3.8-1.9-6s3.8-3 6-1.9c5.3 2.8 10.6 5.4 15.9 8 23.4 11.7 47.6 23.8 69 45.2 1.7 1.7 1.7 4.5 0 6.3-.9.9-2 1.3-3.2 1.3M451.4 489.1c-1.3 0-2.6-.6-3.5-1.7-20.8-26.1-97.4-59.7-134.5-71.2-2.3-.7-3.6-3.2-2.9-5.5s3.2-3.6 5.5-2.9c35.8 11.1 115.8 45.2 138.8 74.1 1.5 1.9 1.2 4.7-.7 6.2-.8.6-1.7 1-2.7 1" class="dark2" />
		<path d="M709.5 601.8c-1.8 0-3.5-1.1-4.2-2.9l-14.7-39.2c-.9-2.3.3-4.8 2.6-5.7s4.8.3 5.7 2.6l14.7 39.2c.9 2.3-.3 4.8-2.6 5.7-.4.2-1 .3-1.5.3" class="contour" />
		<path d="M1724.6 244.3c4.1 28.2 37.4 207.9 228.8 291.7.7.3 1.5.4 2.2.2 16.1-4.4 202.3-59.6 317.2-312.4.9-2-.2-4.3-2.4-4.7-26.4-5.1-172.8-36.3-233.2-109.5-1.4-1.7-4.1-1.6-5.3.2-14.4 21.5-95.2 126.7-304.2 130.7-1.9 0-3.4 1.8-3.1 3.8" class="white" />
		<path d="M1954.8 540.7c-1.1 0-2.1-.2-3.1-.7-81.6-35.7-144.4-92.4-186.8-168.6-33-59.4-42.5-111.8-44.7-126.5-.3-2.2.3-4.4 1.8-6.1 1.4-1.7 3.6-2.7 5.8-2.7 206.9-4 286.7-107.9 300.6-128.7 1.4-2.1 3.6-3.3 6-3.4 2.5-.1 4.8.9 6.4 2.8 59.2 71.6 202.5 102.5 230.6 107.9 2.3.5 4.3 1.9 5.4 4s1.2 4.6.2 6.8c-115 253-299.5 309.3-320.1 314.9q-1.2.3-2.1.3m-225.6-295.8c2.4 15.8 12.1 65.7 43.5 122.2 41.3 74.3 102.6 129.7 182.2 164.6 10.2-2.8 58.8-17.7 119.7-62.2 80.8-59 146-141.9 193.7-246.4-31.5-6.2-172.7-37.6-233.4-109.6-16.5 24-99.2 127-305.7 131.4" class="contour" />
		<path d="M2203.3 250.6c-.3 0-.6 0-1-.1-91.1-20.1-175-83.2-175.9-83.9-1.9-1.5-2.3-4.3-.9-6.2 1.5-2 4.3-2.3 6.2-.9.8.6 83.2 62.6 172.4 82.3 2.4.5 3.9 2.9 3.4 5.3-.3 2.1-2.2 3.5-4.2 3.5M2180.4 300.5c-.4 0-.7 0-1.1-.1-42.3-11-84.4-31.7-124.9-61.4-2-1.4-2.4-4.2-1-6.2s4.2-2.4 6.2-1c39.7 29.1 80.7 49.2 121.9 60 2.4.6 3.8 3 3.2 5.4-.5 2-2.3 3.3-4.3 3.3M2029.8 218.2c-1 0-2.1-.4-2.9-1.1-18.5-15.9-28.8-27.4-29.2-27.9-1.6-1.8-1.5-4.6.4-6.3 1.8-1.6 4.6-1.5 6.3.4.1.1 10.4 11.6 28.4 27 1.9 1.6 2.1 4.4.5 6.2-1 1.2-2.2 1.7-3.5 1.7M2140.4 347.1c-.6 0-1.2-.1-1.8-.4-114.6-49.4-172-132.9-172.5-133.7-1.4-2-.8-4.8 1.2-6.2s4.8-.8 6.2 1.2c.6.8 56.6 82.2 168.7 130.5 2.2 1 3.3 3.6 2.3 5.8-.7 1.8-2.4 2.8-4.1 2.8M2103.8 388.9c-.7 0-1.4-.2-2.1-.5-118.9-63.3-170.6-157.6-171.1-158.6-1.2-2.2-.4-4.8 1.8-6s4.8-.4 6 1.8c.5.9 51.1 93 167.5 155 2.2 1.1 3 3.8 1.8 6-.8 1.4-2.3 2.3-3.9 2.3M2056.6 427.5c-.7 0-1.4-.2-2-.5-21.3-11.1-41.9-25.3-61.3-42.1-1.8-1.6-2-4.4-.4-6.3 1.6-1.8 4.4-2 6.3-.4 18.8 16.4 38.9 30.2 59.5 41 2.2 1.1 3 3.8 1.9 6-.8 1.4-2.4 2.3-4 2.3M1966.6 357.1c-1.2 0-2.4-.5-3.3-1.4-48.7-53-72.1-107.8-72.3-108.4-1-2.3.1-4.9 2.4-5.8s4.9.1 5.8 2.4c.2.5 23.1 54 70.7 105.8 1.7 1.8 1.5 4.6-.3 6.3-.8.7-1.9 1.1-3 1.1" class="contour" />
		<path d="M1948.7 461.2s-.1 0 0 0c-2.5 0-4.5-2.1-4.4-4.5l.4-23.9c0-.7-.3-1.1-.5-1.3s-.6-.5-1.3-.4l-33.5 2.8c-3.6.3-7-1.2-9.2-4.1s-2.8-6.6-1.6-10.1l1.6-4.5c.3-.9-.1-1.5-.3-1.8s-.8-.7-1.6-.5c-4.9 1.2-9.7-1-11.9-5.5-2.3-4.5-1.2-9.8 2.7-13l6.5-5.4c.8-.7.7-1.5.5-2s-.6-1-1.6-1.1l-35 .5c-2.3.1-4.5-1.9-4.5-4.4 0-2.4 1.9-4.5 4.4-4.5l35-.5c4.5 0 8.4 2.7 10 6.9 1.6 4.3.3 9-3.2 11.9l-6.5 5.4c-1 .8-.7 1.7-.5 2.2.3.5.8 1.1 1.9.9 3.8-.9 7.7.3 10.3 3.2s3.4 7 2.1 10.7l-1.6 4.5c-.3.8 0 1.4.3 1.7.2.3.7.7 1.4.6l33.5-2.8c3-.2 5.9.8 8 2.8 2.2 2 3.4 4.9 3.4 7.9l-.4 23.9c0 2.5-2 4.4-4.4 4.4" class="dark3" />
		<ellipse cx="1225.7" cy="216.7" class="dark3" rx="160.2" ry="161.1" transform="rotate(-17.572 1225.662 216.69)" />
		<ellipse cx="1202.1" cy="221.7" class="white" rx="160.2" ry="161.1" transform="rotate(-17.565 1202.132 221.658)" />
		<path d="M1202.9 387.2c-15.9 0-31.9-2.3-47.5-7-42.3-12.7-77.2-41.3-98.2-80.4-43.1-80.4-13.1-180.9 66.8-224 38.6-20.8 83-25.3 125-12.6 42.3 12.7 77.2 41.3 98.2 80.4 43.1 80.4 13.2 180.9-66.8 224-24.3 13-50.8 19.6-77.5 19.6m-1.5-322.3c-25.3 0-50.4 6.3-73.3 18.6-75.6 40.7-104 135.8-63.2 212 19.8 37 52.8 64.1 92.9 76.1 39.8 12 81.8 7.7 118.3-11.9 75.6-40.7 104-135.8 63.2-212-19.8-37-52.8-64.1-92.9-76.1-14.8-4.4-30-6.7-45-6.7" class="contour" />
		<path d="M1287.3 277.3c-.8 0-1.6-.2-2.3-.6l-85.2-51.2c-1-.6-1.7-1.5-2-2.6l-20.8-73.1c-.7-2.4.7-4.8 3.1-5.5s4.8.7 5.5 3.1l20.3 71.5 83.7 50.3c2.1 1.3 2.8 4 1.5 6.1-.8 1.2-2.3 2-3.8 2" class="contour" />
		<path d="M1149.9 104.3c2.7 5 .8 11.2-4.1 13.9-5 2.7-11.2.8-13.9-4.2s-.8-11.2 4.1-13.9c5-2.7 11.2-.8 13.9 4.2M1098.6 146.1c4.8 3 6.3 9.3 3.3 14.2-3 4.8-9.3 6.3-14.1 3.3s-6.3-9.3-3.3-14.2c3-4.8 9.3-6.3 14.1-3.3M1076.1 206.9c5.7.2 10.1 4.9 9.9 10.6s-4.9 10.1-10.5 9.9c-5.7-.2-10.1-4.9-9.9-10.6.1-5.6 4.8-10 10.5-9.9M1085.5 273.7c5-2.7 11.2-.8 13.9 4.2s.8 11.2-4.1 13.9c-5 2.7-11.2.8-13.9-4.2s-.8-11.2 4.1-13.9M1128.3 324.2c3-4.8 9.3-6.3 14.1-3.3s6.3 9.3 3.3 14.2c-3 4.8-9.3 6.3-14.1 3.3-4.7-3-6.2-9.3-3.3-14.2M1190.1 348.1c.2-5.7 4.9-10.1 10.5-9.9 5.7.2 10.1 4.9 9.9 10.6s-4.9 10.1-10.5 9.9-10-4.9-9.9-10.6M1255.4 337.8c-2.7-5-.8-11.2 4.1-13.9 5-2.7 11.2-.8 13.9 4.2s.8 11.2-4.1 13.9c-5 2.7-11.2.8-13.9-4.2M1306.7 296c-4.8-3-6.3-9.3-3.3-14.2 3-4.8 9.3-6.3 14.1-3.3s6.3 9.3 3.3 14.2c-3 4.8-9.3 6.3-14.1 3.3M1329.2 235.2c-5.7-.2-10.1-4.9-9.9-10.6s4.9-10.1 10.5-9.9c5.7.2 10.1 4.9 9.9 10.6-.1 5.6-4.8 10-10.5 9.9M1318.7 169.5c-5 2.7-11.2.8-13.9-4.2s-.8-11.2 4.1-13.9c5-2.7 11.2-.8 13.9 4.2s.9 11.3-4.1 13.9M1277 117.9c-3 4.8-9.3 6.3-14.1 3.3s-6.3-9.3-3.3-14.2c3-4.8 9.3-6.3 14.1-3.3 4.7 3 6.2 9.3 3.3 14.2M1215.2 94c-.2 5.7-4.9 10.1-10.5 9.9-5.7-.2-10.1-4.9-9.9-10.6s4.9-10.1 10.5-9.9 10 4.9 9.9 10.6" class="dark1" />
		<path d="m263.5 985.5-.5-5.7c-.5-5.4-4.6-9.7-9.9-10.4l-8.8-1.1c-4.4-.6-8-3.6-9.4-7.7-.3-.9-.6-1.7-.9-2.6-1.5-4-.7-8.4 2.1-11.6l6.6-7.5c3.5-3.9 3.8-9.7.8-14l-3-4.4c-3.1-4.5-8.9-6.2-13.9-4l-8.1 3.5c-4.1 1.8-8.7 1-12.1-2-.6-.5-1.2-1-1.7-1.5-3.3-2.7-4.9-7-4-11.2l2.1-9.7c1.1-5.2-1.5-10.5-6.3-12.7l-4.5-2.1c-4.9-2.3-10.8-.8-14 3.5l-5.6 7.5c-2.6 3.5-7 5.1-11.3 4.4l-2.1-.3c-4.3-.7-7.9-3.7-9.3-7.9l-2.8-8.9c-1.6-5.2-6.7-8.5-12-8l-5 .5c-5.3.5-9.5 4.6-10.2 9.9l-1.3 9.9c-.6 4.3-3.5 7.8-7.5 9.3-.7.3-1.4.5-2.2.8-4.1 1.6-8.8.8-12-2.2l-6.5-6c-4-3.7-10.1-4-14.5-.8l-4.3 3.2c-4.2 3.1-5.8 8.6-3.9 13.5l3.7 9.3c1.6 3.9.8 8.4-1.9 11.6-.6.7-1.1 1.4-1.7 2.1-2.7 3.4-7.1 5.1-11.4 4.2l-8.7-1.9c-5.3-1.1-10.6 1.6-12.8 6.5l-2.4 5.2c-2.2 4.8-.8 10.5 3.4 13.7l7.5 5.8c3.4 2.6 4.9 6.9 4.2 11.1-.2 1-.3 1.9-.5 2.9-.7 4.2-3.6 7.8-7.6 9.2l-9 3c-5 1.7-8.2 6.6-7.7 11.8l.5 5.7c.5 5.4 4.6 9.7 9.9 10.4l8.8 1.1c4.4.6 8 3.6 9.4 7.7.3.9.6 1.7.9 2.6 1.5 4 .7 8.4-2.1 11.6l-6.6 7.5c-3.5 3.9-3.8 9.7-.8 14l3 4.4c3.1 4.5 8.9 6.2 13.9 4l8.1-3.5c4.1-1.8 8.7-1 12.1 2 .6.5 1.2 1 1.7 1.5 3.3 2.7 4.9 7 4 11.2l-2.1 9.7c-1.1 5.2 1.5 10.5 6.3 12.7l4.5 2.1c4.9 2.3 10.8.8 14-3.5l5.6-7.5c2.6-3.5 7-5.1 11.3-4.4l2.1.3c4.3.7 7.9 3.7 9.3 7.9l2.8 8.9c1.6 5.2 6.7 8.5 12 8l5-.5c5.3-.5 9.5-4.6 10.2-9.9l1.3-9.9c.6-4.3 3.5-7.8 7.5-9.3.7-.3 1.4-.5 2.2-.8 4.1-1.6 8.8-.8 12 2.2l6.5 6c4 3.7 10.1 4 14.5.8l4.3-3.2c4.2-3.1 5.8-8.6 3.9-13.5l-3.7-9.3c-1.6-3.9-.8-8.4 1.9-11.6.6-.7 1.1-1.4 1.7-2.1 2.7-3.4 7.1-5.1 11.4-4.2l8.7 1.9c5.3 1.1 10.6-1.6 12.8-6.5l2.4-5.2c2.2-4.8.8-10.5-3.4-13.7l-7.5-5.8c-3.4-2.6-4.9-6.9-4.2-11.1.2-1 .3-1.9.5-2.9.7-4.2 3.6-7.8 7.6-9.2l9-3c5-1.6 8.1-6.5 7.7-11.8M148.2 1056c-33.1 3.3-62.2-21.5-65.2-55.4-2.9-33.9 21.5-64.1 54.6-67.4s62.2 21.5 65.2 55.4c2.9 33.9-21.5 64.1-54.6 67.4" class="dark3" />
		<path d="m551.2 796.1-2.8-10.5c-1.7-6.3-7.6-10.6-14.1-10.3l-14.9.7c-5.4.3-10.4-2.7-13-7.4-.9-1.7-1.8-3.3-2.8-4.9-2.7-4.5-2.7-10 0-14.5l8.5-13.9c3.3-5.4 2.5-12.4-2-17l-7.2-7.4c-4.7-4.7-12-5.5-17.6-1.9l-12.4 8.2c-4.6 3-10.4 3-15.1.1-1.5-.9-2.9-1.7-4.4-2.6-4.6-2.6-7.5-7.4-7.3-12.7l.5-16.3c.2-6.5-4-12.2-10.3-13.9l-9.5-2.6c-6.4-1.7-13.1 1.3-16 7.2l-7 13.8c-2.4 4.8-7.4 7.7-12.8 7.6h-4.9c-5.4.1-10.5-2.7-12.9-7.5l-7.1-13.8c-3-5.9-9.8-8.8-16.1-7l-9.5 2.7c-6.2 1.8-10.4 7.6-10.1 14l.7 16.2c.2 5.3-2.6 10.2-7.2 12.8-1.5.9-3 1.7-4.4 2.6-4.6 2.9-10.5 3-15.1 0l-12.5-8c-5.6-3.6-12.9-2.7-17.5 2.1l-7.2 7.5c-4.4 4.6-5.2 11.6-1.8 17l8.6 13.9c2.8 4.4 2.7 10 .1 14.5-1 1.6-1.9 3.3-2.8 5-2.5 4.8-7.5 7.7-12.9 7.6l-14.9-.5c-6.5-.2-12.4 4.1-14 10.5l-2.7 10.5c-1.6 6.2 1.3 12.7 6.9 15.7l13.8 7.3c4.7 2.5 7.4 7.4 7.4 12.6v6c.2 5.3-2.6 10.2-7.2 12.8l-13.7 7.5c-5.6 3.1-8.4 9.6-6.8 15.8l2.8 10.5c1.7 6.3 7.6 10.6 14.1 10.3l14.9-.7c5.4-.3 10.4 2.7 13 7.4.9 1.7 1.8 3.3 2.8 4.9 2.7 4.5 2.7 10 0 14.5l-8.5 13.9c-3.3 5.4-2.5 12.4 2 17l7.2 7.4c4.7 4.7 12 5.5 17.6 1.9l12.4-8.2c4.6-3 10.4-3 15.1-.1 1.5.9 2.9 1.7 4.4 2.6 4.6 2.6 7.5 7.4 7.3 12.7l-.5 16.3c-.2 6.5 4 12.2 10.3 13.9l9.5 2.6c6.4 1.7 13.1-1.3 16-7.2l7-13.8c2.4-4.8 7.4-7.7 12.8-7.6h4.9c5.4-.1 10.5 2.7 12.9 7.5l7.1 13.8c3 5.9 9.8 8.8 16.1 7l9.5-2.7c6.2-1.8 10.4-7.6 10.1-14l-.7-16.2c-.2-5.3 2.6-10.2 7.2-12.8 1.5-.9 3-1.7 4.4-2.6 4.6-2.9 10.5-3 15.1 0l12.5 8c5.6 3.6 12.9 2.7 17.5-2.1l7.2-7.5c4.4-4.6 5.2-11.6 1.8-17l-8.6-13.9c-2.8-4.4-2.7-10-.1-14.5 1-1.6 1.9-3.3 2.8-5 2.5-4.8 7.5-7.8 12.9-7.6l14.9.5c6.5.2 12.4-4.1 14-10.5l2.7-10.5c1.6-6.2-1.3-12.7-6.9-15.7l-13.8-7.3c-4.7-2.5-7.4-7.4-7.4-12.6v-6c-.2-5.3 2.6-10.2 7.2-12.8l13.7-7.5c5.6-3.1 8.4-9.6 6.8-15.8m-140 121.8c-44.1 12.4-89.6-14.3-101.7-59.6s13.9-92.1 58-104.5 89.6 14.3 101.7 59.6c12 45.3-13.9 92.1-58 104.5" class="dark2" />
		<path d="M355.3 1007.3c-1.6 0-3.2-.2-4.7-.6l-9.5-2.6c-8.3-2.2-13.9-9.8-13.6-18.3l.5-16.3c.1-3.6-1.8-6.9-5-8.7-1.5-.9-3.1-1.7-4.6-2.7-3.3-2-7.2-2-10.3.1l-12.4 8.2c-7.3 4.8-17 3.8-23.2-2.5l-7.2-7.4c-5.9-6-7-15.2-2.6-22.4l8.5-13.9c1.8-3 1.8-6.8 0-9.9-1-1.7-2-3.4-2.9-5.1-1.8-3.3-5.2-5.3-8.9-5.1l-14.9.7c-8.6.4-16.4-5.3-18.6-13.6l-2.8-10.5c-2.2-8.2 1.5-16.8 8.9-20.8l13.7-7.5c3.1-1.7 5-5.1 4.9-8.7-.1-2.1-.1-4.1 0-6.1.1-3.7-1.9-7-5-8.7l-13.8-7.3c-7.5-4-11.2-12.5-9.2-20.7l2.7-10.5c2.1-8.3 9.8-14.1 18.4-13.8l14.9.5c3.7.2 7-1.9 8.8-5.2.9-1.7 1.9-3.4 2.8-5.1 1.8-3.1 1.8-6.9-.1-9.9l-8.6-13.9c-4.4-7.1-3.5-16.4 2.4-22.4l7.2-7.5c6.1-6.3 15.8-7.4 23.1-2.7l12.5 8c3.1 2 7.1 2 10.3-.1 1.5-.9 3-1.8 4.6-2.7 3.2-1.8 5.1-5.2 4.9-8.7l-.7-16.2c-.4-8.6 5.1-16.2 13.4-18.5l9.5-2.7c8.3-2.3 17.3 1.5 21.3 9.2l7.1 13.8c1.7 3.3 5.1 5.3 8.9 5.1 1.7 0 3.4-.1 5 0 3.8 0 7.2-2 8.8-5.2l7-13.8c3.9-7.7 12.8-11.7 21.2-9.5l9.5 2.6c8.3 2.2 13.9 9.8 13.6 18.3l-.5 16.3c-.1 3.6 1.8 6.9 5 8.7 1.5.9 3.1 1.7 4.6 2.7 3.3 2 7.2 2 10.3-.1l12.4-8.2c7.3-4.8 17-3.8 23.2 2.5l7.2 7.4c5.9 6 7 15.2 2.6 22.4l-8.5 13.9c-1.8 3-1.8 6.8 0 9.9 1 1.7 2 3.4 2.9 5.1 1.8 3.3 5.2 5.3 8.9 5.1l14.9-.7c8.6-.4 16.4 5.3 18.6 13.6l2.8 10.5c2.2 8.2-1.5 16.8-8.9 20.8l-13.7 7.5c-3.1 1.7-5 5.1-4.9 8.7.1 2.1.1 4.1 0 6.1-.1 3.7 1.9 7 5 8.7l13.8 7.3c7.5 4 11.2 12.5 9.2 20.7l-2.7 10.5c-2.1 8.3-9.8 14.1-18.4 13.8l-14.9-.5c-3.6-.1-7 1.9-8.8 5.2-.9 1.7-1.9 3.4-2.8 5.1-1.8 3.1-1.8 6.9.1 9.9l8.6 13.9c4.4 7.1 3.5 16.4-2.4 22.4l-7.2 7.5c-6.1 6.3-15.8 7.4-23.1 2.7l-12.5-8c-3.1-2-7.1-2-10.3.1-1.5.9-3 1.8-4.6 2.7-3.2 1.8-5.1 5.2-4.9 8.7l.7 16.2c.4 8.6-5.1 16.2-13.4 18.5l-9.5 2.7c-8.3 2.3-17.3-1.5-21.3-9.2l-7.1-13.8c-1.7-3.3-5.1-5.2-8.9-5.1-1.7 0-3.4.1-5 0-3.7.1-7.2 2-8.8 5.2l-7 13.8c-3.2 6.3-9.7 10.1-16.5 10.1m-42-59.4c3.4 0 6.8.9 9.8 2.8 1.4.9 2.8 1.7 4.3 2.5 6.1 3.4 9.8 9.8 9.6 16.7l-.5 16.3c-.1 4.4 2.7 8.3 7 9.5l9.5 2.6c4.3 1.2 8.9-.9 10.9-4.9l7-13.8c3.1-6.2 9.5-10.1 16.6-10.1h4.9c7.2-.2 13.7 3.6 17 9.9l7.1 13.8c2.1 4 6.7 6 11 4.8l9.5-2.7c4.3-1.2 7.1-5.1 6.9-9.5l-.7-16.2c-.3-6.9 3.3-13.4 9.4-16.8 1.4-.8 2.9-1.7 4.3-2.5 6.1-3.8 13.9-3.8 19.8 0l12.5 8c3.8 2.4 8.8 1.8 12-1.4l7.2-7.5c3-3.1 3.5-7.9 1.2-11.6l-8.6-13.9c-3.6-5.8-3.7-13.1-.2-19.1l2.7-4.8c3.4-6.4 9.9-10.1 16.9-9.9l14.9.5c4.4.2 8.4-2.8 9.5-7.1l2.7-10.5c1.1-4.2-.9-8.7-4.7-10.7L529 855c-6.1-3.2-9.8-9.6-9.7-16.6v-5.8c-.2-7 3.4-13.5 9.5-16.8l13.7-7.5c3.8-2.1 5.7-6.5 4.6-10.8l-2.8-10.5c-1.1-4.3-5.2-7.2-9.6-7l-14.9.7c-7.1.3-13.6-3.4-17.1-9.8l-2.7-4.8c-3.5-5.9-3.5-13.2 0-19l8.5-13.9c2.3-3.7 1.7-8.5-1.3-11.6l-7.2-7.4c-3.2-3.2-8.2-3.8-12-1.3l-12.4 8.2c-5.9 3.9-13.7 4-19.8.2-1.4-.9-2.8-1.7-4.3-2.5-6.1-3.4-9.8-9.8-9.6-16.7l.5-16.3c.1-4.4-2.7-8.3-7-9.5l-9.5-2.6c-4.3-1.2-8.9.9-10.9 4.9l-7 13.8c-3.1 6.2-9.5 10.1-16.6 10.1h-4.9c-7.3.2-13.7-3.6-17-9.9l-7.1-13.8c-2.1-4-6.7-6-11-4.8l-9.5 2.7c-4.3 1.2-7.1 5.1-6.9 9.5l.7 16.2c.3 6.9-3.3 13.4-9.4 16.8-1.4.8-2.9 1.7-4.3 2.5-6.1 3.8-13.9 3.8-19.8 0l-12.5-8c-3.8-2.4-8.8-1.8-12 1.4l-7.2 7.5c-3 3.1-3.5 7.9-1.2 11.6l8.6 13.9c3.6 5.8 3.7 13.1.2 19.1l-2.7 4.8c-3.4 6.4-9.9 10.2-16.9 9.9l-14.9-.5c-4.4-.2-8.4 2.8-9.5 7.1l-2.7 10.5c-1.1 4.2.9 8.7 4.7 10.7l13.8 7.3c6.1 3.2 9.8 9.6 9.7 16.6v5.8c.2 7-3.4 13.5-9.5 16.8l-13.7 7.5c-3.8 2.1-5.7 6.5-4.6 10.8l2.8 10.5c1.1 4.3 5.2 7.3 9.6 7l14.9-.7c7.1-.3 13.6 3.4 17.1 9.8l2.7 4.8c3.5 5.9 3.5 13.2 0 19l-8.5 13.9c-2.3 3.7-1.7 8.5 1.3 11.6l7.2 7.4c3.2 3.2 8.2 3.8 12 1.3l12.4-8.2c3-2 6.5-3 10-3m75.9-22.6c-14.6 0-29.1-3.8-42.2-11.3-20.7-11.8-35.5-31.2-41.8-54.6-12.7-47.6 14.7-96.9 61.1-109.9 22.1-6.2 45.4-3.4 65.4 8.1 20.7 11.8 35.5 31.2 41.8 54.6 12.7 47.6-14.7 96.9-61.1 109.9-7.7 2.2-15.5 3.2-23.2 3.2m.2-170.1c-6.9 0-13.9 1-20.8 2.9-41.7 11.7-66.3 56.2-54.9 99.1 5.6 21.1 19 38.6 37.6 49.2 18 10.2 38.8 12.8 58.6 7.2 41.7-11.7 66.3-56.2 54.9-99.1-5.6-21.1-19-38.6-37.6-49.2-11.7-6.7-24.7-10.1-37.8-10.1" class="contour" />
		<circle cx="2259.7" cy="790.5" r="181.5" class="dark2" />
		<path d="M2259.7 976.5c-102.5 0-186-83.4-186-186 0-102.5 83.4-186 186-186 102.5 0 186 83.4 186 186s-83.4 186-186 186m0-363.1c-97.7 0-177.1 79.5-177.1 177.1 0 97.7 79.5 177.1 177.1 177.1s177.1-79.5 177.1-177.1-79.4-177.1-177.1-177.1" class="contour" />
		<circle cx="2259.7" cy="790.5" r="152.4" class="white" transform="rotate(-45 2259.67 790.542)" />
		<path d="M2387.8 877.5c-.8 0-1.7-.2-2.4-.7-2.1-1.3-2.6-4.1-1.3-6.1 7.7-11.9 13.6-24.8 17.6-38.3.7-2.3 3.2-3.7 5.5-3s3.7 3.2 3 5.5c-4.2 14.3-10.5 28-18.6 40.6-.9 1.3-2.3 2-3.8 2M2396.9 728.5c-1.6 0-3.2-.9-4-2.5-25-51.4-76-83.4-133.1-83.4-46.9 0-91.6 22.6-119.4 60.5-1.4 2-4.2 2.4-6.2 1s-2.4-4.2-1-6.2c29.5-40.2 76.8-64.2 126.5-64.2 59.7 0 115.1 34.7 141.1 88.4 1.1 2.2.2 4.9-2.1 5.9-.5.4-1.2.5-1.8.5M2259.7 947.3c-86.4 0-156.8-70.3-156.8-156.8 0-26.9 6.9-53.4 20-76.6 1.2-2.1 3.9-2.9 6-1.7s2.9 3.9 1.7 6c-12.3 22-18.8 47-18.8 72.3 0 81.6 66.4 147.9 147.9 147.9 2.4 0 4.4 2 4.4 4.4.1 2.5-1.9 4.5-4.4 4.5" class="contour" />
		<path d="M2245.8 898.1v-25c-17.7-.8-34.8-5.5-44.8-11.3l7.9-30.8c11.1 6.1 26.6 11.6 43.8 11.6 15 0 25.3-5.8 25.3-16.3 0-10-8.4-16.3-27.9-22.9-28.2-9.5-47.5-22.7-47.5-48.2 0-23.2 16.3-41.4 44.6-46.9v-25h25.8v23.2c17.7.8 29.5 4.5 38.2 8.7l-7.6 29.8c-6.9-2.9-19-9-38-9-17.1 0-22.7 7.4-22.7 14.8 0 8.7 9.2 14.2 31.6 22.7 31.4 11.1 44 25.6 44 49.3 0 23.5-16.6 43.5-46.9 48.8v26.9h-25.8z" class="dark3" />
	</g>
	<g id="layer-top-stars">
		<path d="M2223 1635.6c-4.8 0-9.5-1.5-13.5-4.3-5.2-3.6-8.7-9.1-9.8-15.3s.3-12.5 3.9-17.8c7.5-10.7 22.3-13.4 33.1-5.9 5.2 3.6 8.7 9.1 9.8 15.3s-.3 12.5-3.9 17.8c-3.6 5.2-9.1 8.7-15.3 9.8-1.4.3-2.9.4-4.3.4m.1-38.6c-4.7 0-9.3 2.2-12.2 6.4-2.3 3.3-3.1 7.2-2.4 11.1s2.9 7.3 6.1 9.6c3.3 2.3 7.2 3.1 11.1 2.4s7.3-2.9 9.6-6.1c2.3-3.3 3.1-7.2 2.4-11.1s-2.9-7.3-6.1-9.6c-2.6-1.9-5.6-2.7-8.5-2.7m-15.9 3.8" class="contour" />
		<path d="M122.3 1948c6.1-8.8 18.1-10.9 26.9-4.8s10.9 18.1 4.8 26.9-18.1 10.9-26.9 4.8-10.9-18.1-4.8-26.9M122.3 211.7c6.1-8.8 18.1-10.9 26.9-4.8s10.9 18.1 4.8 26.9-18.1 10.9-26.9 4.8-10.9-18.1-4.8-26.9" class="dark1" />
		<path d="M2296.1 1435.1c-3.5 0-7-1-10.1-3.2-8-5.6-10-16.6-4.4-24.6s16.6-10 24.6-4.4 10 16.6 4.4 24.6c-3.4 4.9-8.9 7.6-14.5 7.6m.1-26.5c-2.8 0-5.5 1.3-7.3 3.8-2.8 4-1.8 9.5 2.2 12.3s9.5 1.8 12.3-2.2 1.8-9.5-2.2-12.3c-1.5-1.1-3.3-1.6-5-1.6M2096.4 1757.1c-1.3 0-2.5-.5-3.4-1.6-1.6-1.9-1.4-4.7.5-6.2l14.3-12.2c1.9-1.6 4.7-1.4 6.2.5 1.6 1.9 1.4 4.7-.5 6.2l-14.3 12.2c-.7.8-1.8 1.1-2.8 1.1M2051.2 1795.7c-1.3 0-2.5-.5-3.4-1.6-1.6-1.9-1.4-4.7.5-6.2l14.3-12.2c1.9-1.6 4.7-1.4 6.2.5 1.6 1.9 1.4 4.7-.5 6.2l-14.3 12.2c-.8.7-1.8 1.1-2.8 1.1M2067.8 1754.8c-1.3 0-2.5-.5-3.4-1.6l-12.2-14.3c-1.6-1.9-1.4-4.7.5-6.2 1.9-1.6 4.7-1.4 6.2.5l12.2 14.3c1.6 1.9 1.4 4.7-.5 6.2-.8.8-1.8 1.1-2.8 1.1M2106.4 1800.1c-1.3 0-2.5-.5-3.4-1.6l-12.2-14.3c-1.6-1.9-1.4-4.7.5-6.2 1.9-1.6 4.7-1.4 6.2.5l12.2 14.3c1.6 1.9 1.4 4.7-.5 6.2-.8.7-1.8 1.1-2.8 1.1M381.7 1624.7c-2.4 0-4.4-1.9-4.4-4.3l-.5-18.8c-.1-2.4 1.9-4.5 4.3-4.5 2.4-.1 4.5 1.9 4.5 4.3l.5 18.8c.1 2.4-1.9 4.5-4.3 4.5zM383.2 1684.1c-2.4 0-4.4-1.9-4.4-4.3l-.5-18.8c-.1-2.4 1.9-4.5 4.3-4.5 2.4-.1 4.5 1.9 4.5 4.3l.5 18.8c.1 2.4-1.9 4.5-4.3 4.5zM343.1 1646c-2.4 0-4.4-1.9-4.4-4.3-.1-2.4 1.9-4.5 4.3-4.5l18.8-.5c2.4-.1 4.5 1.9 4.5 4.3.1 2.4-1.9 4.5-4.3 4.5l-18.8.5zM402.5 1644.4c-2.4 0-4.4-1.9-4.4-4.3-.1-2.4 1.9-4.5 4.3-4.5l18.8-.5c2.4-.1 4.5 1.9 4.5 4.3.1 2.4-1.9 4.5-4.3 4.5l-18.8.5z" class="contour" />
	</g>
</svg>
