<svg xmlns="http://www.w3.org/2000/svg" xml:space="preserve" width="360" height="240" viewBox="0 0 360 240">
  <style>
    .uwu__girl-with-a-book-2_svg__st2{fill:#0f1f35}.uwu__girl-with-a-book-2_svg__st10,.uwu__girl-with-a-book-2_svg__st14,.uwu__girl-with-a-book-2_svg__st16,.uwu__girl-with-a-book-2_svg__st3,.uwu__girl-with-a-book-2_svg__st4,.uwu__girl-with-a-book-2_svg__st7,.uwu__girl-with-a-book-2_svg__st9{fill-rule:evenodd;clip-rule:evenodd;fill:#0f1f35}.uwu__girl-with-a-book-2_svg__st10,.uwu__girl-with-a-book-2_svg__st14,.uwu__girl-with-a-book-2_svg__st16,.uwu__girl-with-a-book-2_svg__st4,.uwu__girl-with-a-book-2_svg__st7,.uwu__girl-with-a-book-2_svg__st9{fill:#3572bc}.uwu__girl-with-a-book-2_svg__st10,.uwu__girl-with-a-book-2_svg__st14,.uwu__girl-with-a-book-2_svg__st16,.uwu__girl-with-a-book-2_svg__st7,.uwu__girl-with-a-book-2_svg__st9{fill:#a4b7bc}.uwu__girl-with-a-book-2_svg__st10,.uwu__girl-with-a-book-2_svg__st14,.uwu__girl-with-a-book-2_svg__st16,.uwu__girl-with-a-book-2_svg__st9{fill:#ffc5bb}.uwu__girl-with-a-book-2_svg__st10,.uwu__girl-with-a-book-2_svg__st14,.uwu__girl-with-a-book-2_svg__st16{fill:#183054}.uwu__girl-with-a-book-2_svg__st14,.uwu__girl-with-a-book-2_svg__st16{fill:#fff}.uwu__girl-with-a-book-2_svg__st16{fill:#dd8c2c}
  </style>
  <g>
    <path d="M46.2 206.7s-55-70.2-16.6-96 87.6-36.9 87.6-73.8 82.2-27.6 100.2 3 24.6 50.4 55.8 44.4 68.4-7.8 70.2 13.2-6.4 88.5-18 97.8-32.8 12.5-32.8 12.5z" opacity=".1" fill-rule="evenodd" clip-rule="evenodd" fill="#48f"/>
    <g opacity=".5">
      <path d="M321.3 117.5c-.1.1-37.3 40.1-44 77.2l-1.6-.3c6.7-37.5 44.2-77.9 44.4-78z" class="uwu__girl-with-a-book-2_svg__st2"/>
      <path d="M295.8 172.9c-1.4 3.2-3.6 6.1-6.5 8.4s-6.3 3.7-9.7 4.2c1.4-3.2 3.6-6.1 6.5-8.4s6.2-3.7 9.7-4.2" class="uwu__girl-with-a-book-2_svg__st3"/>
      <path d="M281.6 148.5c-1.1 3.3-1.4 6.9-.8 10.6s2.2 6.9 4.4 9.7c1.1-3.3 1.4-6.9.8-10.6s-2.2-7-4.4-9.7" class="uwu__girl-with-a-book-2_svg__st3"/>
      <path d="M309.4 144.2c-1.6 3.1-4 5.8-7.1 7.9s-6.5 3.2-10 3.5c1.6-3.1 4-5.8 7.1-7.9 3.1-2 6.6-3.1 10-3.5" class="uwu__girl-with-a-book-2_svg__st3"/>
      <path d="M299.3 119.9c-1.1 3.3-1.4 6.9-.8 10.6s2.2 6.9 4.4 9.7c1.1-3.3 1.4-6.9.8-10.6-.7-3.7-2.2-7-4.4-9.7" class="uwu__girl-with-a-book-2_svg__st3"/>
      <path d="M328.5 127.3c-2.6 2.3-5.9 3.9-9.5 4.7s-7.3.6-10.6-.4c2.6-2.3 5.9-3.9 9.5-4.7s7.2-.6 10.6.4" class="uwu__girl-with-a-book-2_svg__st3"/>
      <path d="M335.4 116.9c-2.6 2.3-5.9 3.9-9.5 4.7s-6.4 1.5-9.6.6c-.1 0-.2-.1-.3-.1.1-.1.2-.2.4-.3.6-3.3 1.2-7.4 3.5-10.3 2.2-2.9 5.1-5.2 8.3-6.6-.5 3.4-2.6 7.7-4.1 9.8-1.5 2-3.5 2.4-4.4 3.2 1.1-.5 2.9-.9 5.4-1.4 2.2-.5 7-.6 10.3.4" class="uwu__girl-with-a-book-2_svg__st3"/>
      <path d="M268.9 145c0 .1 11.5 29.4 7.3 50.6l.9.2c4.3-21.5-7.3-51.1-7.3-51.2z" class="uwu__girl-with-a-book-2_svg__st2"/>
      <path d="M270.9 180c.1 2 .6 4 1.7 5.9 1.1 1.8 2.6 3.3 4.3 4.3-.1-2-.6-4-1.7-5.9-1.1-1.8-2.6-3.3-4.3-4.3" class="uwu__girl-with-a-book-2_svg__st3"/>
      <path d="M283.6 169.9c-.1 2-.7 4-1.8 5.8s-2.6 3.3-4.4 4.3c.1-2 .7-4 1.8-5.8 1.2-1.9 2.7-3.3 4.4-4.3" class="uwu__girl-with-a-book-2_svg__st3"/>
      <path d="M269.6 161.8c.2 2 .9 4 2.1 5.7 1.2 1.8 2.8 3.1 4.6 4-.2-2-.9-4-2.1-5.7-1.2-1.8-2.8-3.1-4.6-4" class="uwu__girl-with-a-book-2_svg__st3"/>
      <path d="M280.2 150.8c-.1 2-.7 4-1.8 5.8s-2.6 3.3-4.4 4.3c.1-2 .7-4 1.8-5.8 1.2-1.8 2.7-3.3 4.4-4.3" class="uwu__girl-with-a-book-2_svg__st3"/>
      <path d="M263 148.7c.9 1.8 2.3 3.3 4.1 4.5s3.8 1.8 5.8 2c-.9-1.8-2.3-3.3-4.1-4.5s-3.8-1.8-5.8-2" class="uwu__girl-with-a-book-2_svg__st3"/>
      <path d="M261.5 141.6c.9 1.8 2.4 3.3 4.1 4.5 1.8 1.2 3.1 2.2 5 2.4h.2c0-.1-.1-.2-.1-.2.4-1.9.9-4.2.3-6.2s-1.7-3.9-3.1-5.3c-.4 2-.2 4.7.2 6.1s1.4 2 1.7 2.7c-.5-.5-1.4-1.1-2.6-1.9-1.2-.9-3.7-1.9-5.7-2.1" class="uwu__girl-with-a-book-2_svg__st3"/>
      <path d="M285.8 119.9c0 .1 3.7 47.1-10.7 78.8l1.2.5c14.6-32.1 10.8-79.5 10.8-79.6z" class="uwu__girl-with-a-book-2_svg__st2"/>
      <path d="M274.3 173.8c-.7 3.1-.8 6.3 0 9.3.7 3 2.2 5.5 4.1 7.4.7-3.1.8-6.3 0-9.3s-2.2-5.5-4.1-7.4" class="uwu__girl-with-a-book-2_svg__st3"/>
      <path d="M295.6 160.9c-.9 3-2.6 6-4.8 8.5-2.3 2.6-4.9 4.5-7.6 5.6.9-3 2.6-6 4.8-8.5 2.2-2.6 4.8-4.4 7.6-5.6" class="uwu__girl-with-a-book-2_svg__st3"/>
      <path d="M279.9 145.7c-.5 3.1-.4 6.2.6 9.2.9 2.9 2.6 5.3 4.6 7 .5-3.1.4-6.2-.6-9.2-.9-2.9-2.5-5.3-4.6-7" class="uwu__girl-with-a-book-2_svg__st3"/>
      <path d="M298.7 131.1c-.9 3-2.6 6-4.8 8.5-2.3 2.6-4.9 4.5-7.6 5.6.9-3 2.6-6 4.8-8.5 2.2-2.6 4.8-4.5 7.6-5.6" class="uwu__girl-with-a-book-2_svg__st3"/>
      <path d="M276.2 124.4c.6 2.9 1.8 5.5 3.7 7.7s4.4 3.5 7 4.2c-.6-2.9-1.8-5.5-3.7-7.7s-4.3-3.6-7-4.2" class="uwu__girl-with-a-book-2_svg__st3"/>
      <path d="M277 113.3c.6 2.9 1.8 5.6 3.7 7.7s3.3 3.9 5.9 4.6c.1 0 .2 0 .2.1 0-.1-.1-.3-.1-.4 1.3-2.8 2.9-6.3 3-9.5 0-3.2-.7-6.2-2-8.7-1.4 2.9-2.2 7.1-2.3 9.3 0 2.2 1 3.3 1.2 4.4-.5-.8-1.4-2-2.7-3.4s-4.2-3.4-6.9-4.1" class="uwu__girl-with-a-book-2_svg__st3"/>
      <path d="M261.9 120.6s5.8 6.3 3.4 16.2c-2.3 9.9-1.9 15.5-1.9 15.5l3.3 6.3s1.7 2.8.3 7.9 4.1 1.3 4.1 1.3.9-6.7-2.3-12-.2-9.9-.2-9.9 4.1-6.2 10.9-2.9 6.7 16 6.7 16 .7 1.5-5.7 11.7c0 0-.3 6.5 4.7 2.5 5.1-3.9 4.2 6.5 4.2 6.5s1.1 1.6-9.2 6.9c0 0-6.7 6.9 2 7.7s4.8 9.6 4.8 9.6h-59.3s-11.3-18.6-8.6-28.4c0 0 .7-11.2 9.3-8.5 0 0 3.6.9 7.8 9.8 0 0 5 2 3.3-2.3s-4-11.2-4-11.2.2-12.1 5.9-14.6c0 0 4.7-3.1-1.8-15.8s3.7-19.9 11.8-17.6c8.4 2.3 10.5 5.3 10.5 5.3" class="uwu__girl-with-a-book-2_svg__st4"/>
      <path d="M251.8 126.1q0 .15.3.6c1 2 5.1 9.8 2.3 14.5-2 3.2-3.3 6.2-3.9 9.2s-.4 6.1.7 9.5c1.1 3.3 1.1 7 1.1 10.4 0 2.1 0 4.2.3 6.1q1.35 9.75 3.6 16.5c1.5 4.5 3.2 8.1 5 10.9h1.1c-1.8-2.9-3.6-6.5-5.2-11.2-1.5-4.5-2.7-9.8-3.6-16.3-.2-1.8-.3-3.9-.3-5.9 0-3.5 0-7.2-1.1-10.7-1-3.3-1.2-6.2-.7-9.1.6-2.9 1.9-5.8 3.8-8.9 3.1-5.1-1.1-13.3-2.2-15.4-.1-.2-.2-.3-.2-.3z" fill="#274f89"/>
      <path d="M44 131.3c.1.1 31.3 33.7 36.9 64.9l1.3-.2c-5.7-31.5-37.2-65.4-37.3-65.5z" class="uwu__girl-with-a-book-2_svg__st2"/>
      <path d="M65.4 177.8c1.2 2.7 3 5.1 5.5 7s5.3 3.1 8.2 3.6c-1.2-2.7-3-5.1-5.5-7-2.5-2-5.3-3.1-8.2-3.6" class="uwu__girl-with-a-book-2_svg__st3"/>
      <path d="M77.3 157.3c.9 2.8 1.2 5.8.7 8.9s-1.8 5.8-3.7 8.1c-.9-2.8-1.2-5.8-.7-8.9.6-3 1.8-5.8 3.7-8.1" class="uwu__girl-with-a-book-2_svg__st3"/>
      <path d="M53.9 153.8c1.4 2.6 3.4 4.9 6 6.6s5.5 2.7 8.4 3c-1.4-2.6-3.4-4.9-6-6.6-2.6-1.8-5.5-2.8-8.4-3" class="uwu__girl-with-a-book-2_svg__st3"/>
      <path d="M62.4 133.3c.9 2.8 1.2 5.8.7 8.9s-1.8 5.8-3.7 8.1c-.9-2.8-1.2-5.8-.7-8.9.6-3.1 1.9-5.8 3.7-8.1" class="uwu__girl-with-a-book-2_svg__st3"/>
      <path d="M37.9 139.6c2.2 1.9 4.9 3.3 8 3.9s6.1.5 8.9-.4c-2.2-1.9-4.9-3.3-8-3.9-3-.7-6.1-.5-8.9.4" class="uwu__girl-with-a-book-2_svg__st3"/>
      <path d="M32.1 130.8c2.2 1.9 5 3.3 8 3.9s5.4 1.3 8.1.5c.1 0 .2 0 .3-.1l-.3-.3c-.5-2.8-1-6.2-2.9-8.7-1.9-2.4-4.3-4.3-7-5.5.4 2.9 2.2 6.5 3.5 8.2s2.9 2 3.7 2.7c-1-.4-2.4-.8-4.5-1.2-2.1-.3-6.1-.3-8.9.5" class="uwu__girl-with-a-book-2_svg__st3"/>
      <path d="M88 154.4c0 .1-9.7 24.7-6.1 42.6l-.8.2c-3.6-18.1 6.1-42.9 6.1-43z" class="uwu__girl-with-a-book-2_svg__st2"/>
      <path d="M86.3 183.8c-.1 1.7-.5 3.4-1.4 4.9s-2.2 2.8-3.6 3.6c.1-1.7.5-3.4 1.4-4.9s2.1-2.8 3.6-3.6" class="uwu__girl-with-a-book-2_svg__st3"/>
      <path d="M75.6 175.3c.1 1.7.6 3.4 1.5 4.9s2.2 2.7 3.7 3.6c-.1-1.7-.6-3.4-1.5-4.9-1-1.5-2.2-2.7-3.7-3.6" class="uwu__girl-with-a-book-2_svg__st3"/>
      <path d="M87.4 168.5q-.3 2.55-1.8 4.8c-1 1.5-2.4 2.6-3.9 3.4q.3-2.55 1.8-4.8c1-1.5 2.4-2.7 3.9-3.4" class="uwu__girl-with-a-book-2_svg__st3"/>
      <path d="M78.5 159.3c.1 1.7.6 3.4 1.5 4.9s2.2 2.7 3.7 3.6c-.1-1.7-.6-3.4-1.5-4.9-1-1.6-2.3-2.8-3.7-3.6" class="uwu__girl-with-a-book-2_svg__st3"/>
      <path d="M92.9 157.5c-.8 1.5-2 2.8-3.5 3.8s-3.2 1.5-4.8 1.7c.8-1.5 2-2.8 3.5-3.8s3.2-1.6 4.8-1.7" class="uwu__girl-with-a-book-2_svg__st3"/>
      <path d="M94.2 151.6c-.8 1.5-2 2.8-3.5 3.8s-2.6 1.8-4.2 2h-.2c0-.1.1-.1.1-.2-.3-1.6-.7-3.6-.3-5.2.5-1.7 1.4-3.2 2.6-4.4.4 1.6.2 3.9-.1 5.1s-1.1 1.7-1.4 2.2c.4-.4 1.2-.9 2.2-1.6s3.1-1.6 4.8-1.7" class="uwu__girl-with-a-book-2_svg__st3"/>
      <path d="M73.8 133.3c0 .1-3.1 39.6 9 66.2l-1 .4c-12.2-26.9-9.1-66.8-9.1-66.9z" class="uwu__girl-with-a-book-2_svg__st2"/>
      <path d="M83.5 178.6c.6 2.6.7 5.3 0 7.8-.6 2.5-1.8 4.7-3.4 6.3-.6-2.6-.7-5.3 0-7.8.5-2.6 1.8-4.7 3.4-6.3" class="uwu__girl-with-a-book-2_svg__st3"/>
      <path d="M65.6 167.7c.8 2.5 2.1 5 4 7.2s4.1 3.7 6.4 4.7c-.8-2.5-2.1-5-4-7.2-1.9-2.1-4.1-3.7-6.4-4.7" class="uwu__girl-with-a-book-2_svg__st3"/>
      <path d="M78.7 155c.4 2.6.3 5.2-.5 7.7s-2.1 4.5-3.9 5.9c-.4-2.6-.3-5.2.5-7.7s2.2-4.5 3.9-5.9" class="uwu__girl-with-a-book-2_svg__st3"/>
      <path d="M63 142.7c.8 2.5 2.1 5 4 7.2s4.1 3.7 6.4 4.7c-.8-2.5-2.1-5-4-7.2-1.9-2.1-4.1-3.7-6.4-4.7" class="uwu__girl-with-a-book-2_svg__st3"/>
      <path d="M81.8 137.1c-.5 2.4-1.5 4.7-3.1 6.5s-3.7 3-5.9 3.5c.5-2.4 1.5-4.7 3.1-6.5 1.7-1.8 3.7-3 5.9-3.5" class="uwu__girl-with-a-book-2_svg__st3"/>
      <path d="M81.1 127.8c-.5 2.4-1.5 4.7-3.1 6.5s-2.8 3.3-4.9 3.9c-.1 0-.1 0-.2.1 0-.1 0-.2.1-.3-1.1-2.4-2.5-5.3-2.5-8s.6-5.2 1.7-7.3c1.2 2.4 1.9 6 1.9 7.9s-.9 2.8-1 3.7c.4-.7 1.2-1.6 2.3-2.9 1-1.3 3.5-3.1 5.7-3.6" class="uwu__girl-with-a-book-2_svg__st3"/>
      <ellipse cx="175.4" cy="205.1" class="uwu__girl-with-a-book-2_svg__st4" rx="138.6" ry="9.2"/>
    </g>
  </g>
  <g>
    <path d="M104 169.6v29.7h138.8c4.1 0 7.8-1.7 10.5-4.4s4.4-6.4 4.4-10.5-1.7-7.8-4.4-10.5-6.4-4.4-10.5-4.4z" fill-rule="evenodd" clip-rule="evenodd" fill="#fff9f7"/>
    <path d="M104 172h152.7v1.9H104z" class="uwu__girl-with-a-book-2_svg__st7"/>
    <path d="M104 177.7h153.8v1.9H104z" class="uwu__girl-with-a-book-2_svg__st7"/>
    <path d="M104 183.5h155v1.9H104z" class="uwu__girl-with-a-book-2_svg__st7"/>
    <path d="M104 189.2h154.6v1.9H104z" class="uwu__girl-with-a-book-2_svg__st7"/>
    <path d="M104 194.9h152.7v1.9H104z" class="uwu__girl-with-a-book-2_svg__st7"/>
    <path d="M100.2 165c-1.3 0-2.3 1-2.3 2.3s1 2.3 2.3 2.3h142.6c4.1 0 7.8 1.7 10.5 4.4s4.4 6.4 4.4 10.5-1.7 7.8-4.4 10.5-6.4 4.4-10.5 4.4H100.2c-1.3 0-2.3 1-2.3 2.3s1 2.3 2.3 2.3h142.6c5.3 0 10.2-2.2 13.7-5.7s5.7-8.4 5.7-13.7-2.2-10.2-5.7-13.7-8.4-5.7-13.7-5.7z" fill="#fa3"/>
  </g>
  <g>
    <path d="M151 161s-1.8 1.9-4.3 1.8c-2.4-.2-1.4 5.1-.5 5 1-.1 3.9.5 6.9-1 3.2-1.4-2.1-5.8-2.1-5.8" class="uwu__girl-with-a-book-2_svg__st9"/>
    <path d="M187.8 161.5s1.8 1.9 4.3 1.8c2.4-.2 1.4 5.1.5 5-1-.1-3.9.5-6.9-1-3.1-1.4 2.1-5.8 2.1-5.8" class="uwu__girl-with-a-book-2_svg__st9"/>
    <path d="M157.9 33s17.2-19.5 34.9 4.7c0 0 3.8 23.2 11 28.9 0 0 9.3 5.6 3.5 14.8-5.8 9.1 9.9 22.8 9.9 22.8s8.1 23-13.4 39.3c-34 13.3-82.3 13.5-90.2-30.3 0 0-2.1-13.1 10.4-21 0 0 6.7-5.5 1.4-14.8 0 0-5.9-7.8 3.2-17.4 0 0 12.9-12 12.8-22.2-.1.1 2.8-13.8 16.5-4.8" class="uwu__girl-with-a-book-2_svg__st10"/>
    <path d="M150.9 160.4s20-14.5 44.2-17.4c0 0 10.1 2.2 6 11-1.3 2.8-42.9 11.9-48.8 13.9z" fill-rule="evenodd" clip-rule="evenodd" fill="#346ec1"/>
    <path d="M145.4 162c-2.4-.5-7.6-1.1-9.1 1s-.9 4.2 1.1 5.3 9.7.9 10.2-1.1c.6-2.1.1-4.6-2.2-5.2" class="uwu__girl-with-a-book-2_svg__st10"/>
    <path d="M187.9 160.9s-20-14.5-44.2-17.4c-6.7 1.5-10.7 11.3-2.8 13 7.3 1.6 29.8 6.7 45.6 11.8z" fill-rule="evenodd" clip-rule="evenodd" fill="#48f"/>
    <path d="M193.4 162.6c2.4-.5 7.6-1.1 9.1 1s.9 4.2-1.1 5.3-9.7.9-10.2-1.1c-.5-2.2-.1-4.7 2.2-5.2" class="uwu__girl-with-a-book-2_svg__st10"/>
    <circle cx="166.7" cy="72" r="27.7" class="uwu__girl-with-a-book-2_svg__st9"/>
    <circle cx="139" cy="79.1" r="5" class="uwu__girl-with-a-book-2_svg__st9"/>
    <circle cx="194.3" cy="79.1" r="5" class="uwu__girl-with-a-book-2_svg__st9"/>
    <path d="M144.4 53.7c3.7 3.7 11.3 7.6 25.4 2.3 0 0 6.9-.9 12.3 11.4 5.5 12.3 22.4 4.1 22.4 4.1s4.4-15.2-3-25.6c-7.5-10.4-.9-18.1-19-18.3S167 34.5 161 42.2c-5.9 7.8-21.6-7.9-25-2.1s5.3 9 5.3 9c-.9 1.8-9 20.1-9 20.2 0 .7 6.8 3.9 6.8 4.6 5.4-3.6 6.2-13.8 6.1-19.6-.1.3-.8-.7-.8-.6" class="uwu__girl-with-a-book-2_svg__st10"/>
    <path d="M164.5 95.8h6.1V106h-6.1z" class="uwu__girl-with-a-book-2_svg__st9"/>
    <ellipse cx="167.5" cy="111.9" rx="19.6" ry="8" fill-rule="evenodd" clip-rule="evenodd" fill="#346ec1"/>
  </g>
  <g>
    <path d="M163.8 110.5c-7.5-5-28.2-11.7-28.2-6.2z" class="uwu__girl-with-a-book-2_svg__st14"/>
    <path d="M199.4 104.3c0-5.5-20.7 1.2-28.2 6.2z" class="uwu__girl-with-a-book-2_svg__st14"/>
    <path d="M165.6 109.2h3.9c.8 0 1.5.7 1.5 1.5v38.9c0 .8-.7 1.5-1.5 1.5h-3.9c-.8 0-1.5-.7-1.5-1.5v-38.9c0-.9.7-1.5 1.5-1.5" fill-rule="evenodd" clip-rule="evenodd" fill="#fa3"/>
    <path d="m164.1 110.6-28.5-6.3c-1.6-.4-2.9.7-2.9 2.4v32.9c0 1.7 1.3 3.4 2.9 3.7l28.5 6.3z" class="uwu__girl-with-a-book-2_svg__st16"/>
    <path d="m170.9 110.6 28.5-6.3c1.6-.4 2.9.7 2.9 2.4v32.9c0 1.7-1.3 3.4-2.9 3.7l-28.5 6.3z" class="uwu__girl-with-a-book-2_svg__st16"/>
    <path d="M132.7 120.2v9.5c1.3 0 2.4-1.1 2.4-2.4v-4.8c0-1.2-1.1-2.3-2.4-2.3" class="uwu__girl-with-a-book-2_svg__st9"/>
    <path d="M202.4 120.2v9.5c-1.3 0-2.4-1.1-2.4-2.4v-4.8c0-1.2 1.1-2.3 2.4-2.3" class="uwu__girl-with-a-book-2_svg__st9"/>
  </g>
</svg>
