<svg xmlns="http://www.w3.org/2000/svg" xml:space="preserve" width="190" height="270" baseProfile="tiny" overflow="visible" viewBox="0 0 190 270">
  <path fill="#fa3" d="M102.5 218.8c-6.4 0-18.2-.1-25.9-1.2-11.2-1.7-19.8-10.8-20.9-22.2-1.5-17.2-.7-35.1-15.9-53.2C27.3 127.6 20 108.9 20 88.6 20 43 56.9 6.1 102.5 6.1S185 43 185 88.6c0 20.4-7.5 39.1-19.7 53.5-15.1 18-14.3 35.9-15.9 53.2-1 11.4-9.7 20.5-20.9 22.2-7.9 1.1-19.6 1.3-26 1.3"/>
  <g fill="none" stroke="#222" stroke-linecap="round" stroke-linejoin="round" stroke-miterlimit="10" stroke-width="8">
    <path d="M73.8 202.4c2.9-64.9.8-93.6-14.7-101.7-15.5-8-23.8 7.2-13.2 15s22.6 7.3 33.3 7.3m13.2 79.7c6.5 0 9.3.1 15 1.8 9.7 2.9 6 17.6-5.3 14.8-11.1-2.8-30.9-4.4-41 1.1-8.2 4.4-4.9 16.6 5.5 13.6 10.1-3 22.6-2.8 33.7 0 9.4 2.4 6 16.6-3.2 14.3-9.3-2.2-15.2-2.9-22.6 0-7.3 2.9-6.1 10.8-.8 13.2s16.1 1.8 19.3-.6"/>
    <path d="M69.2 123.4c25-.4 45.3-6.2 51.3-23.6s-17.3-29.7-28.1-20c-11.4 10.1 1.4 50 24.4 42.1s23-39.5 9.8-53c-13.2-13.4-34.1-16.1-43.9-6.1s-9.3 38.5 21.1 31"/>
    <path d="M73.8 202.4c-3.3.1-6.2.4-8.9.7-2.8.3-5.3.7-7.2 1-4.7.8-9.6.1-11.6-2.4-2.9-3.5-4.9-7.6-5.3-12.3h0c-1.4-15.4-.7-31.2-14.1-47.3h0c-11-12.9-17.6-29.5-17.6-47.7 0-40.5 32.9-73.5 73.5-73.5S156 53.8 156 94.3c0 18.2-6.7 34.8-17.6 47.7h0c-13.4 16.1-12.8 32-14.1 47.3h0c-.3 3.2-1.2 6.2-2.8 8.9"/>
    <path d="M91.2 202.4c3.3.1 6.2.4 8.9.7 2.8.3 5.3.7 7.2 1 4.7.8 9.6.1 11.6-2.4 2.9-3.5 4.9-7.6 5.3-12.3"/>
  </g>
</svg>
