<svg xmlns="http://www.w3.org/2000/svg" xml:space="preserve" width="190" height="250" baseProfile="tiny" overflow="visible" viewBox="0 0 190 250">
  <path fill="#fa3" d="M102.9 158.2c-4.6 0-13.1-.1-18.7-.9-8.1-1.2-14.3-7.8-15.1-16-1.1-12.3-.5-25.2-11.5-38.3-8.9-10.4-14.2-23.9-14.2-38.6 0-32.9 26.6-59.5 59.5-59.5s59.5 26.6 59.5 59.5c0 14.7-5.4 28.2-14.2 38.6-10.9 13-10.3 25.9-11.5 38.4-.7 8.2-7 14.8-15.1 16-5.6.8-14.1.8-18.7.8"/>
  <g fill="none" stroke="#222" stroke-linecap="round" stroke-linejoin="round" stroke-miterlimit="10" stroke-width="4">
    <path d="M82.2 146.4c2.1-46.8.6-67.5-10.6-73.4-11.2-5.8-17.2 5.2-9.5 10.8s16.3 5.3 24 5.3m9.5 57.5c4.7 0 6.7.1 10.8 1.3 7 2.1 4.3 12.7-3.8 10.7-8-2-22.3-3.2-29.6.8-5.9 3.2-3.5 12 4 9.8 7.3-2.2 16.3-2 24.3 0 6.8 1.7 4.3 12-2.3 10.3-6.7-1.6-11-2.1-16.3 0s-4.4 7.8-.6 9.5 11.6 1.3 13.9-.4"/>
    <path d="M78.9 89.4c18-.3 32.7-4.5 37-17S103.4 51 95.6 58c-8.2 7.3 1 36.1 17.6 30.4s16.6-28.5 7.1-38.2-24.6-11.6-31.7-4.4-6.7 27.8 15.2 22.4"/>
    <path d="M82.2 146.4c-2.4.1-4.5.3-6.4.5-2 .2-3.8.5-5.2.7-3.4.6-6.9.1-8.4-1.7-2.1-2.5-3.5-5.5-3.8-8.9h0c-1-11.1-.5-22.5-10.2-34.1h0c-7.9-9.3-12.7-21.3-12.7-34.4 0-29.2 23.7-53 53-53s53 23.7 53 53c0 13.1-4.8 25.1-12.7 34.4h0c-9.7 11.6-9.2 23.1-10.2 34.1h0c-.2 2.3-.9 4.5-2 6.4"/>
    <path d="M94.8 146.4c2.4.1 4.5.3 6.4.5 2 .2 3.8.5 5.2.7 3.4.6 6.9.1 8.4-1.7 2.1-2.5 3.5-5.5 3.8-8.9"/>
  </g>
  <g fill="#222">
    <path d="M4.6 247v-.9c1.5-.3 2.5-.7 3.1-1.3s1-1.6 1.1-2.8q.15-1.05.3-4.5.15-3.6.3-8.1c.1-3.1.1-5.8.1-8.3 0-5.1-.3-8-.8-8.7-.3-.5-1-.7-2-.7h-.6c-.1 0-.3 0-.4.1-.1 0-.2 0-.4.1v-.9q5.55-2.4 7.8-3.9h.9c-.6 2.3-1 6.4-1.1 12.4l-.2 14c0 6.5.1 10.3.4 11.1.2.5.8.9 1.7 1.1s1.9.4 2.6.5v1.1c-3.8-.3-6.4-.4-7.7-.4-1.4-.2-3.2-.1-5.1.1m15.5 0 .1-.9c1.6-.2 2.6-.4 2.8-.9q.15-.3.3-2.1c.2-1.8.1-2.7.2-4.3 0-1.7.1-2.6.1-2.8 0-2.7 0-4.5-.1-5.3s-.3-1.3-.5-1.6q-.15-.15-1.5-.3c-1.3-.1-1.3-.2-1.3-.4 0-.3.2-.5.5-.6 2.3-.7 4.6-2 6.8-3.8.1 0 .3 0 .6.1-.2.8-.4 2-.5 3.5s-.2 3.1-.3 4.8-.1 3.2-.1 4.5c0 1 0 2.4.1 4.2s.2 3 .4 3.7c.2.3.3.6.6.7.2.1.7.2 1.4.2s1.4.1 2 .2l.3.8zm.9-26 5.7-10.4h4L22.3 221zm12.5 14.9c0-1.7.3-3.3.9-4.6.6-1.4 1.5-2.6 2.6-3.6s2.4-1.8 3.9-2.3 3.1-.8 4.7-.8c1.5 0 3 .3 4.3.8 1.4.6 2.6 1.3 3.6 2.3s1.8 2.2 2.4 3.5.9 2.8.9 4.3c0 2-.5 3.9-1.4 5.7-1 1.8-2.3 3.2-4.1 4.3s-3.8 1.6-6.1 1.6c-1.7 0-3.5-.4-5.3-1.1-1.8-.8-3.4-2-4.6-3.6s-1.8-3.9-1.8-6.5m3.8-1.6c0 1.8.4 3.6 1.1 5.4s1.7 3.2 3 4.4c1.3 1.1 2.7 1.7 4.3 1.7 1.4 0 2.6-.4 3.7-1.1s2-1.8 2.6-3.2c.7-1.4 1-2.9 1-4.7s-.4-3.5-1.1-5.2c-.8-1.7-1.8-3-3.2-4.1-1.3-1.1-2.8-1.6-4.5-1.6-1.3 0-2.5.4-3.5 1.1s-1.9 1.7-2.5 3-.9 2.8-.9 4.3m42.9 6.7c-2.3 2.1-4.4 3.7-6.1 4.7-1.8 1-3.4 1.5-5 1.5-1.8 0-3.3-.7-4.4-2.1s-1.7-3.3-1.7-5.7c0-3.6.8-7.9 2.3-12.9 1.6-5.5 3.5-10.7 5.3-13.8 2-3.5 4.4-4.1 5.9-3.9 1.4.2 2.3 1.7 2.7 2.4s.5 1.7.5 2.9c0 3.5-.8 6.9-2.4 10.1q-2.4 4.95-7.5 10.5c-.1 1.8-.2 3-.2 3.7 0 1.5.3 2.7.8 3.5.5.9 1.3 1.3 2.2 1.3s1.9-.3 2.9-1 2.6-2.1 4.8-4.2v3zm-9.8-10c2.2-2.4 3.9-5.1 5.3-8.1s2-5.6 2-7.7q0-.9-.3-1.5c-.3-.6-.4-.6-.7-.6-.6 0-1.6 1.6-2.8 4.7-1.1 3.1-2.3 7.5-3.5 13.2"/>
    <path d="M107.6 241c-2.3 2.1-4.1 3.7-5.7 4.7-1.5 1-2.9 1.5-4.1 1.5-1.4 0-2.4-.5-3.1-1.6s-1.1-2.5-1.1-4.4c-1.9 2.1-3.6 3.6-5.1 4.6s-2.9 1.5-4.4 1.5c-1.3 0-2.3-.5-3.1-1.6s-1.2-2.5-1.2-4.4q0-5.4 3.6-15l6.9-1.4c-2.8 8.2-4.2 13.5-4.2 15.8 0 1.6.6 2.5 1.8 2.5.9 0 2-.7 3.3-2.2 1.3-1.4 2.1-2.7 2.5-3.8l3.4-10.9 7-1.4c-1.6 5.1-2.7 8.8-3.3 10.8-.6 2.1-.9 3.5-.9 4.4 0 1.6.5 2.4 1.6 2.4.9 0 2.2-.8 4-2.4l2.2-2zm-2.4-28.4c-.5 1.9-1.4 3.5-2.9 4.9-1.4 1.4-3.7 3-6.7 4.6l-1.6-.5c2.5-3 4.3-5.8 5.2-8.4z"/>
    <path d="M126.8 241c-2.2 2.2-4.2 3.7-6 4.7s-3.7 1.5-5.7 1.5c-2.2 0-4.1-.7-5.5-2.2-1.4-1.4-2.2-3.3-2.2-5.5 0-3.6 1.3-7 4-10.1s5.5-4.6 8.6-4.6c1.5 0 2.8.4 3.7 1.3 1 .8 1.4 1.9 1.4 3.3 0 .5-.1.8-.3 1.1s-.5.5-1 .7l-3 1.4c-.4.2-.6.3-.8.3s-.4-.2-.4-.5c0-.1.1-.6.2-1.3.1-.8.2-1.2.2-1.4 0-.8-.2-1.4-.5-1.8s-.7-.7-1.3-.7c-1.2 0-2.4.9-3.4 2.8-1 1.8-1.6 4-1.6 6.3 0 2 .5 3.7 1.5 4.9s2.3 1.8 3.9 1.8q2.1 0 3.9-1.2c1.8-1.2 2.6-2 4.2-3.7v2.9z"/>
    <path d="M139.4 241q-6 6.3-9 6.3c-1.1 0-2-.6-2.8-1.7s-1.1-2.5-1.1-4.2c0-3.6 1.2-8.7 3.7-15.1l6.5-1.4h.3l-2.6 8c-1.1 3.3-1.6 5.7-1.6 7.1 0 .6.1 1 .4 1.4s.6.5.9.5c.7 0 1.3-.2 2-.7s1.7-1.5 3.2-3.2v3zm-.5-26.1c0 4.1-1.5 6.2-4.5 6.2-1.5 0-2.7-.4-3.8-1.3 1-1.5 1.8-3.2 2.3-5.1 1.4.8 2.4 1.3 3.3 1.3.9-.1 1.8-.4 2.7-1.1"/>
    <path d="M166.8 241c-2.5 2.4-4.3 4.1-5.6 5s-2.4 1.3-3.4 1.3c-1.2 0-2.2-.6-2.9-1.8s-1.1-2.9-1.1-5.2c-1.4 2.3-2.9 4-4.6 5.2q-2.4 1.8-4.5 1.8c-1.5 0-2.7-.7-3.8-2.1s-1.7-3-1.7-4.8c0-3.8 1.4-7.3 4.2-10.6s5.8-4.9 9-4.9c.9 0 1.6.1 2.1.4s1.1.7 1.7 1.3l3.7-15.3c3-.7 5-1.1 6.1-1.1.3 0 .5.1.5.4 0 .2-.4 2-1.3 5.3q-5.1 20.1-5.1 24.3c0 .6.1 1.2.4 1.6s.6.6 1.1.6c1.1 0 2.9-1.4 5.4-4.3v2.9zm-18.5 1.4c1.7 0 3.2-1.4 4.7-4.3 1.5-2.8 2.2-5.5 2.2-8 0-1-.2-1.8-.7-2.4s-1-.9-1.8-.9c-1.6 0-3.1 1.5-4.6 4.5s-2.2 5.6-2.2 8c0 .9.2 1.7.7 2.2.3.7.9 1 1.7.9"/>
    <path d="M173.2 247.4c-2 0-3.6-.7-4.8-2.2s-1.8-3.5-1.8-5.9c0-3.9 1.4-7.2 4.2-10s6.2-4.2 8.9-4.2 4.9 2 5.3 5 .2 6.1-2.4 11c-2.7 4.8-6.2 6.2-9.4 6.3m5.4-20.5c-1.7-.3-3 .2-4.3 2.5s-1.5 4.1-1.6 7.3c0 1.7.2 3.1.8 4.1.5 1 1.3 1.5 2.3 1.5 1.2 0 3-1.2 4.1-3.4 1.1-2.1 1.4-5.6 1.4-7.6s-.9-4.1-2.7-4.4"/>
  </g>
</svg>
