<svg xmlns="http://www.w3.org/2000/svg" xml:space="preserve" width="345" height="115" baseProfile="tiny" overflow="visible" viewBox="0 0 345 115">
  <path fill="#234" opacity="0.1" d="M123.5 90c-2.5 0-7.1-.1-10.2-.5-4.4-.7-7.8-4.2-8.2-8.7-.6-6.7-.3-13.8-6.3-20.9-4.8-5.7-7.7-13-7.7-21 0-17.9 14.5-32.4 32.4-32.4s32.4 14.5 32.4 32.4c0 8-2.9 15.3-7.7 21-5.9 7.1-5.6 14.1-6.3 20.9-.4 4.5-3.8 8-8.2 8.7-3 .4-7.6.5-10.2.5"/>
  <g fill="none" stroke="#fa3" stroke-linecap="round" stroke-linejoin="round" stroke-miterlimit="10" stroke-width="4">
    <path d="M112.3 83.6c1.1-25.5.3-36.7-5.8-39.9s-9.4 2.8-5.2 5.9c4.2 3 8.9 2.9 13.1 2.9m5.2 31.2c2.6 0 3.6.1 5.9.7 3.8 1.1 2.3 6.9-2.1 5.8s-12.1-1.7-16.1.4c-3.2 1.7-1.9 6.5 2.2 5.3 4-1.2 8.9-1.1 13.2 0 3.7.9 2.3 6.5-1.3 5.6s-6-1.1-8.9 0-2.4 4.2-.3 5.2c2.1.9 6.3.7 7.6-.2"/>
    <path d="M110.5 52.6c9.8-.2 17.8-2.4 20.1-9.2s-6.8-11.6-11-7.8c-4.5 4 .5 19.6 9.6 16.5 9-3.1 9-15.5 3.9-20.8-5.2-5.3-13.4-6.3-17.2-2.4S112.1 44 124 41"/>
    <path d="M112.3 83.6c-1.3.1-2.4.2-3.5.3s-2.1.3-2.8.4c-1.8.3-3.8.1-4.6-.9-1.1-1.4-1.9-3-2.1-4.8h0c-.5-6-.3-12.2-5.5-18.5h0c-4.3-5.1-6.9-11.6-6.9-18.7 0-15.9 12.9-28.8 28.8-28.8s28.8 12.9 28.8 28.8c0 7.1-2.6 13.7-6.9 18.7h0c-5.3 6.3-5 12.6-5.5 18.5h0c-.1 1.3-.5 2.4-1.1 3.5"/>
    <path d="M119.1 83.6c1.3.1 2.4.2 3.5.3s2.1.3 2.8.4c1.8.3 3.8.1 4.6-.9 1.1-1.4 1.9-3 2.1-4.8"/>
  </g>
  <path fill="#fff" d="M47 34.7h-6l-8.6 15.6h2zM20.5 85.8c-.5-1.2-.6-6.9-.6-16.7l.3-21.1c.2-9 .8-15.2 1.7-18.6h-1.4c-2.3 1.5-6.2 3.5-11.7 5.9v1.4c.3-.2.5-.2.6-.2.2-.2.5-.2.6-.2h.9c1.5 0 2.6.3 3 1.1.8 1.1 1.2 5.4 1.2 13.1 0 3.8 0 7.8-.2 12.5-.2 4.5-.3 8.6-.5 12.2-.2 3.5-.3 5.7-.5 6.8-.2 1.8-.8 3.3-1.7 4.2s-2.4 1.5-4.7 2v1.4c2.9-.3 5.6-.5 7.7-.2 2 0 5.9.2 11.6.6v-1.7c-1.1-.2-2.6-.5-3.9-.8-1.2-.4-2.1-1-2.4-1.7m64.4-20.2c-.9-2-2.1-3.8-3.6-5.3s-3.3-2.6-5.4-3.5c-2-.8-4.2-1.2-6.5-1.2-2.4 0-4.8.5-7.1 1.2-2.3.8-4.2 2-5.9 3.5q-2.55 2.25-3.9 5.4c-.9 2-1.4 4.4-1.4 6.9 0 3.9.9 7.4 2.7 9.8s4.2 4.2 6.9 5.4c2.7 1.1 5.4 1.7 8 1.7 3.5 0 6.5-.8 9.2-2.4 2.7-1.7 4.7-3.8 6.2-6.5 1.4-2.7 2.1-5.6 2.1-8.6 0-2.1-.4-4.4-1.3-6.4M79 81.1c-.9 2.1-2.3 3.8-3.9 4.8-1.7 1.1-3.5 1.7-5.6 1.7-2.4 0-4.5-.9-6.5-2.6-2-1.8-3.5-3.9-4.5-6.6-1.1-2.7-1.7-5.4-1.7-8.1 0-2.3.5-4.5 1.4-6.5s2.3-3.5 3.8-4.5c1.5-1.1 3.3-1.7 5.3-1.7 2.6 0 4.8.8 6.8 2.4 2.1 1.7 3.6 3.6 4.8 6.2 1.1 2.6 1.7 5.1 1.7 7.8-.1 2.8-.5 5-1.6 7.1m-33.5 6.3c-1.1 0-1.8-.2-2.1-.3-.5-.2-.6-.6-.9-1.1-.3-1.1-.5-2.9-.6-5.6-.2-2.7-.2-4.8-.2-6.3 0-2 0-4.2.2-6.8s.3-5 .5-7.2c.2-2.3.5-4.1.8-5.3-.5-.2-.8-.2-.9-.2-3.3 2.7-6.8 4.7-10.2 5.7-.5.2-.8.5-.8.9 0 .3 0 .5 2 .6 1.4.2 2.1.3 2.3.5.3.5.6 1.2.8 2.4s.2 3.9.2 8c0 .3-.2 1.7-.2 4.2-.2 2.4-.1 3.8-.3 6.5-.2 1.8-.3 2.9-.5 3.2-.3.8-1.8 1.1-4.2 1.4l-.4 1.4 17.9-.4-.5-1.2c-.8-.2-1.9-.4-2.9-.4M212.4 45.2c2.3-2.1 3.6-4.5 4.4-7.4l-9 .9c-1.4 3.9-4.1 8.1-7.8 12.6l2.4.8c4.4-2.4 7.9-4.8 10-6.9m55-3.9c-1.4 1.1-2.7 1.5-4.1 1.7-1.4 0-2.9-.8-5-2-.8 2.9-2 5.4-3.5 7.7 1.7 1.4 3.5 2 5.7 2 4.7-.1 6.9-3.3 6.9-9.4M336.8 64c-.6-4.5-3.9-7.5-8-7.5s-9.2 2.1-13.4 6.3c-4 4-6 8.6-6.3 14-3.5 3.9-6 5.8-7.6 5.8-.8 0-1.2-.3-1.7-.9s-.6-1.5-.6-2.4c0-4.2 2.6-16.4 7.7-36.5 1.4-5 2-7.7 2-8 0-.5-.3-.6-.8-.6-1.7 0-4.7.6-9.2 1.7l-5.6 23c-.9-.9-1.8-1.5-2.6-2s-1.8-.6-3.2-.6c-4.8 0-9.3 2.4-13.5 7.4-3.6 4.2-5.6 8.7-6.2 13.5V76c-2.3 2.6-3.8 4.1-4.8 4.8-1.1.8-2 1.1-3 1.1-.5 0-.9-.2-1.4-.8s-.6-1.2-.6-2.1c0-2.1.8-5.7 2.4-10.7l3.9-12h-.5l-9.8 2.1c-2.9 7.4-4.6 13.6-5.3 18.6v-.9c-2.4 2.6-3.6 3.8-6.3 5.6-1.8 1.2-3.8 1.8-5.9 1.8-2.4 0-4.4-.9-5.9-2.7s-2.3-4.4-2.3-7.4c0-3.5.9-6.8 2.4-9.5 1.5-2.9 3.3-4.2 5.1-4.2.9 0 1.5.5 2 1.1s.8 1.5.8 2.7c0 .3-.2.9-.3 2.1-.2 1.1-.3 1.8-.3 2 0 .5.3.8.6.8s.6-.2 1.2-.5l4.5-2.1c.8-.3 1.2-.6 1.5-1.1s.5-.9.5-1.7c0-2.1-.6-3.8-2.1-5-1.4-1.4-3.3-2-5.6-2-4.7 0-8.9 2.3-12.9 6.9-3.6 4.2-5.6 8.7-5.9 13.4l-2.9 2.7q-4.05 3.6-6 3.6c-1.7 0-2.4-1.2-2.4-3.6 0-1.4.5-3.5 1.4-6.6.9-3 2.6-8.6 5-16.2l-10.5 2.1-5.1 16.4c-.6 1.7-1.8 3.6-3.8 5.7-2 2.3-3.6 3.3-5 3.3-1.8 0-2.7-1.4-2.7-3.8 0-3.5 2.1-11.4 6.3-23.8L184 58.4c-2.7 7.2-4.4 13.1-5.1 18-3.1 2.9-5.4 4.9-6.8 5.9-1.5 1.1-3 1.5-4.4 1.5s-2.6-.6-3.3-2c-.8-1.2-1.2-3-1.2-5.3 0-1.1.2-2.9.3-5.6 5.1-5.6 8.9-10.8 11.3-15.8 2.4-4.8 3.6-9.9 3.6-15.2 0-1.8-.2-3.3-.8-4.4s-2-3.3-4.1-3.6c-2.3-.3-5.9.6-8.9 5.9-2.7 4.7-5.6 12.5-8 20.8-2.3 7.5-3.5 14-3.5 19.4 0 3.6.9 6.5 2.6 8.6s3.9 3.2 6.6 3.2c2.4 0 4.8-.8 7.5-2.3 2.4-1.4 5.4-3.6 8.6-6.5 0 2.8.6 4.9 1.8 6.5 1.2 1.7 2.7 2.4 4.7 2.4 2.3 0 4.4-.8 6.6-2.3 2.3-1.5 4.8-3.8 7.7-6.9 0 2.9.6 5 1.7 6.6 1.1 1.7 2.6 2.4 4.7 2.4 1.8 0 3.9-.8 6.2-2.3 2.4-1.5 5.1-3.9 8.5-7 .4 2.3 1.5 4.3 3.1 5.9 2.1 2.3 5 3.3 8.3 3.3 3 0 5.9-.8 8.6-2.3 2.6-1.4 5.4-3.6 8.6-6.6v.2c0 2.6.5 4.7 1.7 6.3 1.2 1.7 2.6 2.6 4.2 2.6 3 0 7.4-3.1 13.3-9.2.2 2.2 1.1 4.3 2.5 6.1 1.7 2.1 3.5 3.2 5.7 3.2 2.1 0 4.4-.9 6.8-2.7 2.6-1.8 4.8-4.4 6.9-7.8 0 3.5.6 6 1.7 7.8s2.6 2.7 4.4 2.7c1.5 0 3.2-.6 5.1-2 1.9-1.3 4.6-3.9 8.3-7.4.4 2.4 1.2 4.4 2.5 6.1 1.6 2.4 4 3.4 7 3.4 4.8 0 10.1-2.1 14.1-9.5 4-7.3 4.3-12 3.7-16.5M169.7 45.6c1.8-4.7 3.3-7.1 4.2-7.1.5 0 .6 0 1.1.9.3.6.5 1.4.5 2.3 0 3.2-.9 7.1-3 11.6s-4.7 8.6-8 12.2c1.7-8.6 3.5-15.2 5.2-19.9m118.9 30.6c-2.3 4.4-4.5 6.5-7.1 6.5-1.2 0-2.1-.5-2.6-1.4-.8-.8-1.1-2-1.1-3.3 0-3.6 1.1-7.5 3.3-12s4.5-6.8 6.9-6.8c1.2 0 2 .5 2.7 1.4.8.9 1.1 2.1 1.1 3.6.1 3.7-.9 7.8-3.2 12m40.5 1.2c-1.7 3.3-4.4 5.1-6.2 5.1-1.5 0-2.7-.8-3.5-2.3-.9-1.5-1.2-3.6-1.2-6.2.2-4.8.5-7.5 2.4-11 2-3.5 3.9-4.2 6.5-3.8 2.7.5 4.1 3.6 4.1 6.6s-.5 8.4-2.1 11.6"/>
</svg>
