<svg xmlns="http://www.w3.org/2000/svg" xmlns:xlink="http://www.w3.org/1999/xlink" xml:space="preserve" width="300" height="80">
	<style>
		.st0{fill:#fff}
	</style>
	<g id="texts">
		<path id="stack" d="m199 42.9-1.8-.9c-1.3-.7-2.2-1.2-2.7-1.8-.4-.4-.7-1.1-.7-1.9 0-1 .3-1.9 1-2.6s1.6-1 2.6-1c.7 0 1.3.2 2.2.7s1.7 1 2.2 1.6c.7.7 1.1 1.3 1.2 2h1l-1-5.1c-2.2-.3-3.8-.4-4.8-.4-1.6 0-3 .3-4.2 1s-2.2 1.4-2.9 2.5-1 2-1 2.9c0 1.2.3 2.1 1.1 2.9s1.8 1.4 3.1 2.1l2.2 1c1.2.7 2.3 1.3 3.3 2.2s1.4 2 1.4 3.3-.4 2.2-1.4 2.6c-.9.4-1.9.6-2.8.6-1.3 0-2.5-.3-3.6-1s-2-1.4-2.6-2.3c-.7-.9-1-1.4-1-1.9l-1-.1c.1.4.3 1.1.4 1.9.2.9.2 1.6.2 2 0 .3-.1.9-.2 1.7.2.1.7.2 1.4.4l1.6.4c.4.1.8.1 1.6.2s1.3.1 1.7.1c1.1 0 2.2-.1 3.3-.4s2.5-1 4.1-2c.6-.3 1-.9 1.3-1.7s.4-1.6.4-2.2c0-1.9-.6-3.3-1.8-4.3-.7-.8-2.2-1.7-3.8-2.5m26 9.7c-1.2.6-2.3 1-3.3 1.3s-1.8.4-2.5.4c-1.7 0-2.8-.6-3.2-1.8-.4-1.1-.7-2.7-.6-4.5l.1-9.4c0-.7 0-1.2.1-1.8 0-.6.1-.9.1-1.1.1-.2.2-.3.3-.4.2-.1.4-.1.9-.1 1.4.1 2.5.1 3.1.1h1.1c1.1 0 2.1-.1 3.2-.2l.1-1.9c-1.1 0-2.2.1-3.2.1-2 0-3.9-.1-5.6-.2l.3-5.3c-1.3 1.8-2.5 3.1-3.5 4-1 1-2.3 2-4 3 0 .3 0 .6-.1.8 1.2 0 2.2.1 3.2.2l-.1 11.6v3c0 2.1.4 3.7 1.3 4.6s2 1.3 3.3 1.3c1.4 0 3.1-.3 5-1.1s3.1-1.4 3.8-2.2v-.2c.3.1.2-.1.2-.2m18.5.3q-.3-1.35-.3-2.7c0-.7 0-1.4.1-2.6l.1-2.2c.1-2.3.1-3.7.1-4 0-1.3-.1-2.3-.2-3.2-.2-.8-.3-1.4-.6-1.8-.2-.3-.6-.8-1-1.2s-1.1-1-1.9-1.4-1.4-.7-2-.7c-.7 0-1.7.2-3.2.8-1.6.6-3 1.2-4.2 2.1s-1.9 1.8-1.9 2.8c0 .3.1.8.2 1.4l3.7-1.7c-.2-.6-.3-1-.3-1.3 0-.7.3-1.1.9-1.4.7-.3 1.2-.6 1.9-.6 1.3 0 2.5.4 3.3 1.4 1 1 1.4 2.3 1.4 4v1.2l-.1 3.7c-1.8.2-3.6.6-5.2.9-1.7.3-3.2.9-4.8 1.7-.8.3-1.2.9-1.6 1.6-.3.7-.4 1.7-.4 3 0 1.4.3 2.5.9 3.2.7.7 1.6 1.1 2.8 1.1 2 0 4.8-1 8.5-3.1.3.9.7 1.6 1.1 2.1.4.6.9.9 1.3.9.1 0 .7-.1 1.4-.4l4.3-1.8v-1.2c-1.3.6-2.3.9-3.1.9-.5-.1-1-.5-1.2-1.5m-4-.2c-2.9 1.4-4.8 2.1-5.8 2.1-.9 0-1.6-.4-2-1.2s-.8-1.7-.8-2.6c0-1.2.8-2.2 2.3-3.1 1.6-.8 3.7-1.1 6.4-1-.1 3.3-.2 5.2-.1 5.8m20.7-17c1.4 0 3.2.4 5.3 1.3.7.3 1.2.7 1.4.8.3.1.6.2.7.2.3 0 .8-.4 1.3-1.2.6-.9.8-1.3.8-1.6 0-.4-.9-1-2.7-1.6q-2.7-.9-4.2-.9c-1.7 0-3.5.6-5.5 1.7-1.9 1.1-3.6 2.7-4.9 4.8-1.3 2-2 4.3-2 6.8 0 1.2.2 2.6.6 3.8.3 1.3.8 2.3 1.4 3.1 1 1 2.3 1.9 4 2.6s3.3 1 5 1c2.8 0 5.6-1.1 8.1-3.2l-.4-.9c-1 .6-2 1.1-2.9 1.4s-1.9.6-2.9.6c-1.2 0-2.6-.3-4.1-1.1-1.4-.8-2.8-2-3.8-3.6-1-1.7-1.6-3.7-1.6-6.1 0-2.7.6-4.6 1.6-5.9 1.2-1.3 2.8-2 4.8-2M294.6 54c-1-.7-2.7-2.1-5-4.5-4.6-4.5-7.1-6.9-7.8-7.6l5.1-3.5c2-1.3 3.7-2.2 4.7-2.8 1.1-.4 2.3-.8 3.6-.9l.1-1.1c-2.3 0-3.9.1-4.9.1-2.1 0-3.3 0-4-.1l-2.8-.1v.9c.8.1 1.3.2 1.7.3.3.2.6.6.6 1 0 .7-.6 1.4-1.6 2.5-1 1-2.2 1.9-3.7 2.9-1.3.9-2.2 1.4-2.7 1.6l.1-4.1v-4c0-2.2.1-4.8.2-7.9s.2-5.6.4-7.6.3-3.3.6-4h-.9c-.3.4-.7.8-1.3 1.1s-1.4.8-2.8 1.2c-.3.1-.8.3-1.1.6-.3.2-.7.3-.9.4s-.6.2-.9.4-.6.3-.8.4l-.1 1c.2-.1.4-.2.9-.3.3-.1.8-.2 1.1-.2.7 0 1.1.4 1.4 1.3.3 1.3.6 4.3.6 8.7 0 1.7 0 4-.1 7 0 3-.1 6-.1 8.9-.1 3-.1 5.2-.3 6.8-.1.7-.2 1.2-.4 1.6s-.6.7-1 .8c-.4.2-1.1.3-2.1.4v1c2.6-.1 4.9-.2 7.1-.2 1.4 0 2.8.1 3.8.2l.1-1c-1.4-.2-2.3-.4-2.9-.6-.2-.1-.4-.3-.6-.8-.1-.3-.1-1-.2-1.8v-7.2c0-.7.2-1 .6-1q.15 0 .9.6c.75.6.8.7.9.8l2 1.8c1.3 1.2 2.8 2.8 4.5 4.3.4.4.9 1 1.6 1.8s1 1.2 1 1.4q0 .15-.3.3c-.2.1-.6.1-1.1.2-.4.1-.8.1-1 .2v.9c1.3-.1 3.1-.2 5.2-.2h3.9c.2 0 .4 0 .8.1.3 0 .6.1.9.1V55c-1 .1-2-.4-3-1" class="st0" />
		<path id="mind" d="M43.4 54.5c-.4-.1-.8-.2-.9-.3-.2-.2-.2-.6-.3-1.1 0-.6 0-1.7.1-3.1v-5.3c0-2.6-.1-4.5-.3-5.8s-.7-2.5-1.6-3.3c-.9-.9-2.2-1.3-4.2-1.3-2.7 0-5.9 1-9.6 2.9-.3-1.3-1.1-2.3-2.1-2.9q-1.5-.9-3-.9c-.7 0-1.6.1-2.6.4s-1.8.6-2.3.9L14 36c-1.1.6-1.8 1-2.2 1.2q.15-1.2 0-2.7c-.1-1-.3-1.6-.8-1.6-.1 0-.3.1-.6.2-2.2 1.3-4.5 2.2-6.6 2.8v1c1.2 0 2.1.2 2.6.4.6.2.9 1 1.2 2.1.2 1.1.4 3 .4 5.7 0 2.8-.1 4.8-.3 6.1s-.7 2.2-1.2 2.7-1.4.8-2.6 1l-.1.9 6.9-.1c.3 0 1.1 0 2.7.1 1.4.1 2.3.1 2.6.1v-1c-1.7-.2-2.7-.6-3.2-.8-.4-.3-.8-.6-.9-1-.1-.3-.1-2.2-.2-5.8v-3c0-.9 0-2 .1-3.5 0-1.3 0-2.2.1-2.6.6-.3 1.2-.7 2-1s1.6-.7 2.5-1c.9-.2 1.7-.4 2.5-.4 1.6 0 2.8.7 3.5 1.9.7 1.3 1.1 3.1 1.1 5.6l.1 2.9c0 2.6 0 4.5-.2 5.6s-.6 1.9-1.1 2.2c-.6.4-1.6.8-2.8 1l.2.9c.4 0 1.7 0 3.9-.1 2.1-.1 3.5-.1 3.8-.1h3.7v-.9c-1.2-.2-2.1-.3-2.5-.4-.3-.1-.7-.2-.8-.4s-.2-.6-.2-1.1c0-.7 0-2-.1-4.2 0-2.1-.1-4.2-.1-6.4 0-2-.1-3.5-.2-4.3 2.3-1.1 4.5-1.7 6.2-1.7 1.4 0 2.6.3 3.3 1 .8.7 1.3 1.7 1.7 2.9s.4 2.8.4 4.7c0 3.1-.1 5.2-.3 6.5s-.6 2-1 2.5c-.4.4-1.3.8-2.6 1l.2.8h11.4l.4-.8c-.1 0-.7-.1-1.7-.3-1.2 0-1.7-.1-1.8-.1m11.8-31.9c.7 0 1.2-.2 1.7-.7.4-.4.7-1 .7-1.7s-.2-1.2-.7-1.7c-.4-.4-1-.7-1.6-.7-.7 0-1.2.2-1.7.7-.4.4-.7 1-.7 1.7s.2 1.2.7 1.7c.3.5.9.7 1.6.7M58 54.7c-.7-.1-1.2-.1-1.4-.2s-.4-.3-.6-.7c-.2-.7-.3-1.9-.3-3.8-.1-1.9-.1-3.3-.1-4.2 0-1.3 0-2.9.1-4.6.1-1.8.2-3.3.3-4.9q.15-2.4.6-3.6c-.2-.1-.4-.1-.6-.1-2.2 1.9-4.6 3.1-6.9 3.9-.3.1-.6.3-.6.6 0 .1.4.3 1.3.3.9.1 1.4.2 1.4.3.2.3.4.9.6 1.7.1.8.1 2.6.1 5.5 0 .2 0 1.2-.1 2.9 0 1.7-.1 3.2-.2 4.5s-.2 2-.2 2.1c-.2.4-1.2.8-2.9.9l-.1.9 12-.3-.3-.9c-.8-.3-1.5-.3-2.1-.3m29.5-.1c-.9-.2-1.3-.3-1.6-.6s-.3-1.8-.3-4.6v-7.1q0-3-.3-4.8c-.3-1.8-.8-2.2-1.7-3.1s-2.3-1.2-4.2-1.2c-1.3 0-2.7.2-4 .8-1.4.6-3.2 1.4-5.3 2.7 0-1.3 0-2.3-.1-2.9-.1-.4-.3-.8-.7-.8-.1 0-.6.2-1.3.6-.1.1-.8.4-2.2 1.1s-2.6 1-3.5 1.2c0 .1.1.3.1.6 1.3.1 2.2.3 2.8.6s.8.8 1 1.6c.1.8.2 2.3.2 4.7 0 1.7 0 3.2-.1 4.8s-.2 2.9-.3 4c-.1.4-.2.9-.3 1.1-.1.3-.4.6-1 .8-.4.2-1.3.4-2.3.7l.1.9h6.6c1.2 0 2.3.1 3.1.1.8.1 1.4.1 1.9.1l.1-.9c-1.2-.1-2.1-.3-2.7-.4-.6-.2-.9-.4-1-.7-.1-.2-.2-.6-.3-1.1-.1-1.1-.1-3.3-.1-6.7l.2-7.9c1.8-.9 3.2-1.4 4.6-1.8 1.3-.2 2.2-.3 2.9-.3 1.4 0 2.5.4 3.1 1.2s1.1 1.8 1.2 2.9.2 2.6.2 4.3c0 1.2 0 2.8-.1 4.9s-.3 3.5-.6 4.1c-.4.8-1.6 1.3-3.3 1.7v.9q3.45-.3 6-.3c2 0 3.7.1 5.2.3l-.2-1.1zm29.2 0c-.7.2-1.2.3-1.3.3-.3 0-.7-.7-.8-2.1-.2-1.4-.3-3.6-.3-6.4v-2.9l.2-12 .1-3c.1-3.3.3-6.1.4-8.5s.3-4 .6-5l-.7-.3c-1.6 1.1-4.2 2.5-7.9 4l.1.9c.8-.2 1.4-.3 2-.3.4 0 .9.1 1.1.2.2.2.4.6.6 1 .1.6.2 1.4.3 2.8v4.1c0 2.1-.1 4.2-.2 6.5-1.3-.3-2.5-.6-3.5-.8-1-.1-1.8-.2-2.3-.2-.4 0-1.3.2-2.8.6-1.4.3-2.9 1-4.5 1.9s-2.9 2.2-4.1 4-1.8 4-1.8 6.7c0 1.9.4 3.7 1.3 5.1s2.1 2.6 3.5 3.3c1.4.8 2.9 1.1 4.3 1.1s2.8-.2 4-.7 3-1.3 5.1-2.5c0 1.6.1 2.8.2 3.7.1.8.3 1.2.7 1.2s2.9-.8 7.6-2.5v-1.1c-.5.4-1.3.7-1.9.9m-6.3-6.4v2.9c-1 .7-2 1.1-2.9 1.6-.9.4-2 .6-3.1.6-1.7 0-3.1-.4-4.5-1.2-1.3-.9-2.5-2-3.2-3.7q-1.2-2.4-1.2-5.7c0-1.4.3-2.7 1-3.9.7-1.1 1.6-2.1 2.8-2.8 1.1-.7 2.3-1 3.7-1 .1 0 .8.1 1.8.2s1.9.3 2.8.6c.8.2 1.6.4 2.2.9.7.3 1 .8 1 1.2z" class="st0" />
	</g>
	<g id="sign">
		<defs>
			<path id="SVGID_1" d="m178.4 37.6-20.5 11.6v-5.8l20.5-11.6V26l-25.6-14.5L127.2 26v29l25.6 14.5L178.4 55zm-5.1 14.5-20.5 11.6-4.1-2.3V42.8l-4.1-2.3V59l-4.1-2.3V38.1l-4.1-2.3v18.6l-4.1-2.3V28.9l20.5 11.6v17.4l20.5-11.6z" />
		</defs>
		<clipPath id="SVGID_00000061463175184349185460000006716930643596427163">
			<use xlink:href="#SVGID_1" overflow="visible" />
		</clipPath>
		<linearGradient id="SVGID_00000080194489156003321370000006259188034628757902" x1="121.372" x2="184.572" y1="41.406" y2="41.406" gradientTransform="matrix(1 0 0 -1 0 82)" gradientUnits="userSpaceOnUse">
			<stop offset="0" stop-color="#40ffc6" />
			<stop offset=".508" stop-color="#ffbf29" />
			<stop offset="1" stop-color="#d663b3" />
		</linearGradient>
		<path d="M121.4 8.9h63.2v63.4h-63.2z" clip-path="url(#SVGID_00000061463175184349185460000006716930643596427163)" fill="url(#SVGID_00000080194489156003321370000006259188034628757902)" />
		<g>
			<defs>
				<path id="SVGID_00000049198836702726764580000016132023233165201587" d="m178.4 37.6-20.5 11.6v-5.8l20.5-11.6V26l-25.6-14.5L127.2 26v29l25.6 14.5L178.4 55zm-5.1 14.5-20.5 11.6-4.1-2.3V42.8l-4.1-2.3V59l-4.1-2.3V38.1l-4.1-2.3v18.6l-4.1-2.3V28.9l20.5 11.6v17.4l20.5-11.6z" />
			</defs>
			<clipPath id="SVGID_00000036937076273985245090000007646503249688104883">
				<use xlink:href="#SVGID_00000049198836702726764580000016132023233165201587" overflow="visible" />
			</clipPath>
			<g clip-path="url(#SVGID_00000036937076273985245090000007646503249688104883)">
				<defs>
					<path id="SVGID_00000067927637012692808160000004553850188981514938" d="m178.4 37.6-20.5 11.6v-5.8l20.5-11.6V26l-25.6-14.5L127.2 26v29l25.6 14.5L178.4 55zm-5.1 14.5-20.5 11.6-4.1-2.3V42.8l-4.1-2.3V59l-4.1-2.3V38.1l-4.1-2.3v18.6l-4.1-2.3V28.9l20.5 11.6v17.4l20.5-11.6z" />
				</defs>
				<clipPath id="SVGID_00000055706513628104544670000011376430759264169611">
					<use xlink:href="#SVGID_00000067927637012692808160000004553850188981514938" overflow="visible" />
				</clipPath>
				<defs>
					<path id="SVGID_00000095325964442218218990000002484255648807016328" d="m178.4 37.6-20.5 11.6v-5.8l20.5-11.6V26l-25.6-14.5L127.2 26v29l25.6 14.5L178.4 55zm-5.1 14.5-20.5 11.6-4.1-2.3V42.8l-4.1-2.3V59l-4.1-2.3V38.1l-4.1-2.3v18.6l-4.1-2.3V28.9l20.5 11.6v17.4l20.5-11.6z" />
				</defs>
				<clipPath id="SVGID_00000072970595819329030100000004786606454842145946">
					<use xlink:href="#SVGID_00000095325964442218218990000002484255648807016328" overflow="visible" />
				</clipPath>
				<defs>
					<path id="SVGID_00000152972269492345769300000004355248252250865558" d="m178.4 37.6-20.5 11.6v-5.8l20.5-11.6V26l-25.6-14.5L127.2 26v29l25.6 14.5L178.4 55zm-5.1 14.5-20.5 11.6-4.1-2.3V42.8l-4.1-2.3V59l-4.1-2.3V38.1l-4.1-2.3v18.6l-4.1-2.3V28.9l20.5 11.6v17.4l20.5-11.6z" />
				</defs>
				<clipPath id="SVGID_00000114037346759315078700000005899382203433955487">
					<use xlink:href="#SVGID_00000152972269492345769300000004355248252250865558" overflow="visible" />
				</clipPath>
				<defs>
					<path id="SVGID_00000114772558781473406500000010845281077050270121" d="m178.4 37.6-20.5 11.6v-5.8l20.5-11.6V26l-25.6-14.5L127.2 26v29l25.6 14.5L178.4 55zm-5.1 14.5-20.5 11.6-4.1-2.3V42.8l-4.1-2.3V59l-4.1-2.3V38.1l-4.1-2.3v18.6l-4.1-2.3V28.9l20.5 11.6v17.4l20.5-11.6z" />
				</defs>
				<clipPath id="SVGID_00000180331980617329277030000014573099537563813003">
					<use xlink:href="#SVGID_00000114772558781473406500000010845281077050270121" overflow="visible" />
				</clipPath>
				<defs>
					<path id="SVGID_00000157993522962590378420000008634194834781088655" d="m178.4 37.6-20.5 11.6v-5.8l20.5-11.6V26l-25.6-14.5L127.2 26v29l25.6 14.5L178.4 55zm-5.1 14.5-20.5 11.6-4.1-2.3V42.8l-4.1-2.3V59l-4.1-2.3V38.1l-4.1-2.3v18.6l-4.1-2.3V28.9l20.5 11.6v17.4l20.5-11.6z" />
				</defs>
				<clipPath id="SVGID_00000009575526210047299710000015334475569372998022">
					<use xlink:href="#SVGID_00000157993522962590378420000008634194834781088655" overflow="visible" />
				</clipPath>
				<defs>
					<path id="SVGID_00000071534070014851252330000005590878650572127634" d="m178.4 37.6-20.5 11.6v-5.8l20.5-11.6V26l-25.6-14.5L127.2 26v29l25.6 14.5L178.4 55zm-5.1 14.5-20.5 11.6-4.1-2.3V42.8l-4.1-2.3V59l-4.1-2.3V38.1l-4.1-2.3v18.6l-4.1-2.3V28.9l20.5 11.6v17.4l20.5-11.6z" />
				</defs>
				<clipPath id="SVGID_00000120560195909794178030000014416522848987270530">
					<use xlink:href="#SVGID_00000071534070014851252330000005590878650572127634" overflow="visible" />
				</clipPath>
				<defs>
					<path id="SVGID_00000087410596774607276820000005778236740488378039" d="m178.4 37.6-20.5 11.6v-5.8l20.5-11.6V26l-25.6-14.5L127.2 26v29l25.6 14.5L178.4 55zm-5.1 14.5-20.5 11.6-4.1-2.3V42.8l-4.1-2.3V59l-4.1-2.3V38.1l-4.1-2.3v18.6l-4.1-2.3V28.9l20.5 11.6v17.4l20.5-11.6z" />
				</defs>
				<clipPath id="SVGID_00000054968607923568599830000012238476026023770008">
					<use xlink:href="#SVGID_00000087410596774607276820000005778236740488378039" overflow="visible" />
				</clipPath>
				<defs>
					<path id="SVGID_00000152952331561273777870000014031460887870729376" d="m178.4 37.6-20.5 11.6v-5.8l20.5-11.6V26l-25.6-14.5L127.2 26v29l25.6 14.5L178.4 55zm-5.1 14.5-20.5 11.6-4.1-2.3V42.8l-4.1-2.3V59l-4.1-2.3V38.1l-4.1-2.3v18.6l-4.1-2.3V28.9l20.5 11.6v17.4l20.5-11.6z" />
				</defs>
				<clipPath id="SVGID_00000154425555778512657030000002019472400137653156">
					<use xlink:href="#SVGID_00000152952331561273777870000014031460887870729376" overflow="visible" />
				</clipPath>
				<defs>
					<path id="SVGID_00000047740088473765340530000014618352587544161458" d="m178.4 37.6-20.5 11.6v-5.8l20.5-11.6V26l-25.6-14.5L127.2 26v29l25.6 14.5L178.4 55zm-5.1 14.5-20.5 11.6-4.1-2.3V42.8l-4.1-2.3V59l-4.1-2.3V38.1l-4.1-2.3v18.6l-4.1-2.3V28.9l20.5 11.6v17.4l20.5-11.6z" />
				</defs>
				<clipPath id="SVGID_00000030449181290597079310000015916542135729740186">
					<use xlink:href="#SVGID_00000047740088473765340530000014618352587544161458" overflow="visible" />
				</clipPath>
				<defs>
					<path id="SVGID_00000160164419173841532700000000943307417090536064" d="m178.4 37.6-20.5 11.6v-5.8l20.5-11.6V26l-25.6-14.5L127.2 26v29l25.6 14.5L178.4 55zm-5.1 14.5-20.5 11.6-4.1-2.3V42.8l-4.1-2.3V59l-4.1-2.3V38.1l-4.1-2.3v18.6l-4.1-2.3V28.9l20.5 11.6v17.4l20.5-11.6z" />
				</defs>
				<clipPath id="SVGID_00000031167253399153090420000004141010725499738281">
					<use xlink:href="#SVGID_00000160164419173841532700000000943307417090536064" overflow="visible" />
				</clipPath>
				<defs>
					<path id="SVGID_00000131344041315115868350000000148370116455303060" d="m178.4 37.6-20.5 11.6v-5.8l20.5-11.6V26l-25.6-14.5L127.2 26v29l25.6 14.5L178.4 55zm-5.1 14.5-20.5 11.6-4.1-2.3V42.8l-4.1-2.3V59l-4.1-2.3V38.1l-4.1-2.3v18.6l-4.1-2.3V28.9l20.5 11.6v17.4l20.5-11.6z" />
				</defs>
				<clipPath id="SVGID_00000021828299728751860320000000292550413640055727">
					<use xlink:href="#SVGID_00000131344041315115868350000000148370116455303060" overflow="visible" />
				</clipPath>
				<defs>
					<path id="SVGID_00000016787718555566951890000002124810728494066092" d="m178.4 37.6-20.5 11.6v-5.8l20.5-11.6V26l-25.6-14.5L127.2 26v29l25.6 14.5L178.4 55zm-5.1 14.5-20.5 11.6-4.1-2.3V42.8l-4.1-2.3V59l-4.1-2.3V38.1l-4.1-2.3v18.6l-4.1-2.3V28.9l20.5 11.6v17.4l20.5-11.6z" />
				</defs>
				<clipPath id="SVGID_00000051376495235886332690000009556038905424334775">
					<use xlink:href="#SVGID_00000016787718555566951890000002124810728494066092" overflow="visible" />
				</clipPath>
				<defs>
					<path id="SVGID_00000168087450027543149250000016051552651944840068" d="m178.4 37.6-20.5 11.6v-5.8l20.5-11.6V26l-25.6-14.5L127.2 26v29l25.6 14.5L178.4 55zm-5.1 14.5-20.5 11.6-4.1-2.3V42.8l-4.1-2.3V59l-4.1-2.3V38.1l-4.1-2.3v18.6l-4.1-2.3V28.9l20.5 11.6v17.4l20.5-11.6z" />
				</defs>
				<clipPath id="SVGID_00000002347367087374729280000010274063888015888036">
					<use xlink:href="#SVGID_00000168087450027543149250000016051552651944840068" overflow="visible" />
				</clipPath>
				<defs>
					<path id="SVGID_00000006689921532102232740000008966140080307782305" d="m178.4 37.6-20.5 11.6v-5.8l20.5-11.6V26l-25.6-14.5L127.2 26v29l25.6 14.5L178.4 55zm-5.1 14.5-20.5 11.6-4.1-2.3V42.8l-4.1-2.3V59l-4.1-2.3V38.1l-4.1-2.3v18.6l-4.1-2.3V28.9l20.5 11.6v17.4l20.5-11.6z" />
				</defs>
				<clipPath id="SVGID_00000001656439425521021310000016337399029211201713">
					<use xlink:href="#SVGID_00000006689921532102232740000008966140080307782305" overflow="visible" />
				</clipPath>
				<defs>
					<path id="SVGID_00000070803966271454696590000005902851710771532209" d="m178.4 37.6-20.5 11.6v-5.8l20.5-11.6V26l-25.6-14.5L127.2 26v29l25.6 14.5L178.4 55zm-5.1 14.5-20.5 11.6-4.1-2.3V42.8l-4.1-2.3V59l-4.1-2.3V38.1l-4.1-2.3v18.6l-4.1-2.3V28.9l20.5 11.6v17.4l20.5-11.6z" />
				</defs>
				<clipPath id="SVGID_00000175296006267584387880000004136712295311847088">
					<use xlink:href="#SVGID_00000070803966271454696590000005902851710771532209" overflow="visible" />
				</clipPath>
				<defs>
					<path id="SVGID_00000132774436883164131730000016096923616601645236" d="m178.4 37.6-20.5 11.6v-5.8l20.5-11.6V26l-25.6-14.5L127.2 26v29l25.6 14.5L178.4 55zm-5.1 14.5-20.5 11.6-4.1-2.3V42.8l-4.1-2.3V59l-4.1-2.3V38.1l-4.1-2.3v18.6l-4.1-2.3V28.9l20.5 11.6v17.4l20.5-11.6z" />
				</defs>
				<clipPath id="SVGID_00000003821399318130702800000009320254513113150627">
					<use xlink:href="#SVGID_00000132774436883164131730000016096923616601645236" overflow="visible" />
				</clipPath>
				<defs>
					<path id="SVGID_00000114796710657341204050000000617299538381859512" d="m178.4 37.6-20.5 11.6v-5.8l20.5-11.6V26l-25.6-14.5L127.2 26v29l25.6 14.5L178.4 55zm-5.1 14.5-20.5 11.6-4.1-2.3V42.8l-4.1-2.3V59l-4.1-2.3V38.1l-4.1-2.3v18.6l-4.1-2.3V28.9l20.5 11.6v17.4l20.5-11.6z" />
				</defs>
				<clipPath id="SVGID_00000003790902278942138180000006879531146207428002">
					<use xlink:href="#SVGID_00000114796710657341204050000000617299538381859512" overflow="visible" />
				</clipPath>
				<defs>
					<path id="SVGID_00000139991043100542944730000009238656907147672462" d="m178.4 37.6-20.5 11.6v-5.8l20.5-11.6V26l-25.6-14.5L127.2 26v29l25.6 14.5L178.4 55zm-5.1 14.5-20.5 11.6-4.1-2.3V42.8l-4.1-2.3V59l-4.1-2.3V38.1l-4.1-2.3v18.6l-4.1-2.3V28.9l20.5 11.6v17.4l20.5-11.6z" />
				</defs>
				<clipPath id="SVGID_00000138563173847724637990000018136148296681400963">
					<use xlink:href="#SVGID_00000139991043100542944730000009238656907147672462" overflow="visible" />
				</clipPath>
				<defs>
					<path id="SVGID_00000062172221201934900920000010046845972586966412" d="m178.4 37.6-20.5 11.6v-5.8l20.5-11.6V26l-25.6-14.5L127.2 26v29l25.6 14.5L178.4 55zm-5.1 14.5-20.5 11.6-4.1-2.3V42.8l-4.1-2.3V59l-4.1-2.3V38.1l-4.1-2.3v18.6l-4.1-2.3V28.9l20.5 11.6v17.4l20.5-11.6z" />
				</defs>
				<clipPath id="SVGID_00000092440550201617422200000018102995567738010243">
					<use xlink:href="#SVGID_00000062172221201934900920000010046845972586966412" overflow="visible" />
				</clipPath>
				<defs>
					<path id="SVGID_00000133493698660795837260000014895945752567217843" d="m178.4 37.6-20.5 11.6v-5.8l20.5-11.6V26l-25.6-14.5L127.2 26v29l25.6 14.5L178.4 55zm-5.1 14.5-20.5 11.6-4.1-2.3V42.8l-4.1-2.3V59l-4.1-2.3V38.1l-4.1-2.3v18.6l-4.1-2.3V28.9l20.5 11.6v17.4l20.5-11.6z" />
				</defs>
				<clipPath id="SVGID_00000052094285869281353380000008960310954926629804">
					<use xlink:href="#SVGID_00000133493698660795837260000014895945752567217843" overflow="visible" />
				</clipPath>
				<defs>
					<path id="SVGID_00000119826976341206180420000017546415661031411594" d="m178.4 37.6-20.5 11.6v-5.8l20.5-11.6V26l-25.6-14.5L127.2 26v29l25.6 14.5L178.4 55zm-5.1 14.5-20.5 11.6-4.1-2.3V42.8l-4.1-2.3V59l-4.1-2.3V38.1l-4.1-2.3v18.6l-4.1-2.3V28.9l20.5 11.6v17.4l20.5-11.6z" />
				</defs>
				<clipPath id="SVGID_00000055693375266685749040000003761628434667874750">
					<use xlink:href="#SVGID_00000119826976341206180420000017546415661031411594" overflow="visible" />
				</clipPath>
				<defs>
					<path id="SVGID_00000021089122259003655500000012279064129047197865" d="m178.4 37.6-20.5 11.6v-5.8l20.5-11.6V26l-25.6-14.5L127.2 26v29l25.6 14.5L178.4 55zm-5.1 14.5-20.5 11.6-4.1-2.3V42.8l-4.1-2.3V59l-4.1-2.3V38.1l-4.1-2.3v18.6l-4.1-2.3V28.9l20.5 11.6v17.4l20.5-11.6z" />
				</defs>
				<clipPath id="SVGID_00000083787256482505517240000017232896583573696915">
					<use xlink:href="#SVGID_00000021089122259003655500000012279064129047197865" overflow="visible" />
				</clipPath>
				<defs>
					<path id="SVGID_00000022560682775607309720000016606534728461457048" d="m178.4 37.6-20.5 11.6v-5.8l20.5-11.6V26l-25.6-14.5L127.2 26v29l25.6 14.5L178.4 55zm-5.1 14.5-20.5 11.6-4.1-2.3V42.8l-4.1-2.3V59l-4.1-2.3V38.1l-4.1-2.3v18.6l-4.1-2.3V28.9l20.5 11.6v17.4l20.5-11.6z" />
				</defs>
				<clipPath id="SVGID_00000086650612282119769980000016414610203580035230">
					<use xlink:href="#SVGID_00000022560682775607309720000016606534728461457048" overflow="visible" />
				</clipPath>
				<defs>
					<path id="SVGID_00000040550288916450911300000004381798318180365201" d="m178.4 37.6-20.5 11.6v-5.8l20.5-11.6V26l-25.6-14.5L127.2 26v29l25.6 14.5L178.4 55zm-5.1 14.5-20.5 11.6-4.1-2.3V42.8l-4.1-2.3V59l-4.1-2.3V38.1l-4.1-2.3v18.6l-4.1-2.3V28.9l20.5 11.6v17.4l20.5-11.6z" />
				</defs>
				<clipPath id="SVGID_00000146473667605107273070000000173199709102393242">
					<use xlink:href="#SVGID_00000040550288916450911300000004381798318180365201" overflow="visible" />
				</clipPath>
				<defs>
					<path id="SVGID_00000124119452028887205660000016356278552941619845" d="m178.4 37.6-20.5 11.6v-5.8l20.5-11.6V26l-25.6-14.5L127.2 26v29l25.6 14.5L178.4 55zm-5.1 14.5-20.5 11.6-4.1-2.3V42.8l-4.1-2.3V59l-4.1-2.3V38.1l-4.1-2.3v18.6l-4.1-2.3V28.9l20.5 11.6v17.4l20.5-11.6z" />
				</defs>
				<clipPath id="SVGID_00000160881837342111491430000014661341447924200886">
					<use xlink:href="#SVGID_00000124119452028887205660000016356278552941619845" overflow="visible" />
				</clipPath>
				<defs>
					<path id="SVGID_00000103983666153468467100000011849848684260721076" d="m178.4 37.6-20.5 11.6v-5.8l20.5-11.6V26l-25.6-14.5L127.2 26v29l25.6 14.5L178.4 55zm-5.1 14.5-20.5 11.6-4.1-2.3V42.8l-4.1-2.3V59l-4.1-2.3V38.1l-4.1-2.3v18.6l-4.1-2.3V28.9l20.5 11.6v17.4l20.5-11.6z" />
				</defs>
				<clipPath id="SVGID_00000166670049581987030670000001009084776952152239">
					<use xlink:href="#SVGID_00000103983666153468467100000011849848684260721076" overflow="visible" />
				</clipPath>
				<defs>
					<path id="SVGID_00000013161553920713376210000000179206160428533655" d="m178.4 37.6-20.5 11.6v-5.8l20.5-11.6V26l-25.6-14.5L127.2 26v29l25.6 14.5L178.4 55zm-5.1 14.5-20.5 11.6-4.1-2.3V42.8l-4.1-2.3V59l-4.1-2.3V38.1l-4.1-2.3v18.6l-4.1-2.3V28.9l20.5 11.6v17.4l20.5-11.6z" />
				</defs>
				<clipPath id="SVGID_00000024719175066657659710000007739001133884667564">
					<use xlink:href="#SVGID_00000013161553920713376210000000179206160428533655" overflow="visible" />
				</clipPath>
				<defs>
					<path id="SVGID_00000141413363563739979160000009300645462338742943" d="m178.4 37.6-20.5 11.6v-5.8l20.5-11.6V26l-25.6-14.5L127.2 26v29l25.6 14.5L178.4 55zm-5.1 14.5-20.5 11.6-4.1-2.3V42.8l-4.1-2.3V59l-4.1-2.3V38.1l-4.1-2.3v18.6l-4.1-2.3V28.9l20.5 11.6v17.4l20.5-11.6z" />
				</defs>
				<clipPath id="SVGID_00000176724682788467148480000016151359779464237446">
					<use xlink:href="#SVGID_00000141413363563739979160000009300645462338742943" overflow="visible" />
				</clipPath>
				<defs>
					<path id="SVGID_00000123425273675105147790000012103088254660353159" d="m178.4 37.6-20.5 11.6v-5.8l20.5-11.6V26l-25.6-14.5L127.2 26v29l25.6 14.5L178.4 55zm-5.1 14.5-20.5 11.6-4.1-2.3V42.8l-4.1-2.3V59l-4.1-2.3V38.1l-4.1-2.3v18.6l-4.1-2.3V28.9l20.5 11.6v17.4l20.5-11.6z" />
				</defs>
				<clipPath id="SVGID_00000031914338897824392590000010604038981228234129">
					<use xlink:href="#SVGID_00000123425273675105147790000012103088254660353159" overflow="visible" />
				</clipPath>
				<defs>
					<path id="SVGID_00000036960175523142815640000016552539919902696628" d="m178.4 37.6-20.5 11.6v-5.8l20.5-11.6V26l-25.6-14.5L127.2 26v29l25.6 14.5L178.4 55zm-5.1 14.5-20.5 11.6-4.1-2.3V42.8l-4.1-2.3V59l-4.1-2.3V38.1l-4.1-2.3v18.6l-4.1-2.3V28.9l20.5 11.6v17.4l20.5-11.6z" />
				</defs>
				<clipPath id="SVGID_00000129201084863012365420000007417640230845780405">
					<use xlink:href="#SVGID_00000036960175523142815640000016552539919902696628" overflow="visible" />
				</clipPath>
				<defs>
					<path id="SVGID_00000010280201861183682380000016630180495432181416" d="m178.4 37.6-20.5 11.6v-5.8l20.5-11.6V26l-25.6-14.5L127.2 26v29l25.6 14.5L178.4 55zm-5.1 14.5-20.5 11.6-4.1-2.3V42.8l-4.1-2.3V59l-4.1-2.3V38.1l-4.1-2.3v18.6l-4.1-2.3V28.9l20.5 11.6v17.4l20.5-11.6z" />
				</defs>
				<clipPath id="SVGID_00000183935810718017478840000017627094323268049062">
					<use xlink:href="#SVGID_00000010280201861183682380000016630180495432181416" overflow="visible" />
				</clipPath>
				<defs>
					<path id="SVGID_00000143579853553533907650000015890054673851097507" d="m178.4 37.6-20.5 11.6v-5.8l20.5-11.6V26l-25.6-14.5L127.2 26v29l25.6 14.5L178.4 55zm-5.1 14.5-20.5 11.6-4.1-2.3V42.8l-4.1-2.3V59l-4.1-2.3V38.1l-4.1-2.3v18.6l-4.1-2.3V28.9l20.5 11.6v17.4l20.5-11.6z" />
				</defs>
				<clipPath id="SVGID_00000049901275519649303820000016318719276979083412">
					<use xlink:href="#SVGID_00000143579853553533907650000015890054673851097507" overflow="visible" />
				</clipPath>
				<defs>
					<path id="SVGID_00000150798137548690316000000004406869601495159737" d="m178.4 37.6-20.5 11.6v-5.8l20.5-11.6V26l-25.6-14.5L127.2 26v29l25.6 14.5L178.4 55zm-5.1 14.5-20.5 11.6-4.1-2.3V42.8l-4.1-2.3V59l-4.1-2.3V38.1l-4.1-2.3v18.6l-4.1-2.3V28.9l20.5 11.6v17.4l20.5-11.6z" />
				</defs>
				<clipPath id="SVGID_00000019676502646950646160000018130539346700618119">
					<use xlink:href="#SVGID_00000150798137548690316000000004406869601495159737" overflow="visible" />
				</clipPath>
				<defs>
					<path id="SVGID_00000072960474289711836340000007025657962399280539" d="m178.4 37.6-20.5 11.6v-5.8l20.5-11.6V26l-25.6-14.5L127.2 26v29l25.6 14.5L178.4 55zm-5.1 14.5-20.5 11.6-4.1-2.3V42.8l-4.1-2.3V59l-4.1-2.3V38.1l-4.1-2.3v18.6l-4.1-2.3V28.9l20.5 11.6v17.4l20.5-11.6z" />
				</defs>
				<clipPath id="SVGID_00000051342422848197192320000012275086046060821159">
					<use xlink:href="#SVGID_00000072960474289711836340000007025657962399280539" overflow="visible" />
				</clipPath>
				<defs>
					<path id="SVGID_00000155864327319433370380000005385020041975825048" d="m178.4 37.6-20.5 11.6v-5.8l20.5-11.6V26l-25.6-14.5L127.2 26v29l25.6 14.5L178.4 55zm-5.1 14.5-20.5 11.6-4.1-2.3V42.8l-4.1-2.3V59l-4.1-2.3V38.1l-4.1-2.3v18.6l-4.1-2.3V28.9l20.5 11.6v17.4l20.5-11.6z" />
				</defs>
				<clipPath id="SVGID_00000106114893310988034360000018310340170206334143">
					<use xlink:href="#SVGID_00000155864327319433370380000005385020041975825048" overflow="visible" />
				</clipPath>
				<defs>
					<path id="SVGID_00000101104233827311705740000006248281634643844764" d="m178.4 37.6-20.5 11.6v-5.8l20.5-11.6V26l-25.6-14.5L127.2 26v29l25.6 14.5L178.4 55zm-5.1 14.5-20.5 11.6-4.1-2.3V42.8l-4.1-2.3V59l-4.1-2.3V38.1l-4.1-2.3v18.6l-4.1-2.3V28.9l20.5 11.6v17.4l20.5-11.6z" />
				</defs>
				<clipPath id="SVGID_00000011717089750818188340000006441453749195470010">
					<use xlink:href="#SVGID_00000101104233827311705740000006248281634643844764" overflow="visible" />
				</clipPath>
				<defs>
					<path id="SVGID_00000163065843916524912700000017493147861723949981" d="m178.4 37.6-20.5 11.6v-5.8l20.5-11.6V26l-25.6-14.5L127.2 26v29l25.6 14.5L178.4 55zm-5.1 14.5-20.5 11.6-4.1-2.3V42.8l-4.1-2.3V59l-4.1-2.3V38.1l-4.1-2.3v18.6l-4.1-2.3V28.9l20.5 11.6v17.4l20.5-11.6z" />
				</defs>
				<clipPath id="SVGID_00000034802100809370830920000000200224388786037376">
					<use xlink:href="#SVGID_00000163065843916524912700000017493147861723949981" overflow="visible" />
				</clipPath>
				<defs>
					<path id="SVGID_00000103260971184863357930000009610829986153923977" d="m178.4 37.6-20.5 11.6v-5.8l20.5-11.6V26l-25.6-14.5L127.2 26v29l25.6 14.5L178.4 55zm-5.1 14.5-20.5 11.6-4.1-2.3V42.8l-4.1-2.3V59l-4.1-2.3V38.1l-4.1-2.3v18.6l-4.1-2.3V28.9l20.5 11.6v17.4l20.5-11.6z" />
				</defs>
				<clipPath id="SVGID_00000137815035938119574460000005363091185933706118">
					<use xlink:href="#SVGID_00000103260971184863357930000009610829986153923977" overflow="visible" />
				</clipPath>
				<defs>
					<path id="SVGID_00000119825519886671614690000013639304099161219972" d="m178.4 37.6-20.5 11.6v-5.8l20.5-11.6V26l-25.6-14.5L127.2 26v29l25.6 14.5L178.4 55zm-5.1 14.5-20.5 11.6-4.1-2.3V42.8l-4.1-2.3V59l-4.1-2.3V38.1l-4.1-2.3v18.6l-4.1-2.3V28.9l20.5 11.6v17.4l20.5-11.6z" />
				</defs>
				<clipPath id="SVGID_00000088842541997310056950000013542853406697040279">
					<use xlink:href="#SVGID_00000119825519886671614690000013639304099161219972" overflow="visible" />
				</clipPath>
				<defs>
					<path id="SVGID_00000061437516716525760630000011560004397288580028" d="m178.4 37.6-20.5 11.6v-5.8l20.5-11.6V26l-25.6-14.5L127.2 26v29l25.6 14.5L178.4 55zm-5.1 14.5-20.5 11.6-4.1-2.3V42.8l-4.1-2.3V59l-4.1-2.3V38.1l-4.1-2.3v18.6l-4.1-2.3V28.9l20.5 11.6v17.4l20.5-11.6z" />
				</defs>
				<clipPath id="SVGID_00000163050599423056818190000011235898371794153406">
					<use xlink:href="#SVGID_00000061437516716525760630000011560004397288580028" overflow="visible" />
				</clipPath>
				<defs>
					<path id="SVGID_00000139284620795035168780000003451832797231970219" d="m178.4 37.6-20.5 11.6v-5.8l20.5-11.6V26l-25.6-14.5L127.2 26v29l25.6 14.5L178.4 55zm-5.1 14.5-20.5 11.6-4.1-2.3V42.8l-4.1-2.3V59l-4.1-2.3V38.1l-4.1-2.3v18.6l-4.1-2.3V28.9l20.5 11.6v17.4l20.5-11.6z" />
				</defs>
				<clipPath id="SVGID_00000133510785335625682550000007572496664602834073">
					<use xlink:href="#SVGID_00000139284620795035168780000003451832797231970219" overflow="visible" />
				</clipPath>
				<defs>
					<path id="SVGID_00000087410165438685327240000002203877230094491777" d="m178.4 37.6-20.5 11.6v-5.8l20.5-11.6V26l-25.6-14.5L127.2 26v29l25.6 14.5L178.4 55zm-5.1 14.5-20.5 11.6-4.1-2.3V42.8l-4.1-2.3V59l-4.1-2.3V38.1l-4.1-2.3v18.6l-4.1-2.3V28.9l20.5 11.6v17.4l20.5-11.6z" />
				</defs>
				<clipPath id="SVGID_00000023246505891196544170000006390151242368751517">
					<use xlink:href="#SVGID_00000087410165438685327240000002203877230094491777" overflow="visible" />
				</clipPath>
				<defs>
					<path id="SVGID_00000054257747064367829860000011228025426080531843" d="m178.4 37.6-20.5 11.6v-5.8l20.5-11.6V26l-25.6-14.5L127.2 26v29l25.6 14.5L178.4 55zm-5.1 14.5-20.5 11.6-4.1-2.3V42.8l-4.1-2.3V59l-4.1-2.3V38.1l-4.1-2.3v18.6l-4.1-2.3V28.9l20.5 11.6v17.4l20.5-11.6z" />
				</defs>
				<clipPath id="SVGID_00000136408179451667320830000010031750927225287563">
					<use xlink:href="#SVGID_00000054257747064367829860000011228025426080531843" overflow="visible" />
				</clipPath>
				<defs>
					<path id="SVGID_00000012471643641350279230000004967670773088713644" d="m178.4 37.6-20.5 11.6v-5.8l20.5-11.6V26l-25.6-14.5L127.2 26v29l25.6 14.5L178.4 55zm-5.1 14.5-20.5 11.6-4.1-2.3V42.8l-4.1-2.3V59l-4.1-2.3V38.1l-4.1-2.3v18.6l-4.1-2.3V28.9l20.5 11.6v17.4l20.5-11.6z" />
				</defs>
				<clipPath id="SVGID_00000010274776049320740480000014515870027800972936">
					<use xlink:href="#SVGID_00000012471643641350279230000004967670773088713644" overflow="visible" />
				</clipPath>
				<defs>
					<path id="SVGID_00000078021944437478279900000015959576343017930655" d="m178.4 37.6-20.5 11.6v-5.8l20.5-11.6V26l-25.6-14.5L127.2 26v29l25.6 14.5L178.4 55zm-5.1 14.5-20.5 11.6-4.1-2.3V42.8l-4.1-2.3V59l-4.1-2.3V38.1l-4.1-2.3v18.6l-4.1-2.3V28.9l20.5 11.6v17.4l20.5-11.6z" />
				</defs>
				<clipPath id="SVGID_00000127745896463616015230000011206860797072040126">
					<use xlink:href="#SVGID_00000078021944437478279900000015959576343017930655" overflow="visible" />
				</clipPath>
				<path d="M212.7-3.9c-8.8 7.8-18 15.2-26.9 22.9-4.6 3.5-9.5 6.6-14 10.3-3.7 3-7 6.5-10.3 10-6.2 4.9-15.6 4.1-23.1 4.4-5.2.2-12.9-.4-17.3 2.6-6.7 5.3-4.1 18-6.8 25.6-.7 2.4-2.2 4.5-4.3 5.7-2.4 1.7-5 3-7.6 4.3-6.3 2.8-12.8 5.1-18.5 9.1l.3 1.4c5.7-4.2 12.4-6.8 18.6-10 3.4-1.9 7.1-3.6 9.8-6.5 3.2-4.2 3.3-9.7 4.1-14.7.8-5.2 1.8-11.9 7.5-14 3.8-1.2 7.9-1.1 11.9-1.2 6.4 0 13 .3 19.3-.8 3.1-.6 6.3-1.6 8.6-3.8 3.2-3.7 6.4-7.4 9.7-11 4.2-4.6 8.8-8.9 13.6-12.8C196 10.4 206.2 5.2 215-2l2.3 1.9c-8.2 6.1-18 9.5-26.5 15-10.9 7.2-16.4 19.7-24.9 29.3-7.7 6.7-24 3.7-33.7 4.3-6.4.1-11 1.5-13.2 8-2.1 5.6-2 11.9-4.4 17.4-1 2.5-3.1 4.2-5.2 5.7-2.4 1.7-4.9 3.1-7.5 4.5-5.9 3.2-12 5.9-17.3 9.9l.3 1.5c6.3-4.9 13.6-8.2 20.4-12.4 5.8-3.7 9.4-5.7 11.2-12.8 1.7-5.5 2-11.9 6.1-16.3 3.9-4.1 10-3.2 15.1-3.2 5.7.2 11.5.6 17.2.3 4.3-.3 9-1 12.5-3.8 1.7-1.7 3.1-3.8 4.4-5.8 5.7-8.4 9-18.8 17-25.4 9.5-6.3 21.4-7.8 30.8-14.2l2.3 1.9c-9.8 6.2-22.3 5.7-32.3 11.7-6.4 4.5-9.6 15.4-13.1 22.5-1.9 4-4 7.9-6.8 11.4-1.8 1.5-4 2.4-6.3 3-7.6 1.8-15.6.9-23.3.5-4.2-.1-8.6-.8-12.7.5-7.4 2.6-8.2 11.5-10.6 17.9-1.3 4.3-3.4 6.9-7.1 9.4-7.8 5.9-16.8 9.9-24.5 16l.3 1.5c7.9-6.3 17-11 24.9-17.2 3.8-2.6 5.7-5.7 7.2-10 2.8-8.2 5.1-16.6 15.5-16.5 11.3 0 24.7 3.3 35.4-1.1 6.2-2.2 10-15.5 12.2-21.4 2.2-6 4.1-12.7 9-17.1 10.6-6.2 24-3.7 34.6-9.8l2.3 1.7c-4.9 2.8-10.7 3.1-16.2 3.7-6.6.6-13.6.6-19.6 3.9-3.1 2.3-4.7 6.5-6.1 10-3.2 8-5.6 25.3-12.6 30.2-9.4 5.4-23.9 2.4-34.4 1.8-10.6-1.2-15 3.3-18.4 12.8-1.7 4.5-3.7 9.2-7.9 12C103.3 87.8 94.1 93 86 99.6l.4 1.6c8.5-7 17.9-12.8 26.3-19.9 10.2-7.8 5.9-25.4 26.1-23.1 10.7.8 25.5 3.7 35.1-1.8 7.6-5.3 8.9-24.7 12.3-33.5 1.1-3 2.5-6 4.7-8.4 2.1-1.3 4.5-2 6.9-2.5 9.9-1.9 22 .9 31-3.7l2 1.5c-8.8 4.6-21.9.9-31.8 2.4-7.7 1-9.2 3.6-11.7 10.6-3.4 9.2-3.8 29.7-11.8 35.2-9.9 5.8-24.5 3.1-35.4 2-13.9-1.8-16.8 4.8-22 15.8-1.9 4-4.6 6.1-8 8.7-7.7 6.2-15.9 11.9-23.6 18.2l.4 1.6c8-6.5 16.3-12.6 24.3-19.1 1.3-1.1 2.8-2.1 4-3.4 1.4-1.5 2.5-3.2 3.5-5.1 5.8-12.1 9.3-17.3 23.8-15.1 11 1.2 24.8 3.3 34.7-2.7 8.2-5.4 7.9-26.4 11.1-35.8 2.2-7 4.4-10.2 12.1-10.8 9.8-1.1 23.7 3.3 32.3-1.5l1.8 1c-7.8 4.7-21.5.4-30.6.8-8.5 0-12.3 2.9-14.5 11.1-1.6 5.7-2.2 11.6-3.1 17.4-1.2 6.4-2 14.8-8 18.6-10.3 6.1-23.9 4.4-35.3 3.1-14.1-2.2-18.1 2.8-23.8 14.7-1.1 2-2.2 3.9-3.7 5.5-1.2 1.3-2.7 2.3-4 3.4-8 6.5-16.2 12.8-24.2 19.3l.4 1.8c8.4-6.6 16.5-13.5 24.9-20.1 3.3-2.3 5.7-5.5 7.5-9 6.3-13.1 10.6-16 25.2-14.2 11.2.8 24.2 2.1 34.1-4.2 5.6-3.5 6.7-10.7 7.8-16.8 1.1-6.4 1.6-13 3.4-19.3 2.3-8.3 7.2-10.7 15.5-10.5 8.9-.2 22.2 3.9 29.8-.9l1.3.4c-8.2 4.8-21.5.7-30.9 1.3-7.5.2-12.2 2.7-14.3 10.2-2 6.6-2.5 13.6-3.7 20.4-1.1 5.8-2.4 12.4-7.8 15.7-8.6 5.7-19.6 4.9-29.5 4.8-14-.4-21.2-2.8-28.5 11.8-2.1 3.9-4.1 8.1-7.8 10.8-9.2 6.8-17.3 14.9-26.4 21.8l.8 2.3c9.4-7.1 17.2-16.2 26.8-23.1 3.5-2.8 5.5-7 7.6-10.9 7.5-14.6 14.8-12 28.9-12.1 9.8 0 20.8.9 29.3-4.8 5.1-3.2 6.6-9.3 7.6-14.8 1.3-6.9 1.8-14 3.8-20.8 1.9-6.7 5.9-9.6 12.7-10.3 10-1.3 23.5 3 32.3-2.1l.9-.2c-9.4 5.4-22.9 1.1-33.4 3.2-6.2 1.1-9.5 4.4-11.2 10.3-2 6.7-2.5 13.7-3.8 20.6-1 5.5-2.6 11.5-7.6 14.7-8.4 5.7-19.5 4.5-29.2 4.6-3.7-.1-7.3.1-10.9.3-9.5-.4-14.6 4.8-18.6 12.7-2.1 3.8-4 7.8-7.2 10.7-10 7.1-17.3 17.2-27 24.6l1.2 2.8c9.8-7.7 16.4-18.7 26.6-25.9 3.2-3 5.2-7 7.2-10.8 3.9-7.7 8.8-13.5 18.1-13.5 4-.4 8-.7 12-.5 9.5-.1 20.9 1.5 29.1-4.2 5-3.2 6.5-9.2 7.6-14.6 1.3-6.8 1.8-13.8 3.8-20.4 5-19.2 31.1-6.6 44.1-14.8l.6-.5c-12.9 8.5-38.5-2.8-43.4 16.3-1.9 6.4-2.4 13.2-3.6 19.7-1.1 5.7-2.5 11.9-7.7 15.3-8.3 5.6-20.2 3.6-29.7 3.6-3-.1-6-.1-9 .2-1.5.1-2.8.5-4.3.5-8.9.6-13.5 7.3-17.1 14.7-2 3.7-3.9 7.6-6.9 10.5-3.5 2.8-7 5.8-9.9 9.3-5.3 6.1-9.9 13.1-16.3 18.2l1.4 3.2c6.5-5.4 10.7-13 15.9-19.6 1.7-2.2 3.5-4.3 5.6-6.1 1.3-1.2 2.8-2.2 4-3.4 3.1-3 4.9-7 6.9-10.8 3.2-6.6 7.5-13.9 15.4-15.2 2.2-.3 4.3-.8 6.5-1 3-.3 6.1-.2 9.1-.1 9.4.2 21.6 2.5 29.7-2.9 5.2-3.3 6.6-9.6 7.7-15.3 1.2-6.6 1.7-13.3 3.6-19.7 4.8-19.1 29.9-9.2 42.6-18l.5-.7c-12.8 9.1-37.8.7-42 20.3-1.7 6.3-2.2 12.8-3.4 19.1-1.1 5.6-2.5 12-7.6 15.3-8.3 5.3-21.5 2.4-31 2.1-6.1-.4-12.4-.1-18.1 2.2-6.3 2.8-9.4 9.3-12.3 15.1-1.9 3.9-3.8 7.9-6.8 11-1.4 1.4-3 2.5-4.4 3.9-2 2-3.7 4.2-5.3 6.5-4.9 6.9-8.7 14.9-15.2 20.5l1.5 3.3c6.6-6 10-14.6 14.7-22 1.5-2.4 3.2-4.7 5.1-6.7 1.3-1.5 3-2.5 4.3-4 2.7-2.9 4.5-6.6 6.2-10.2 6.2-13.6 10.4-19.6 26.4-19.6 10.6 0 26.6 4.6 35.9-.9 5.4-3.3 6.8-10 7.9-15.8 1.1-6.1 1.7-12.4 3.2-18.5 3.8-20 28.4-13.1 41.3-22.6l.6-.7c-10.7 8.2-26.5 5.7-36.3 15.4-2.4 2.7-3.4 6.3-4.3 9.8-1.4 5.9-1.9 12-3 17.9-1.2 5.9-2.5 13-8.3 16.1-9.8 5.1-26.4-.4-37.4-.3-15.6-.1-19.8 8.5-25.4 21.2-1.7 3.6-3.5 7.3-6.3 10.3-1.2 1.3-2.7 2.3-3.9 3.6-2.1 2.2-3.7 4.8-5.3 7.4-4.5 7.8-7.4 16.7-14 23l1.5 3.4c9.9-10.1 10.8-26.3 22.1-35.4 2.9-3.1 4.8-7 6.6-10.8 5.3-12.2 9.8-22.9 25.2-22.3 11.2 0 28.1 6.1 38.1 1.5 6.1-3.1 7.4-10.5 8.6-16.5 1-5.5 1.6-11.1 2.7-16.6.8-3.7 1.9-7.6 4.2-10.7 9.3-10.3 25.2-9 35.8-17.4l.7-.5c-10.3 8.6-25.9 8.7-34.9 19-2.7 3.7-3.7 8.4-4.6 12.8-2 8.9-1.9 27.6-11.2 31.6-10.2 4.3-27.4-2.3-38.8-2.5-15.6-1.1-20 12-25.2 24-2 4.3-4.2 8.8-7.9 11.9-10.2 9.6-10.4 25.5-19.9 35.6L83.6 89.6c4.9-3.5 10.6-5.4 16.1-7.7 3.1-1.3 6.1-2.6 9-4.4 2.1-1.2 4.1-2.9 4.9-5.3 3.3-8.1-.4-21.6 6-27.8 4.1-3.3 12-2.9 17.2-3.2 7.4-.4 16.8.3 22.9-4.6 2.8-3 5.8-5.9 9.3-8.2 5.1-3.4 10.9-5.4 16-8.8 3.4-2.6 6.2-6 9.3-9 5.4-5.5 10.6-11.1 16.2-16.5l-2.1-1.7c-5.7 5.8-10.5 12.4-15.6 18.7-1.7 2.1-3.4 4.1-5.2 6.1-1.3 1.5-2.7 2.8-4.5 3.7-5.9 3.1-12.8 3.6-18.4 7.4-2.8 1.7-4.8 4.2-7.1 6.3-6 4.2-14 3.8-21 4.2-5.3.4-13.7 0-17.9 3.6-6.3 6.7-1.9 20.9-5.3 29.3-.8 2.4-2.8 4-5 5.2-3.4 2-7.1 3.4-10.8 4.7-4.9 1.8-9.9 3.5-14.2 6.5l-.4-1.2c4.5-3.1 9.8-4.7 14.9-6.4 3.5-1.2 7.1-2.4 10.3-4.3 2.2-1.2 4.2-2.8 4.9-5.3 3.2-8.5-1.9-24.7 5.1-30.8 5.3-3.5 14.3-2.9 20.5-3.5 21.9-1.3 14.4-5.8 26.6-11.4 6.3-2.5 13.7-1.3 19.4-5.4C193 11.1 198-.2 206.3-9l-1.9-1.3c-5.7 6.2-9.2 14-13.6 21.1-1.3 2.2-2.8 4.4-4.4 6.5-1.1 1.3-2 2.8-3.5 3.5-5.3 2.8-11.4 1.3-17.1 2.4-4.5.7-8.1 3.6-11 7-2.3 2.1-5.3 3-8.3 3.6-5.3 1-10.7 1-16.1 1.4-4 .3-8.1.7-11.7 2.4-8.6 4.3-2.8 23.4-5.5 31.7-.6 2.5-2.2 4.5-4.5 5.7-2.7 1.6-5.7 2.7-8.7 3.7-5.9 2-12.1 3.3-17.3 6.8l-.3-1.3c5.7-3.9 12.7-4.9 19.1-7.1 3.3-1.1 6.5-2.4 9.2-4.7 1.3-1.3 2-3.1 2.4-4.8 1.1-5.2.4-10.5.3-15.7 0-5.7-.8-13.9 5.6-16.5 10.1-4.5 29.4.4 36.2-8.8 4.7-5.6 11-5.4 17.7-4.7 9.2.9 11.5-1.9 15.9-9.5 4.7-7.9 7.7-17.1 14-23.9l-1.5-1c-5.9 6.2-8.3 14.7-12.2 22.2-1.8 3.6-3.7 7.3-6.8 10-1.9 1.5-4.4 2-6.8 1.9-6-.3-12.5-3.1-18 .4-2.8 1.5-4.1 4.7-6.8 6.2-3.6 2.1-7.8 2.5-11.9 2.9-6.5.6-13.1.3-19.4 2.4-6.5 1.9-6.7 9.3-6.5 14.9.1 5.8.9 11.7 0 17.4-.8 5.8-5.1 7.7-10.1 9.6-6.9 2.5-14.7 3.2-20.9 7.4l-.3-1.3C88 77.1 96 76.7 103.1 74c4.8-1.9 8.8-4 9.5-9.6.9-5.8.1-11.8 0-17.6-.1-5.4.2-12.7 6.4-14.6 9.4-3.5 23.1-.2 31.5-5.6 1.2-.8 2-2 2.8-3.2 1.2-1.4 2.6-2.7 4.3-3.4 5.8-2.5 11.9.9 17.9.9 12.3.4 15.3-26.7 24.2-34.2l-1.1-.5c-8.8 7.3-11.7 34-23.7 33.9-5.9.1-11.8-3.2-17.6-1.2-1.9.7-3.5 2-4.7 3.5-.8 1-1.4 2.1-2.4 2.9-7.7 5.6-21.7 2.5-30.9 5.6-6.4 1.5-6.8 8.8-6.9 14.2-.1 5.9.7 11.8-.3 17.6-.8 5.9-4.2 7.8-9.4 9.9-7 2.7-14.9 3.4-21.3 7.7v-1.2c6.1-4 13.6-5.1 20.4-7.7 5.2-2.2 8.6-3.7 9.6-9.7 1.1-5.7.5-11.6.7-17.3.2-5.3.6-12.8 6.9-14.3 8.9-3.1 23.4-.2 30.6-6.1 2.4-2.8 3.7-5.2 7.7-6.2 5.8-1.4 11.5 1.9 17.4 1.4 11.3-.8 14.2-26.3 22.7-33.5l-1.1-.5c-8.4 7.2-11 30.5-21.4 33-5.8 1-11.4-2.2-17.2-1.5-3.7.3-6.5 2.8-8.4 5.8-6.2 6.5-21.2 4.1-29.7 6.9-1.4.5-2.8.9-4 1.9-2.6 2.8-3.2 6.8-3.6 10.4-.6 6.1 0 12.4-1.2 18.4-1.2 6.1-4.1 7.6-9.5 10-6.6 2.8-13.8 4.1-19.9 8.1l.2-1.1c5.9-4 12.9-5.6 19.3-8.6 5.4-2.5 8-4.1 9.3-10.2 1.4-6.3.9-12.8 2-19.2.5-3 1.4-6.2 3.6-8.4 1.3-1 2.9-1.5 4.5-2 6.5-1.8 13.4-1.6 19.9-3.1 2.8-.7 5.6-1.6 7.7-3.7 2.9-4.1 5.3-6.4 10.7-6.2 5.5 0 11 2.9 16.5 1.2 9.7-4.1 11.8-24.9 20-32.2l-1.2-.5c-8.2 7.5-9.7 26-19 31.4-4.9 2-10.1-.3-15.1-.7-6.1-.8-9.6.8-12.9 5.9-1.8 2-4.3 3.1-6.8 3.8-6.1 1.8-12.6 1.9-18.8 3.5-5.5 1.3-7.3 3.6-8.8 8.9-1.6 6.4-1.3 13.2-2.9 19.6-1.5 6.2-4.3 7.8-9.7 10.6-6 3-12.5 5.1-18 8.9l.4-1c5.2-3.7 11.2-6.2 16.8-9.3 5.3-3 8.3-4.7 10-11 2.4-7.7 1.4-16.7 6.1-23.5 1.7-2.4 4.8-3.1 7.4-3.9 5.6-1.5 11.6-1.9 17.1-3.9 2.4-.9 4.8-2.1 6.4-4.2.7-.9 1.2-2 2-2.8 4-4.4 10.5-3 15.6-2 4.2.8 9.2 1.6 12.5-1.8 4.5-4.6 6.5-11.1 9.1-16.9 1.9-4.4 3.8-9 7.3-12.3l-1-.5c-8.1 7.2-9.3 25.2-18.5 30.3-5.1 2-10.6-.4-15.9-.7-3.8-.5-8.1.2-10.6 3.4-1.1 1.3-1.8 2.9-3.2 4-4.8 3.9-11.1 4.6-16.9 6.1-3.5.9-7.1 1.8-10 3.9-6.4 6.6-5.3 17.2-8.9 25.2-1.7 4.5-5.7 6.7-9.5 9.1-5.2 3.2-10.6 6-15.5 9.7l.5-.9c4.7-3.7 9.8-6.9 14.7-10.4 3.8-2.8 7.8-5.2 9.6-9.8 3.5-7.3 3.4-16.6 9.3-22.6 5.6-4.3 13.1-4.8 19.5-7.5 2.9-1.1 5.7-2.7 7.7-5.1 1-1.3 1.7-2.9 3-3.9 7.5-6.1 18.2 2.1 26.3-1.9 8.8-6.1 9.6-22 17.6-29.3l-1.1-.5c-6.9 6.8-8 17.3-13.5 25.1-6.7 10.6-20-.4-29.1 4.7-3.9 2.4-3.4 5.8-8.5 8.7-5.9 3.7-13 4.8-19 8.2-7.9 4.5-8.5 14.6-12.3 22-2 4.5-5.7 7.1-9.4 10.1-4.7 3.8-9.5 7.6-14.2 11.4l.5-.9c4.6-3.9 8.8-8.1 13.2-12.1 4.8-4.3 7.9-6.2 10.7-12.4 4.3-9.1 6-16.1 16.2-20.3 5.2-2.5 10.9-4.3 15.2-8.1 2.8-2.2 3.5-6.1 6.7-7.8 7.4-3.7 15.8 1.6 23.5-.2 2.8-.7 4.7-2.9 6.2-5.2 5-7.5 6.1-17.3 12.7-23.7l-4.9-2.3c-7.5 6.8-7.2 19.3-15.4 25.5-2.6 1.6-5.9 1.5-8.9 1.2-6.7-.3-17.2-4-21.1 3.3-3.6 9.1-11.9 14.9-19.1 21.1-6.6 4.8-12.2 10.9-18.6 15.9-8.1 5.1-8.6 14.3-15 20.6l-.1.9c4.7-4.3 6.7-10.6 10.6-15.5 2.2-3 5.6-4.8 8.2-7.5 3.7-3.6 7-7.6 10.9-11.1 3.6-3.1 7.4-6 11.2-8.9 5.2-4 10.3-8.4 12.8-14.6 4.2-7.8 15.1-3.6 22.1-3.4 5 .4 8.7-.7 11.5-5.1 4.8-6.9 5.7-16.2 12-22.1l1 .5c-6.3 6-7.3 15.3-12.1 22.3-2.9 4.7-6.6 5.8-11.9 5.2-6.2-.3-13.7-3.1-19.3.6-1.9 1.3-2.6 3.4-3.7 5.3-3 5.1-8 8.5-12.8 11.8-3.4 2.3-6.7 4.7-9.8 7.5-4.1 3.7-7.2 8.4-10.8 12.6-2.3 2.8-5.3 4.7-7.8 7.3-4.6 4.9-7.3 11.4-12.3 16l-.3.9c4.4-4 7.6-9.1 11.5-13.6 2.8-3.4 6.7-5.7 9.3-9.4 9.5-13.5 8.8-14.6 23.8-23.3 3.4-2.1 6.7-4.4 9.2-7.6 2.7-3.5 2.9-6.8 8-8 6.8-1.5 13.6 1.7 20.4.9 10.9-1.6 11.7-21.5 19.6-28l1 .5C182.1-13 180.8-4 176.6 3c-2.8 5-6.1 7.4-12 6.8-6.5-.2-14.5-3.6-20.2.9-2.3 2-3 5.1-5.3 7.1-7.4 7.2-19.2 8.8-25 17.8-3.5 5.1-5.7 11.1-9.8 15.7-2.4 2.5-5.2 4.6-7.6 7.2-3.9 4.1-7.4 8.4-11.7 12.2" clip-path="url(#SVGID_00000127745896463616015230000011206860797072040126)" fill="none" stroke="#fff" stroke-width=".35" stroke-linecap="round" stroke-miterlimit="10" />
			</g>
		</g>
	</g>
</svg>
