<svg xmlns="http://www.w3.org/2000/svg" xmlns:xlink="http://www.w3.org/1999/xlink" xml:space="preserve" width="300" height="300">
  <defs>
    <path id="SVGID_a" d="m271.6 136.2-97.3 55v-27.5l97.3-55V81.2L150 12.5 28.4 81.2v137.5L150 287.5l121.6-68.8zM247.3 205 150 260l-19.5-11v-88.2l-19.5-11V238l-19.5-11v-88.2l-19.5-11V216l-19.5-11V95l97.5 55v82.5l97.3-55z"/>
  </defs>
  <clipPath id="SVGID_c">
    <use xlink:href="#SVGID_a" overflow="visible"/>
  </clipPath>
  <linearGradient id="SVGID_b" x1=".868" x2="301" y1="150.5" y2="150.5" gradientUnits="userSpaceOnUse">
    <stop offset="0" stop-color="#40ffc6"/>
    <stop offset=".508" stop-color="#ffbf29"/>
    <stop offset="1" stop-color="#d663b3"/>
  </linearGradient>
  <path fill="url(#SVGID_b)" d="M.9 0H301v301H.9z" clip-path="url(#SVGID_c)"/>
  <g clip-path="url(#SVGID_c)">
    <defs>
      <path id="SVGID_d" d="m271.6 136.2-97.3 55v-27.5l97.3-55V81.2L150 12.5 28.4 81.2v137.5L150 287.5l121.6-68.8zM247.3 205 150 260l-19.5-11v-88.2l-19.5-11V238l-19.5-11v-88.2l-19.5-11V216l-19.5-11V95l97.5 55v82.5l97.3-55z"/>
    </defs>
    <clipPath id="SVGID_e">
      <use xlink:href="#SVGID_d" overflow="visible"/>
    </clipPath>
    <path fill="none" stroke="#fff" stroke-linecap="round" stroke-miterlimit="10" stroke-width=".664" d="M-166.1 276c30.4-29.6 32.7-73.4 71.2-97.6 30.5-24.1 57-52.9 88.5-75.7C27.8 73.5 67 45.9 84.2 2.7c18.8-35 68.7-17.4 100.3-15.9 14.2 1 29.7 1.8 42.2-5.9 39-29.5 37.3-88.7 73-121" clip-path="url(#SVGID_e)"/>
    <path fill="none" stroke="#fff" stroke-linecap="round" stroke-miterlimit="10" stroke-width=".664" d="M-166.8 280.3c22.1-20.6 31.7-50.2 50.3-73.4 10.6-14.2 26.4-23 38.7-35.5 17.7-17 33.4-36 51.6-52.5 17.1-14.8 35.1-28.5 53-42.4 24.5-18.8 49.1-40 61-69.3C107.7-30 159.5-9.9 192.9-9c23.9 2.1 41.1-3.2 54.5-24.1 22.7-32.8 27-77 56.9-105" clip-path="url(#SVGID_e)"/>
    <path fill="none" stroke="#fff" stroke-linecap="round" stroke-miterlimit="10" stroke-width=".664" d="M-168 284.6c23.7-22 36.5-52.7 58.5-76.1 11.5-12.3 26.1-21.4 36.8-34.6 17.5-19.6 32-41.9 51.5-59.7 14.7-12.9 30.3-24.5 46.5-35.4C47.9 63.2 71.6 47 86 23c5-8.9 8.5-19.2 17.5-25.2 26.6-17.5 62.1-4.1 91.5-2.7 25.1 2.5 42.5-2.8 56.5-24.9 22.6-33.3 27.3-77.8 57.4-106.1" clip-path="url(#SVGID_e)"/>
    <path fill="none" stroke="#fff" stroke-linecap="round" stroke-miterlimit="10" stroke-width=".664" d="M-169.6 288.8c21-19 36-43.2 54.6-64.4 13.4-16.1 31.8-27.2 44.1-44.4 45.2-64.1 42-69.3 112.9-110.7 16-10 31.9-20.9 43.6-36C98.2 16.5 99.3 1 123.4-4.7c32.2-6.9 64.5 8.1 96.9 4.1 51.9-7.5 55.4-101.9 93.3-133" clip-path="url(#SVGID_e)"/>
    <path fill="none" stroke="#fff" stroke-linecap="round" stroke-miterlimit="10" stroke-width=".664" d="M-171.4 293c20.1-17.7 37-38.4 55.4-57.7 11-12.3 24.5-22.1 35.9-34 19.7-22 29.9-50.4 46.6-74.5 27.6-43 83.6-50.3 118.7-84.6 10.9-9.3 14.3-24.2 25-33.5C137.3-12.5 175 3.6 206 4.6c28 2.8 43.6-8.6 57-32.4 20-33.5 26.2-76 55.3-103.6" clip-path="url(#SVGID_e)"/>
    <path fill="none" stroke="#fff" stroke-linecap="round" stroke-miterlimit="10" stroke-width=".664" d="M-173.6 297.2c21.7-18.4 41.8-38.4 62.8-57.6 22.9-20.5 37.5-29.5 50.9-58.9 20.4-43.4 28.4-76.4 76.8-96.3 24.6-11.7 51.6-20.2 72.4-38.5 13.2-10.3 16.7-29 32-36.9 35.3-17.6 74.9 7.6 111.7-1 13.1-3.1 22.4-14 29.6-24.8 23.6-35.4 29-82.2 60.4-112.4" clip-path="url(#SVGID_e)"/>
    <path fill="none" stroke="#fff" stroke-linecap="round" stroke-miterlimit="10" stroke-width=".664" d="M-175.8 301.4c22.3-18.2 44.9-36.1 67.3-54.2 17.5-14.1 35.5-26.4 44.8-47.8 18.1-35.1 21.2-83.3 58.5-104.6 28.7-16.2 62.4-21.6 90.4-39 24-14 21.7-30 40.3-41.4 42.9-24 106.2 28.1 138-22.1 26.5-36.7 31.3-86.7 64.3-119" clip-path="url(#SVGID_e)"/>
    <path fill="none" stroke="#fff" stroke-linecap="round" stroke-miterlimit="10" stroke-width=".664" d="M-178 305.6c22.5-17.5 46.5-32.9 69.7-49.4 18.2-13.1 37.1-24.7 45.7-46.5 16.4-34.9 16-78.7 44-107.5C8 81.9 43.5 79.3 73.8 66.5c13.6-5.4 27.2-12.6 36.4-24.3 4.6-6.3 8.1-13.7 14.4-18.6 35.8-29.2 86.5 10.2 124.7-8.8 41.8-28.8 45.6-104.5 83.5-139.2" clip-path="url(#SVGID_e)"/>
    <path fill="none" stroke="#fff" stroke-linecap="round" stroke-miterlimit="10" stroke-width=".664" d="M-180.2 310c23.3-17.4 49.1-30.8 73.8-46.1 18.1-11.6 37.3-22.2 45.2-43.4 17.2-38 11.8-88.6 42.2-119.8 14-10 31.1-14.2 47.6-18.5 27.3-7.2 57.5-10.8 80.2-29.1C115.4 48 119 40.4 124.1 34c11.9-15.1 32.4-18.2 50.4-16 24.8 1.8 50.9 13 75.3 3.5 43.7-24.2 49.7-109.3 88-143.7" clip-path="url(#SVGID_e)"/>
    <path fill="none" stroke="#fff" stroke-linecap="round" stroke-miterlimit="10" stroke-width=".664" d="M-182.3 314.5c24.8-17.8 53.2-29.4 79.8-44.1 25.4-14.4 39.5-22.2 47.6-52 11.2-36.7 6.6-79.2 29.2-111.7C-17.6 95.5-3.1 92 9.5 88.2 36.3 81 64.4 79 90.6 69.7c11.5-4.1 22.9-10 30.6-19.8 3.2-4.3 5.9-9.3 9.7-13.1 19.1-20.7 49.7-14.2 74.3-9.6 19.8 3.6 43.9 7.8 59.4-8.4 21.6-22 30.9-52.6 43.1-80.2 9.1-20.7 18.1-42.7 34.9-58.3" clip-path="url(#SVGID_e)"/>
    <path fill="none" stroke="#fff" stroke-linecap="round" stroke-miterlimit="10" stroke-width=".664" d="M-184.1 319.1c26.4-18.2 57.2-28 85.6-42.3 25.6-13.1 38.8-20.6 46-50.1 7.7-30.6 6.1-62.7 13.9-93.3C-31.7 107.9-23 97.3 3 91c29.3-7.8 60-8.3 89.1-16.7 11.9-3.5 23.9-8.7 32.5-18 15.8-24.4 32.2-31.9 61.3-28.1 23.6 2.3 48.5 13.2 71.6 3.5 44.1-25.5 51.3-113.5 90.3-148.9" clip-path="url(#SVGID_e)"/>
    <path fill="none" stroke="#fff" stroke-linecap="round" stroke-miterlimit="10" stroke-width=".664" d="M-185.6 323.9c28-18.8 61.3-26.7 91.6-40.8 25.5-12.1 37.9-19.4 44.2-48.5 6.5-29.9 4.3-61 9.3-91.1 2.5-14.3 6.6-29.3 17-39.9 6.3-4.8 14-7.3 21.5-9.6 30.9-8.4 63.5-7.5 94.7-14.8 13.1-3.1 26.7-7.7 36.4-17.6 13.9-19.5 25.4-30.2 51-29.5 26.1.2 52.3 13.8 78.2 5.9 46.1-19.7 55.8-118 95.1-152.8" clip-path="url(#SVGID_e)"/>
    <path fill="none" stroke="#fff" stroke-linecap="round" stroke-miterlimit="10" stroke-width=".664" d="M-186.7 328.9c28.7-18.9 63.2-25.2 94.4-38.5 25.3-11.2 39.3-18.3 44.9-47.3 5.7-28.7 3.1-58.3 5.8-87.4 1.7-17.4 4.5-36.4 16.9-49.5 5.5-4.5 12.4-6.8 19-9 40.3-13.1 111.5-1.8 140.8-32.6 9.1-14.1 22.6-26.3 40-27.5 27.5-3.1 54.2 11.9 81.7 7.2C306.4 32.8 318.6-78 358.4-112.2" clip-path="url(#SVGID_e)"/>
    <path fill="none" stroke="#fff" stroke-linecap="round" stroke-miterlimit="10" stroke-width=".664" d="M-187.3 334.1c29.2-19.2 64.7-24 96.7-36.6C-66 287.2-50 280-44.9 251.6c5.2-27.1 2.4-54.9 3.4-82.3.9-25.4 3-60.8 32.8-67.9 42.4-14.6 111.2-.9 145.4-29.1 11.6-13.2 17.5-24.9 36.5-29.5 27.7-6.5 54.8 8.9 82.5 6.8 53.8-4 67.4-124.9 108-159.2" clip-path="url(#SVGID_e)"/>
    <path fill="none" stroke="#fff" stroke-linecap="round" stroke-miterlimit="10" stroke-width=".664" d="M-187.3 339.6c30.3-20.1 67.7-23.4 101-36.4 24.6-9.9 40.5-18.6 44.5-46.8 4.4-27.6.9-55.7 1.3-83.5.2-25.8 2.5-60.3 32.7-67.5 43.5-14.7 110-.3 146.7-26.7 4.9-3.6 7.9-8.9 11.6-13.6 6-7.3 13.6-13.3 22.5-16.6 27.6-9.8 55.7 6 83.6 5.5 57.1.6 71-126.1 112.7-161" clip-path="url(#SVGID_e)"/>
    <path fill="none" stroke="#fff" stroke-linecap="round" stroke-miterlimit="10" stroke-width=".664" d="M-186.7 345.3c30.4-20.7 68.4-23 102.1-35.8 22.9-8.9 41.7-19.1 45.1-45.6 4.4-27.7.3-55.8.1-83.7-.5-25.7 1.1-60.3 30.5-69.1 44.8-16.6 109.6-.8 149.5-26.4 5.8-3.8 9.3-9.7 13.5-15.1 5.6-6.8 12.5-12.6 20.5-16.2 27.7-12.1 56.7 4.2 85 4.2 58.6 2 72.6-126.8 115-162.2" clip-path="url(#SVGID_e)"/>
    <path fill="none" stroke="#fff" stroke-linecap="round" stroke-miterlimit="10" stroke-width=".664" d="M-185.4 351.4c29.5-20 66.2-23.3 99.1-35.3 23.5-9 44.1-18 47.8-45.6 4.5-27.4.3-55.2 0-82.8-.6-26.6.4-62 31.1-70.8 29.5-10 61.2-8.3 91.9-11.2 19.3-1.8 39.5-3.9 56.5-13.8 12.8-7.5 18.8-22.6 32.1-29.6 26.2-16.4 57.2-3.2 85.5-1.9 11.3.5 23.1-1.8 32.2-8.8 14.3-13 23.5-30.5 32.1-47.6 18.3-35.4 29.8-76 57.9-105.3" clip-path="url(#SVGID_e)"/>
    <path fill="none" stroke="#fff" stroke-linecap="round" stroke-miterlimit="10" stroke-width=".664" d="M-184 357.7c27.2-18.3 60.3-23.4 90.9-33.7 15.5-5.3 31.1-11.6 43.8-22.1 6.2-6.2 9.4-14.6 11.3-23 5-24.6 1.9-49.8 1.3-74.6-.2-27-3.6-65.9 26.5-78.2 47.8-21.2 139.8 2 171.7-42 22.4-26.7 52.4-25.8 84.1-22.2 43.8 4.2 54.7-9.2 75.7-44.9 22.3-37.7 36.4-81 66.4-113.7" clip-path="url(#SVGID_e)"/>
    <path fill="none" stroke="#fff" stroke-linecap="round" stroke-miterlimit="10" stroke-width=".664" d="M-182.6 363.9c24.7-16.7 54.4-23.2 82.3-32.5 14.2-4.7 28.4-10 41.2-17.7 10.9-5.5 18.5-15.2 21.2-27.1 13-39.7-14.5-130.1 26.3-150.7 17.3-8.4 36.9-9.9 55.7-11.5 25.5-1.9 51.3-2 76.5-6.8 14.1-2.8 28.6-7.2 39.5-17.1 13.5-16.1 30.7-29.9 52.1-33.1 26.9-5.1 56.2 2.3 81.2-11.2 7.2-3.5 11.7-10.6 16.8-16.6 7.6-9.8 14.4-20.2 20.8-30.8 20.9-33.6 37.4-70.6 64.5-100" clip-path="url(#SVGID_e)"/>
    <path fill="none" stroke="#fff" stroke-linecap="round" stroke-miterlimit="10" stroke-width=".664" d="M-181.2 370.3c21.4-14.6 46.5-22.1 70.7-30.3 16.8-5.7 33.7-11.6 49.1-20.5 10.5-5.5 19.8-13.2 23.3-25 15.4-40.5-9-117.5 24.2-146.2 25.2-16.8 67.7-14 97.5-16.6 104.2-6.1 68.2-27.7 126.4-54.1 29.7-12.1 65.2-6.4 92.1-25.7 39.6-41.2 63.2-95.1 102.4-136.7" clip-path="url(#SVGID_e)"/>
    <path fill="none" stroke="#fff" stroke-linecap="round" stroke-miterlimit="10" stroke-width=".664" d="M-179.8 376.8c20.4-14.2 44.1-22.3 67.3-30.8 17.5-6.4 35.1-13 51.2-22.4 10.3-5.6 20-12.9 23.8-24.5 16.2-40-4.7-107.5 25-139.1 19.7-17.2 59.6-15.3 84.9-17.1 33.6-2.2 71.2 0 99.9-20.1 11.1-10.1 20.8-22 33.9-30 26.3-18.1 59.3-20.6 87.2-35.2 8.6-3.9 15.3-10.3 21.5-17.4 8.6-9.3 16.8-19 24.9-28.8 24.5-29.7 47.1-61.1 74.2-88.6" clip-path="url(#SVGID_e)"/>
    <path fill="none" stroke="#fff" stroke-linecap="round" stroke-miterlimit="10" stroke-width=".664" d="M-178.4 383.3c23.3-16.4 50.4-25.8 76.6-36.5 14.6-6 29.1-12.4 42.6-20.7 10.2-5.8 19.4-13.6 23.3-25.1 15.8-38.5-1.7-102.5 28.7-132.1C12.5 153 50 155.2 74.5 153.8c35.3-1.8 79.8 1.4 108.7-21.8 13.5-14.1 27.4-28.2 44-38.7 24.2-16 51.9-25.5 75.9-41.9 16-12.5 29.4-28.3 44-42.5 25.5-26.2 50.5-52.9 77-78.2" clip-path="url(#SVGID_e)"/>
    <path fill="none" stroke="#fff" stroke-linecap="round" stroke-miterlimit="10" stroke-width=".664" d="M-176.9 390c26.7-19.2 58-30 87.5-43.9 12.5-5.9 24.8-12.3 36.1-20.2 10.2-6.1 17.1-16 20.6-27.3 13.1-36 .8-96.2 32.5-121.5 21-14 57.5-11.1 82.2-12.2 35.6-1.3 80.4 2.3 109.8-20.8 15.7-16.3 31-33.2 48.8-47.4 21.2-17.5 44.4-32.4 66.3-48.8C349 11.1 392.7-23.9 434.6-60.9" clip-path="url(#SVGID_e)"/>
    <path fill="none" stroke="#fff" stroke-linecap="round" stroke-miterlimit="10" stroke-width=".664" d="M-175.5 396.7c27.1-20 58.7-32.1 88.5-47.4 16.2-8.9 33.8-17.3 46.5-31.1 15-19.8 15.5-46 19.4-69.7 3.6-24.8 8.7-56.6 35.4-66.5 18.2-5.9 37.7-5.4 56.6-5.8 30.6-.2 61.5 1.6 91.8-3.8 14.7-2.8 29.7-7.6 40.7-18.2 15.4-17.4 30.4-35.2 46.2-52.2 20-22 41.6-42.4 64.7-61 41.5-34.2 89.8-59 131.3-93.1" clip-path="url(#SVGID_e)"/>
    <path fill="none" stroke="#fff" stroke-linecap="round" stroke-miterlimit="10" stroke-width=".664" d="M-174 403.5c25.3-19.1 54.4-32.2 82.2-47.2 12.2-6.5 24.2-13.5 35.5-21.4 10.3-6.9 20-15.2 24.8-27 11.6-26.2 11.2-55.9 21-82.7C.2 194.3 22 187.7 52.2 187.4 98.6 184.7 176 199 212.4 167c40.5-45.2 66.3-104.9 118.2-138.9C371.1 1.8 417.8-14 456.5-43.1" clip-path="url(#SVGID_e)"/>
    <path fill="none" stroke="#fff" stroke-linecap="round" stroke-miterlimit="10" stroke-width=".664" d="M-172.5 410.5c30-23.2 64.7-38.9 96.8-58.9 27.5-17.8 44.7-27.2 53.3-60.8 8-26.1 9.5-56.4 28.8-77.4 18.5-19.3 47.5-15.3 71.8-15.3 27.3.8 54.6 2.9 81.9 1.2 20.6-1.5 42.6-4.7 59.3-17.9 8.3-8 14.5-18.1 21.1-27.6 27.3-39.7 42.9-89.1 80.9-120.4C366.3 3.4 423-3.4 467.7-34.1" clip-path="url(#SVGID_e)"/>
    <path fill="none" stroke="#fff" stroke-linecap="round" stroke-miterlimit="10" stroke-width=".664" d="M-170.9 417.6c36.4-28.8 79.1-48.2 116.1-76 17.5-12 27.4-24.5 33.8-44.8 11-30.6 14.8-73 50.1-85.2 19.5-6.2 40.4-3 60.5-2.5 36.8 1.7 74.5 6.1 110.7-2.5 10.8-2.8 21.3-7.1 29.8-14.4 13.5-16.2 23.6-34.9 32.5-53.9 16.7-33.9 31.8-85.5 62.7-108.1C372.7 2.1 432.1 4.1 478.8-25.2" clip-path="url(#SVGID_e)"/>
    <path fill="none" stroke="#fff" stroke-linecap="round" stroke-miterlimit="10" stroke-width=".664" d="M-169.4 424.8c37.4-30.1 80.6-52 118.3-81.7 17.9-12.4 27.2-27.1 34.2-47.4 13.4-39.1 24.1-78.8 73.6-78.3 53.5-.1 117.4 15.6 168-5C254 202.1 272.4 139 282.6 111c10.5-28.4 19.7-60.3 42.8-81.2 50.1-29.3 114-17.4 164.2-46.4" clip-path="url(#SVGID_e)"/>
    <path fill="none" stroke="#fff" stroke-linecap="round" stroke-miterlimit="10" stroke-width=".664" d="M-167.8 432.1c38.5-31.4 82.1-55.9 120.6-87.3 19.9-13.2 29.5-35.2 37.5-56.8 16.2-45.1 37.2-66.7 87.4-60.9 49.8 2.8 118.8 16.8 163.5-8.7 33.3-23.3 44.8-105.4 60-143.5 6.6-16.4 14.3-36.8 28.9-47.5C358.5 12 391.9 12 423.3 9c26.2-2.5 53.8-4.2 77.1-17.4" clip-path="url(#SVGID_e)"/>
    <path fill="none" stroke="#fff" stroke-linecap="round" stroke-miterlimit="10" stroke-width=".664" d="M-166.1 439.6c40.3-33.2 85-60.6 125-94.3C7.2 308.1-12.9 224.9 83 235.8c51 4 121 17.8 166.9-8.6 36-25.2 42.2-117.4 58.6-159 5.2-14.3 11.7-28.7 22.4-39.8 9.8-6.3 21.2-9.6 32.6-11.7 47-9 104.3 4.5 147.2-17.7" clip-path="url(#SVGID_e)"/>
    <path fill="none" stroke="#fff" stroke-linecap="round" stroke-miterlimit="10" stroke-width=".664" d="M-164.5 447.2c36.4-30 75.4-56.8 112.1-86.4 16.1-12.6 28.6-22.6 37.8-41.5 24.9-52.4 38.5-83.9 104.5-75.2 51.8 5 121.4 17.8 168.2-9.7 37.7-26 39.6-123.5 55.8-167 11.8-32.8 19.3-45.4 55.7-50.1 46.9-6.9 108.8 10.6 150.8-11.4" clip-path="url(#SVGID_e)"/>
    <path fill="none" stroke="#fff" stroke-linecap="round" stroke-miterlimit="10" stroke-width=".664" d="M-162.8 455c37.8-31 77.3-60 115.2-90.9 6.3-5.4 13.2-10.1 19-16.2 6.7-7.1 11.9-15.4 16.5-24 27.6-57.4 44.3-82 113.1-71.5 52 5.5 117.9 15.6 164.6-12.6 38.8-25.7 37.5-125.4 52.9-169.8 10.5-33.3 20.8-48.2 57.6-51.4 46.6-5.4 112.4 15.6 153.3-6.9" clip-path="url(#SVGID_e)"/>
    <path fill="none" stroke="#fff" stroke-linecap="round" stroke-miterlimit="10" stroke-width=".664" d="M-161 462.9c38.1-30.8 76.6-60.9 114.8-91.7 6.4-5.3 13.3-10.1 19-16.2 7.2-7.7 12.8-16.8 17.8-26.1 27-56.5 46.1-80.1 112.9-69.8 54 5.9 118.7 14.2 167.4-14.9 28.6-17.9 32.4-58 38.1-88.4 4.4-27.6 7.2-55.6 14.7-82.6 10.6-38.9 28.4-52.5 68.9-52.7 43.2-1.9 108.1 18.6 145.3-3.9" clip-path="url(#SVGID_e)"/>
    <path fill="none" stroke="#fff" stroke-linecap="round" stroke-miterlimit="10" stroke-width=".664" d="M-159 471.3c39.9-31.2 78.5-64.1 118.3-95.4C-24.9 365.2-13.4 350-5 333c29.8-62 50.5-76.2 119.7-67.4 53.3 3.6 115.1 10.1 162.1-20 26.8-16.8 31.6-50.9 36.9-79.6 5.2-30.6 7.5-61.8 16.3-91.7 10.9-39.4 34.1-50.6 73.4-50 42.2-1 105.2 18.3 141.7-4.2" clip-path="url(#SVGID_e)"/>
    <path fill="none" stroke="#fff" stroke-linecap="round" stroke-miterlimit="10" stroke-width=".664" d="M-155.9 481c43.3-32.7 81.8-71.2 125.4-103.6 17.4-12.7 27-32.6 36.9-51.1 34.6-69.1 69.1-57.6 135.5-55.8 47 .8 99.2 4.4 140.2-22.7 25.4-15.9 31.8-47.1 36.8-74.6 5.9-32.2 8-65.3 17.7-96.7 10.2-35.4 32.3-47.3 67.9-48.3C449 25.5 512.4 44.9 551.2 22" clip-path="url(#SVGID_e)"/>
    <path fill="none" stroke="#fff" stroke-linecap="round" stroke-miterlimit="10" stroke-width=".664" d="M-151.9 492.1c44.8-33.7 81.6-76.9 127.2-109.5 16.7-13.5 26.1-33.3 36.3-51.8 35.6-69.1 70.2-56.8 137.3-57.6 46.6-.2 98.7 4.5 139.2-22.9 24-15.3 31.3-44.2 36.1-70.5 6.3-32.8 8.4-66.6 18.2-98.6 9.2-31.7 27.8-45.7 60.5-48.8 47.3-6 111.7 14.1 153.3-10" clip-path="url(#SVGID_e)"/>
    <path fill="none" stroke="#fff" stroke-linecap="round" stroke-miterlimit="10" stroke-width=".664" d="M-147 504.5c46-35.2 80.7-83.1 128.1-116.7 15.5-13.7 24.6-32.8 34.4-50.7 19.1-37.8 43.4-62.3 88.3-60.5 17.3-1 34.5-1.9 51.9-1.5 45.9-.5 98.9 5.4 138.7-21.9 23.7-15.3 31.2-43.7 36.1-69.9 6.3-32.5 8.4-65.9 18.1-97.7 8.1-28.3 24-43.9 53.4-49 49.7-10.1 114.1 10.5 158.6-15.1" clip-path="url(#SVGID_e)"/>
    <path fill="none" stroke="#fff" stroke-linecap="round" stroke-miterlimit="10" stroke-width=".664" d="M-141.3 517.9c46.5-36.5 77.9-88.9 126.4-123.2 15.4-14.1 24.5-33.3 34.3-51.4 18.3-36.7 41.8-64 85.8-63.9 19-2 38.1-3.2 57.2-2.6 45.2-.3 99.3 6.9 138.4-19.9 23.6-15.2 31.1-43.5 36-69.5 6.3-32.3 8.5-65.5 18-97.1C378.5-1 502.7 59 564.2 19.9" clip-path="url(#SVGID_e)"/>
    <path fill="none" stroke="#fff" stroke-linecap="round" stroke-miterlimit="10" stroke-width=".664" d="M-135.1 532.1c30.5-24.2 52.1-57.1 77.3-86.3 13.6-16.7 30-30.8 46.8-44.1 14.6-13.9 23.6-32.4 32.9-50 17.1-34.9 39-66.7 81.3-69.6 7-.2 13.6-1.9 20.5-2.5 14.1-1.5 28.3-1.4 42.5-1.1 45.1.1 101.9 9.3 141.1-17.2 24.5-15.8 31.5-45.6 36.5-72.5 5.9-31.2 8.2-63.2 17.2-93.7 23.5-91 145.1-37.2 206.2-77.5" clip-path="url(#SVGID_e)"/>
    <path fill="none" stroke="#fff" stroke-linecap="round" stroke-miterlimit="10" stroke-width=".664" d="M-128.3 547.1c31-25.8 51-61.5 75.7-92.9 8.1-10.4 16.8-20.3 26.5-29.2 6.1-5.8 13.2-10.3 19.2-16.3 14.5-14.4 23.4-33.1 32.6-51.1 15-31.4 35.8-66 73-72.4 10.3-1.5 20.4-3.6 30.7-4.8 14.4-1.4 29-1.1 43.4-.5 44.4.9 102.4 11.7 141.2-14 24.5-15.7 31.3-45.7 36.4-72.5 5.9-31.2 8.2-63.1 17.1-93.7C390.4 9 509.3 56 569.9 14.4" clip-path="url(#SVGID_e)"/>
    <path fill="none" stroke="#fff" stroke-linecap="round" stroke-miterlimit="10" stroke-width=".664" d="M-121.3 562.6c30.9-26.9 48.8-64.6 72.2-97.5 7.7-10.9 15.9-21.4 25.4-30.7 6.4-6.7 14.3-11.7 20.8-18.4 14.3-14.9 23.2-33.9 32.2-52.2 13.5-27.7 28.6-58.5 58.3-71.7 27.2-10.8 57.1-12.5 86-10.5 45.1 1.5 107.6 15.3 147.1-10.1 24.6-15.6 31.1-46 36.3-72.7 5.7-30.2 8.1-61.1 16.1-90.9 20-93.4 138.7-53.4 199.4-96.6" clip-path="url(#SVGID_e)"/>
    <path fill="none" stroke="#fff" stroke-linecap="round" stroke-miterlimit="10" stroke-width=".664" d="M-114.1 578.4c31.4-28.7 47.3-69.3 70-104.4 7.2-11.3 15.1-22.2 24.4-31.8 6.3-6.9 14.1-12 20.4-18.8 12.9-14 21.4-31.3 29.6-48.4 29.3-64.4 49.5-93.3 125.5-93.2 50.4-.2 126.5 21.9 170.5-4.3 25.8-15.5 32.2-47.3 37.6-74.8 5.4-29.2 7.9-59 15.2-87.8C397.1 19.9 514 52.6 575 7.5" clip-path="url(#SVGID_e)"/>
    <path fill="none" stroke="#fff" stroke-linecap="round" stroke-miterlimit="10" stroke-width=".664" d="M-106.8 594.5c31.2-30.1 45.1-72.4 66.5-109.2 7.2-12.5 15.2-24.7 25-35.3 5.6-6.4 12.7-11.2 18.4-17.3 13.1-14.1 21.7-31.6 29.8-48.9 26.6-60.2 46.9-101.3 120.8-100.6 52.4-.4 131.3 25.6 177.6 1.6 27.4-14.9 34-48.2 39.5-76.4 5.2-28.3 7.8-57.1 14.4-85.1 4-16.4 9.1-33.3 20.3-46.3C451.8 30.9 527 42.7 577.7 4" clip-path="url(#SVGID_e)"/>
    <path fill="none" stroke="#fff" stroke-linecap="round" stroke-miterlimit="10" stroke-width=".664" d="M-99.6 610.5c47-48 51.2-125.1 104.9-168.1 14-14.7 22.9-33.2 31.3-51.5 25-58 46.4-108.9 119.6-106 53.2.2 133.6 29 181 6.9 28.8-14.5 35.2-49.7 40.9-78.5 4.7-26.2 7.4-52.9 12.9-79 3.9-17.8 8.8-36.2 19.9-51C455.1 34.5 530.7 40.8 580.7.6" clip-path="url(#SVGID_e)"/>
    <path fill="none" stroke="#fff" stroke-linecap="round" stroke-miterlimit="10" stroke-width=".664" d="M-92.6 626.5C-47.2 578.8-46.6 503 2 457.6c17.5-14.9 27.9-36.1 37.3-56.7C63.8 344.3 84.9 282.1 159 287.1c54 .9 135.7 32.2 184.2 12 44.4-18.9 43.7-107.8 53.3-150 4.2-21.1 8.8-43.2 21.7-61C461.3 39.1 535.1 39 584.1-2" clip-path="url(#SVGID_e)"/>
  </g>
</svg>
