<svg version="1.1" id="Layer_1" xmlns="http://www.w3.org/2000/svg" xmlns:xlink="http://www.w3.org/1999/xlink" x="0" y="0" width="1024" height="64" style="enable-background:new 0 0 1024 64" xml:space="preserve">
	<defs>
		<path id="SVGID_1_" d="M0 0h1024v64H0z" />
	</defs>
	<clipPath id="SVGID_00000113343385814828747320000016449330553795203742_">
		<use xlink:href="#SVGID_1_" style="overflow:visible" />
	</clipPath>
	<g style="clip-path:url(#SVGID_00000113343385814828747320000016449330553795203742_)">
		<path fill="#fff" d="M1024-136.9c-87.3-2.9-171.8-50.9-259.6-26.4-27.1 7.6-52 17.7-80.5 19.3-47.7 2.7-96.3-6.6-143.4-13.2-47.3-6.6-96-15.7-143.9-13.2-37.4 2-73.4 12.4-109.9 19.6-97.6 19.4-188.9-17.4-286-20v-.6c97.2 2.5 188.4 39.5 286.1 20 36.5-7.3 72.4-17.7 109.8-19.7 47.9-2.5 96.6 6.6 143.9 13.2 47.1 6.6 95.7 15.9 143.4 13.2 28.5-1.6 53.4-11.8 80.4-19.4 87.8-24.6 172.2 23.6 259.6 26.4.1.5.1.6.1.8z" />
		<path fill="#fff" d="M1024-132.2v.5c-87.9-3.7-174-48.8-262.2-25.4-27.7 7.4-53.7 17.4-82.7 19.1-47 2.7-95-6.4-141.3-13.1-46.6-6.7-94.6-15.6-141.9-13-38 2.1-74.7 12-111.9 19C187.2-126.9 97.2-161.5.8-164.4v-.7c96.5 3 186.7 37.8 283.7 19.5 37.1-7 73.8-17.1 111.6-19.1 47.4-2.6 95.5 6.4 142.2 13.1 46.5 6.6 94.5 15.8 141.7 13.1 28.9-1.6 54.8-11.7 82.4-19.1 88-23.7 173.9 21.8 261.6 25.4z" />
		<path fill="#fff" d="M1024-128.4v.4c-90.1-3.8-179.2-45.1-269.4-23.1-29 7.1-56.7 17-86.8 18.6-45.6 2.5-92-6.2-136.9-12.9-45.2-6.7-91.6-15.2-137.5-12.8-39.1 2-77.3 11.3-115.7 17.9-43.7 7.4-85.5 8.1-129.4 1.7-49.3-7.2-97.6-18-147.5-19.6v-.8c50.2 1.6 98.8 12.6 148.4 19.9 43.9 6.4 85.7 5.8 129.4-1.7 38.3-6.6 76.3-16 115.2-18 46.1-2.4 92.7 6.1 138.1 12.8 45.2 6.7 91.7 15.4 137.6 12.9 29.9-1.7 57.4-11.6 86.2-18.7 89.8-22.2 178.6 19.6 268.3 23.4z" />
		<path fill="#fff" d="M1024-125.8v.3c-93.4-3.4-186.7-40.2-280-19.7-30.8 6.8-60.6 16.4-92.3 18-43.7 2.2-87.7-5.9-130.8-12.5-43.3-6.7-87.3-14.5-131.3-12.5-40.7 1.9-80.7 10.3-120.8 16.3-43.5 6.5-85.5 7.7-129.1 1.6C93.3-140.8 47.8-150.6.8-152v-.9c47.5 1.4 93.3 11.3 140.2 17.9 43.6 6.2 85.6 5 129.1-1.6 39.9-6.1 79.7-14.6 120.1-16.5 44.3-2.1 88.6 5.8 132.2 12.6 43.3 6.7 87.7 14.9 131.7 12.6 31.5-1.6 61-11.3 91.5-18.1 92.9-20.7 185.5 16.7 278.4 20.2z" />
		<path fill="#fff" d="M1024-123.9v.2c-97.6-2.7-195.6-34.7-292.9-15.6-32.9 6.4-65.1 15.7-98.8 17.2-41.4 1.9-82.7-5.5-123.4-12.2C468-141 426.7-148 385-146.5c-42.5 1.6-84.7 9.2-126.8 14.5-43.2 5.4-85.4 7.1-128.6 1.5C86.4-136 44.4-144.7.8-145.7v-.9c44.2 1.1 86.7 9.9 130.4 15.6 43.3 5.7 85.5 4 128.7-1.6 41.9-5.4 83.6-13.1 125.9-14.7 42-1.6 83.7 5.5 125.1 12.2 41.1 6.7 82.8 14.2 124.5 12.2 33.4-1.6 65.2-10.9 97.8-17.4 96.6-19.2 193.9 13.6 290.8 16.4z" />
		<path fill="#fff" d="M1024-122.5v.2c-102.1-1.7-205.2-28.9-306.9-11.2-35.2 6.1-69.9 15-105.7 16.4-38.9 1.6-77.2-5.1-115.4-11.8-38.5-6.7-76.7-13-115.9-11.8-44.6 1.3-88.9 7.9-133.3 12.5-42.8 4.4-85.3 6.6-128.1 1.5-39.5-4.7-77.9-12-117.9-12.7v-1c40.5.7 79.6 8.2 119.7 13.1 42.9 5.2 85.4 3.1 128.2-1.5 44-4.7 87.9-11.5 132.2-12.8 39.6-1.2 78.4 5.2 117.2 11.9 38.6 6.7 77.4 13.5 116.7 11.8 35.5-1.5 69.8-10.4 104.6-16.6 101-17.9 203.2 10.1 304.6 12z" />
		<path fill="#fff" d="M1024-121.2v.3c-106.7-.6-214.7-23.2-321-6.8-37.5 5.8-74.6 14.2-112.7 15.6-36.4 1.3-71.8-4.6-107.4-11.4-83.9-16-163.1-8-247.6-1-42.4 3.5-85.1 5.9-127.6 1.4C71.9-126.9 37-132.9.8-133.2v-1.1c36.8.4 72.3 6.6 108.8 10.5 42.5 4.6 85.2 2.3 127.7-1.4 46.1-4 92.3-9.8 138.6-10.8 37.1-.8 72.9 4.7 109.3 11.6 36.1 6.8 72 12.8 108.8 11.4 37.7-1.4 74.4-9.9 111.5-15.8 105.4-16.6 212.6 6.8 318.5 7.6z" />
		<path fill="#fff" d="M1024-119.6v.4c-110.9.3-223.6-18.2-334-2.7-39.7 5.5-79.1 13.6-119.2 14.9-34.1 1.1-66.8-4.1-100-11-82.3-17.1-163-8-246.2-2.5-42.2 2.8-84.9 5.2-127.1 1.3-32.4-3-64-7.6-96.7-7.7v-1.2c33.3.1 65.5 5 98.5 8.1 42.2 4 85 1.6 127.2-1.3C310-127 390.4-136 473-119.1c33.6 6.9 66.8 12.2 101.3 11.1 39.8-1.3 78.8-9.5 118-15 109.7-15.5 221.5 3.5 331.7 3.4z" />
		<path fill="#fff" d="M1024-117.4v.6c-114.5.8-230.9-13.8-344.9.7-74.8 9.5-144.1 20.5-218.5 3.6-80.8-18.4-163.1-8.1-245.1-3.8-42.1 2.2-84.7 4.4-126.8 1.2-29.5-2.2-58.3-5.7-87.9-5.6v-1.3c30.2-.1 59.5 3.6 89.6 6 42.1 3.3 84.8 1 126.8-1.3 82.2-4.5 164.2-14.6 245.3 3.6 74.7 16.7 143.7 6.1 218.6-3.6 113.3-14.7 229.1.7 342.9-.1z" />
		<path fill="#fff" d="M1024-114.1v.9c-116.9.9-236-10.6-352.4 3.2-73.9 8.7-144.8 21.4-218.2 3.3-79.6-19.7-163.5-8.2-244.5-4.8-70 2.9-138.5-3.1-208.2-2.9v-1.4c27.8-.1 55 2.6 82.7 4.4 42.1 2.7 84.6.6 126.7-1.2 81.2-3.5 164.7-14.8 244.6 4.6 73.6 17.9 144.2 5.5 218.2-3.4 116-13.9 234.6-1.8 351.1-2.7z" />
		<path fill="#fff" d="M1024-109.5v1.3c-117.8.1-238.3-9-355.5 4.3-73.3 8.3-145.7 22.2-218.3 3.2-78.7-20.7-164.1-8.2-244.4-5.3-68.8 2.5-136.4-2-205-2.2v-1.5c68.7.1 136.5 4.8 205.4 2.3 80.4-3 165.5-15.3 244.4 5.2 72.7 18.9 144.8 5.2 218.2-3.2 117.2-13.3 237.5-3.7 355.2-4.1z" />
		<path fill="#fff" d="M1024-103.5v1.5c-116.8 0-235.9-8.4-352.2 4.3-73.5 8-144.5 19.9-217.5 3-79.6-18.5-163.5-7.9-244.4-5.3-70 2.2-139.1-1.4-209-1.9v-1.5c69.2.5 137.6 4.3 207 2 80.7-2.7 165.1-13.9 244.4 5.4 72.9 17.7 144.4 5.1 217.8-3 116.7-13 236.6-4.5 353.9-4.5z" />
		<path fill="#fff" d="M1024-97.3v1.6c-112.5 0-226.9-7.5-339 3.7-73.4 7.3-142.8 15.8-215.9 2.9-80.9-14.2-163.3-7.1-245-5.1C149.4-92.4 75.3-95 .8-95.7v-1.6c73.1.7 145.6 3.5 218.7 1.6 81.6-2.1 164.2-10.2 244.8 5.2 73.2 14 142.9 4.6 216.4-2.9 113.5-11.7 229.4-3.9 343.3-3.9z" />
		<path fill="#fff" d="M1024-91.2v1.7c-105.7 0-212.6-6.4-318 2.7-72.5 6.2-141.3 11.3-213.9 2.9-81.9-9.5-163.9-5.7-246.2-4.7-81.8 1-163.4-.3-245.1-.8v-1.7c79.6.6 158.9 2.3 238.5 1 82.2-1.3 164.2-6 245.9 4.8 72.8 9.6 141.7 3.7 214.5-2.9 107.4-9.6 216.5-3 324.3-3z" />
		<path fill="#fff" d="M1024-85v1.8c-97-.1-194.6-5.2-291.5 1.3-71.1 4.8-140.2 7.1-211.4 2.9C348.2-89.3 173.9-82.6.8-83.2V-85c170 .8 342-8.2 511.5 4.6C583.9-75 653-78 724.5-83.3c99.4-7.2 199.9-1.8 299.5-1.7z" />
		<path fill="#fff" d="M1024-78.8v1.9c-87.2-.1-174.7-3.9-261.9-.2-69.7 2.9-139 3.7-208.8 2.9C369.1-76.4 185-77.1.8-76.9v-1.9c180.9.1 361.7-1.5 542.6 3.1 70.2 1.8 139.5.7 209.6-2.9 90.2-4.5 180.7-.3 271-.2z" />
		<path fill="#fff" d="M1024-72.7v2c-146-.3-291.7-2.9-437.6 1.1-84.1 2.3-167.4.7-251.5-2.7C223.6-76.7 112.2-71.2.8-70.7v-2C108.9-73 217-77.5 325.1-74c83.8 2.8 167.1 4.2 250.9 2.9 149.4-2.4 298.6-1.9 448-1.6z" />
		<path fill="#fff" d="M1024-66.5v2.1c-135.7-.4-270.8-8.3-406.3-.4-85.3 5-168.1 3.1-253.3-2-121-7.3-242.6 1.5-363.7 2.4v-2.1c118-.8 236.3-8.4 354.2-2.1 84.8 4.5 167.8 6.4 252.7 2.2 138.9-6.9 277.5-.5 416.4-.1z" />
		<path fill="#fff" d="M1024-60.3v2.1c-59-.2-119.1 0-178-4.5-67.8-5.2-133.4-2.7-201.3 2.9-44.5 3.7-89.5 8.6-134.2 7.4-40.3-1-80.4-5.6-120.5-8.9C260.9-71.6 130.1-59.4.8-58.2v-2.1c126.7-1.1 254.5-12.2 381.1-2.8 40.7 3 81.4 7.3 122.2 8.2 44 1.1 88.2-3.3 132.1-6.6 68-5.1 134.1-7 202-2.9 61.6 3.7 124.1 3.9 185.8 4.1z" />
		<path fill="#fff" d="M1024-54.2v2.2c-52.4-.2-107.7 1.2-159.5-5.4-67.4-8.6-131.6-3.9-199.3 2.8-46.1 4.6-92.8 10.7-139.2 9.3-39-1.2-77.7-6.6-116.5-10.4-135.2-13-273.3 2.5-408.7 3.8v-2.2c133.6-1.3 269.3-15.6 402.6-3.5 39.2 3.6 78.4 8.7 117.8 9.9 45.9 1.3 92-4.4 137.6-8.7 67.8-6.4 132.4-10.2 200-2.9 54.1 5.9 110.7 4.9 165.2 5.1z" />
		<path fill="#fff" d="M1024-48v2.3c-48.5-.2-102.2 2.2-149.8-5.8-66.8-11.2-130.6-4.7-198 2.7-47 5.2-94.6 11.8-142 10.4-38.2-1.2-76.1-7.2-114-11.3-52.9-5.8-105.6-4.1-158.7-2.6C174.5-50 87.7-46.4.8-45.7V-48c86-.8 171.9-4.2 257.8-6.5 53.2-1.4 105.8-3 158.7 2.6 38.2 4 76.3 9.9 114.8 11 47.1 1.5 94.5-5.1 141.2-10.1 67.5-7.2 131.4-13.1 198.4-2.8 48.9 7.6 102.7 5.6 152.3 5.8z" />
		<path fill="#fff" d="M1024-41.8v2.4c-48.7-.3-102.3 2.3-150.2-5.7-67-11.2-130.9-4.7-198.4 2.6-47.1 5.1-94.8 11.7-142.2 10.3-38.1-1.2-75.8-7.1-113.7-11.2-53-5.8-105.6-4.1-158.8-2.7-86.6 2.4-173.3 6.1-260 6.7v-2.4c87.3-.6 174.7-4.4 262-6.8 53.1-1.5 105.7-3.3 158.6 2.7 37.8 4.2 75.4 10.3 113.5 11.5 47.5 1.4 95.3-5.2 142.4-10.5 67.3-7.5 131.1-14.4 197.7-2.6 47.2 8.2 101 5.5 149.1 5.7z" />
		<path fill="#fff" d="M1024-35.7v2.5c-52.6-.4-107.9 2.2-160-4.8-68.2-9.2-133.3-4.3-202 1.9-46.6 4.2-93.8 10.2-140.6 8.8-38.2-1.1-76.2-6.3-114.2-10-134.5-12.9-271.6 3-406.5 4.1v-2.5c136.8-1.1 276.3-17.9 412.6-4.1 37.9 3.9 75.8 9.4 113.9 10.6 47.1 1.4 94.6-4.9 141.4-9.5C736.9-45.4 801.4-51 869-40.9c50.1 7.5 104.3 4.9 155 5.2z" />
		<path fill="#fff" d="M1024-29.5v2.6c-59-.4-119 2.5-177.7-3.1-69.9-6.7-137.4-4-207.5.6-45.8 3-92 7.5-137.9 6.4-38.4-1-76.7-5.2-115-8.1-127.9-9.8-257 3.3-385 4.3v-2.6c131.2-1.1 263.9-15.3 394.8-4.2 38.2 3.2 76.3 7.9 114.7 8.9 46.3 1.3 93-4 139.1-7.5 69.5-5.3 135.9-8.9 205-1.2 55.7 6.2 113.4 3.5 169.5 3.9z" />
		<path fill="#fff" d="M1024-23.3v2.7c-67-.2-134.3 3.2-201.3-.9-71.8-4.5-142.5-3.5-214.5-1.2-84.1 2.7-166.5 2-250.4-2.5-118.9-6.4-238 3.7-357 4.6v-2.7c123.1-.9 246.6-12.3 369.6-4.4 84.6 5.4 166.8 6.2 251.5 2.2 71.2-3.4 140.5-5 211.4.4 63.3 4.7 127.3 1.5 190.7 1.8z" />
		<path fill="#fff" d="M1024-17.2v2.8c-76.2.1-152.2 4.2-228.3 1.7-74.2-2.5-148.2-2.7-222.5-3.1-82.6-.5-165-1.1-247.5-3.5C217.3-22.4 109.2-15 .8-14.4v-2.8C114-17.9 227-26.4 340.2-22c83.1 3.3 165.7 4 248.8 3 73.2-.8 145.8-1.1 218.9 2.2 72 3.4 144-.4 216.1-.4z" />
		<path fill="#fff" d="M1024-11v2.8C861.3-7.3 699.3-.8 536.6-9c-178.8-9.1-357 0-535.8.9v-2.8c102.2-.6 204.2-6.7 306.5-5.2 82 1.2 164 1.5 245.9 4 75.6 2.3 151.3 2.7 227 4.3 81.4 1.6 162.5-2.9 243.8-3.2z" />
		<path fill="#fff" d="M1024-4.8v2.9C849.7-.3 675.1 14.9 501.1-2.2 334.8-18.5 167.5-2.4.8-1.9v-2.9c172.3-.7 344.5-13.6 516.6-.5 169 12.7 337.5 1.7 506.6.5z" />
		<path fill="#fff" d="M1024 1.3v3c-183.8 2.2-371.6 26.9-554.4.3-155-22.5-312.8-.5-468.8-.3v-3C161.7.9 324-18.4 484.1 1.3 663 23.4 844.4 3.2 1024 1.3z" />
		<path fill="#fff" d="M1024 7.5v3.1C914.9 12 805.7 18.8 696.6 21.7c-45.2 1.2-90.5 2.8-135.7 3.3-39.3.5-77.6-6.5-116.1-13.8C406.5 4 368.5-3.1 329.4-2.4c-40.6.8-81.1 4.4-121.7 6.8C139.1 8.6 69.5 10.5.8 10.6V7.5C73 7.4 146 5.2 218.1 1.4c40.4-2.1 80.8-5.2 121.3-5.9 39.4-.7 78 6 116.6 12.5 38.9 6.6 77.8 13 117.4 12.6 43.9-.5 87.8-1.8 131.7-2.8 106.3-2.4 212.6-9 318.9-10.3z" />
		<path fill="#fff" d="M1024 13.7v3.2C911.1 18.2 798 25.4 685.2 29c-47.2 1.5-94.4 3.6-141.6 4.2-39 .5-76.3-6.9-114.2-15.4-37.6-8.5-74.7-16.2-113.5-15.3-40.9.9-81.6 5.2-122.3 8.2C129.8 15.4 64.8 16.8.8 16.9v-3.2c66-.1 132.9-1.8 198.8-6.2C240.3 4.8 280.9.8 321.7-.1c38.8-.8 76.4 6.7 114.2 14.6 38.2 7.9 75.9 15.2 115 14.7 46.3-.6 92.7-2.4 139-3.8 111.3-3.3 222.8-10.3 334.1-11.7z" />
		<path fill="#fff" d="M1024 19.8v3.3c-113.5 1.2-227.5 8.5-341 12.3-47.8 1.6-95.7 4-143.6 4.5-39 .3-75.7-6.8-113.4-15.8-37.5-8.9-74.3-16.5-113-15.7-41 .8-81.7 5.4-122.6 8.6-62.7 4.9-126.7 6-189.6 6.2v-3.3c63-.2 127.1-1.4 189.9-6.2 40.8-3.1 81.6-7.7 122.5-8.5 38.8-.8 75.6 6.8 113.1 15.7 37.8 8.9 74.6 16.1 113.6 15.8 47.8-.4 95.5-2.8 143.2-4.4 113.5-4 227.4-11.3 340.9-12.5z" />
		<path fill="#fff" d="M1024 26v3.4c-112.7 1.4-225.8 8.2-338.5 11.8-47.5 1.5-94.9 3.8-142.4 4.2-38.9.3-75.9-6.7-113.6-15.1-37.5-8.4-74.5-15.8-113.2-15-40.9.8-81.7 5.2-122.5 8.2-63.9 4.7-129 5.7-193.1 6v-3.4c63.3-.2 127.6-1.3 190.7-6.1 40.8-3.1 81.6-7.6 122.5-8.4 38.7-.8 75.6 6.8 113.1 15.5 37.7 8.8 74.6 15.9 113.5 15.6 47.7-.4 95.4-2.8 143.1-4.4 113.5-3.9 227.1-11 340.4-12.3z" />
		<path fill="#fff" d="M1024 32.2v3.4c-110.9 1.3-222.1 7.5-333 10.8-86.4 2.6-169.1 7.2-254.3-10C399 28.9 361.8 22 323.3 22.7c-40.8.7-81.6 4.7-122.3 7.4C134.6 34.5 67.4 35.3.8 35.6v-3.4c65.1-.3 131-1.2 195.9-5.8 40.8-2.9 81.5-7.1 122.4-7.9 38.6-.7 75.7 6.5 113.2 14.5 37.8 8.1 74.9 15 113.7 14.6 47.2-.4 94.4-2.6 141.6-4.1 112.1-3.4 224.4-10 336.4-11.3z" />
		<path fill="#fff" d="M1024 38.3v3.5c-108.4 1.1-217 6.5-325.4 9.4-85.3 2.3-167.6 6.1-252-8.7-37.8-6.6-75.3-12.5-113.7-11.9-40.8.6-81.4 4.1-122.1 6.5-69.7 4.1-140.1 4.5-210 4.7v-3.5c67.9-.2 136.4-.9 204.2-5.2 40.7-2.6 81.4-6.3 122.2-7 38.5-.7 75.8 5.8 113.5 13 84.9 16.2 167.4 11.9 253.4 9.4 109.9-3 220-8.9 329.9-10.2z" />
		<path fill="#fff" d="M1024 44.5v3.6c-105.4.8-211 5.4-316.4 7.7-84 1.9-165.9 5-249.3-7.1-79.5-11.5-156-8.4-236-4.5C148.7 47.8 74.5 47.9.7 48.1v-3.6c71.4-.2 143.4-.5 214.7-4.4 80.3-4.4 156.2-7.9 235.9 5.1 84 13.6 166.1 10.1 250.9 8 107.2-2.7 214.6-7.7 321.8-8.7z" />
		<path fill="#fff" d="M1024 50.7v3.7c-102.2.5-204.5 4.1-306.7 5.9-82.7 1.5-164.1 3.9-246.5-5.4-79.2-9-156.6-6.4-236.1-3.4-77.8 3-156 2.8-233.9 2.9v-3.7c75.4-.1 151.2-.2 226.6-3.5 79.8-3.5 156.6-6.4 236 4.1 83 11 164.7 8.2 248.2 6.4 104-2.2 208.3-6.4 312.4-7z" />
		<path fill="#fff" d="M1024 56.8v3.8c-179.7.2-361.4 15.2-540.8.3-79-6.5-157.1-4.5-236.3-2.4-82 2.3-164.2 2-246.2 2v-3.8c79.5-.1 159.3.1 238.8-2.6 79.3-2.7 157.1-5 236.2 3 81.9 8.3 163.1 6.1 245.3 4.8 101-1.5 202.1-4.8 303-5.1z" />
		<path fill="#fff" d="M1024 63v3.9c-176.3-.3-353.3 9.8-529.5.2C330.4 58.2 165 67 .7 66.9V63c83.5 0 167.1.3 250.6-1.7 79.1-1.9 157.4-3.7 236.3 2C665.8 76 845.6 63 1024 63z" />
		<path fill="#fff" d="M1024 69.2v4c-341.1-1-682.1.3-1023.2 0v-4c165.6.1 332-7.3 497.5.2 174.9 7.8 350.6-.6 525.7-.2zM1024 75.3v4.1c-341.1-.9-682.2.2-1023.2 0v-4.1c341.1.3 682.1-1.1 1023.2 0zM1024 81.5c-341.1-.7-682.2.2-1023.2 0v4.1H1024v-4.1z" />
	</g>
</svg>
